<?xml version="1.0" standalone="no"?>
<!DOCTYPE svg PUBLIC "-//W3C//DTD SVG 1.1//EN" "http://www.w3.org/Graphics/SVG/1.1/DTD/svg11.dtd" >
<svg xmlns="http://www.w3.org/2000/svg" xmlns:xlink="http://www.w3.org/1999/xlink" version="1.1">
<metadata>
Created by FontForge 20201107 at Wed Oct  4 13:16:31 2017
 By 
Copyright (c) 2017 by Studio Kmzero &#38; Zetafonts. All rights reserved.
</metadata>
<defs>
<font id="HeadingPro-ExtraBold" horiz-adv-x="894" >
  <font-face 
    font-family="Heading Pro ExtraBold"
    font-weight="800"
    font-stretch="normal"
    units-per-em="2048"
    panose-1="2 0 5 6 0 0 0 2 0 4"
    ascent="1638"
    descent="-410"
    x-height="1202"
    cap-height="1522"
    bbox="-170 -949 2244 2022"
    underline-thickness="0"
    underline-position="0"
    unicode-range="U+000D-FB06"
  />
<missing-glyph horiz-adv-x="1526" 
 />
    <glyph glyph-name="uniFB00" unicode="ff" horiz-adv-x="1239" 
d="M-15 943v259h134v8q0 75 7.5 132.5t28 109t54 85t87 53t126.5 19.5q125 0 223 -75l-15 -233l-11 6q-11 6 -14 7.5t-14.5 7t-18.5 7.5t-20 6t-24 5.5t-26 3t-31 1.5q-43 0 -58 -30t-15 -105v-8h340v8q0 75 7.5 132t27.5 109t53.5 85.5t88 53t127.5 19.5q123 0 222 -75
l-15 -233l-11 6q-11 6 -14 7.5t-14.5 7t-18.5 7.5t-20 6t-24 5.5t-26 3t-31 1.5q-43 0 -58 -30t-15 -105v-8h216v-259h-216v-943h-279v943h-340v-943h-279v943h-134z" />
    <glyph glyph-name="uniFB01" unicode="fi" horiz-adv-x="1074" 
d="M-13 943v259h134v8q0 75 7.5 132.5t28 109t54 85t87 53t126.5 19.5q129 0 213 -66l-16 -233q-65 35 -148 35q-43 0 -58.5 -30.5t-15.5 -104.5v-8h579v-1202h-277v943h-302v-943h-278v943h-134zM676 1445q0 70 39 103t122 33q86 0 124.5 -33t38.5 -103t-38.5 -102.5
t-124.5 -32.5q-83 0 -122 32.5t-39 102.5z" />
    <glyph glyph-name="uniFB02" unicode="fl" horiz-adv-x="1094" 
d="M994 0h-277v1374q-79 17 -141 17q-42 0 -73 -6t-49.5 -20t-30 -28t-16.5 -38t-6.5 -42t-1.5 -47v-8h216v-259h-216v-943h-278v943h-134v259h134v8q0 64 6 113.5t21.5 101.5t46 88.5t76.5 66t116 44.5t161 15q128 0 265.5 -38t180.5 -71v-1530z" />
    <glyph glyph-name="uniFB03" unicode="ffi" horiz-adv-x="1704" 
d="M-15 943v259h134v8q0 75 7.5 132.5t28 109t54 85t87 53t126.5 19.5q125 0 223 -75l-15 -233l-11 6q-11 6 -14 7.5t-14.5 7t-18.5 7.5t-20 6t-24 5.5t-26 3t-31 1.5q-43 0 -58 -30t-15 -105v-8h340v8q0 75 7.5 132t27.5 109t53.5 85.5t88 53t127.5 19.5q123 0 222 -75
l-15 -233l-11 6q-11 6 -14 7.5t-14.5 7t-18.5 7.5t-20 6t-24 5.5t-26 3t-31 1.5q-43 0 -58 -30t-15 -105v-8h593v-1202h-278v943h-315v-943h-279v943h-340v-943h-279v943h-134zM1308 1445q0 70 39 103t122 33q84 0 123.5 -33t39.5 -103t-39 -102.5t-124 -32.5
q-83 0 -122 32.5t-39 102.5z" />
    <glyph glyph-name="uniFB04" unicode="ffl" horiz-adv-x="1720" 
d="M-15 943v259h134v8q0 75 7.5 132.5t28 109t54 85t87 53t126.5 19.5q125 0 223 -75l-15 -233l-11 6q-11 6 -14 7.5t-14.5 7t-18.5 7.5t-20 6t-24 5.5t-26 3t-31 1.5q-43 0 -58 -30t-15 -105v-8h340v8q0 75 7.5 132t27.5 109t53.5 85.5t88 53t127.5 19.5q123 0 222 -75
l-15 -233l-11 6q-11 6 -14 7.5t-14.5 7t-18.5 7.5t-20 6t-24 5.5t-26 3t-31 1.5q-43 0 -58 -30t-15 -105v-8h332v-259h-332v-943h-279v943h-340v-943h-279v943h-134zM1618 0h-277v1569h277v-1569z" />
    <glyph glyph-name="f_t.liga" unicode="ft" horiz-adv-x="1283" 
d="M752 1587h279v-385h216v-259h-216v-566q0 -75 15 -105t58 -31q18 0 34 1.5t30.5 5t24.5 6t23 8.5t17.5 8t16.5 9l13 7l15 -233q-95 -75 -223 -75q-73 0 -126.5 19.5t-87 53t-54 85t-28 109t-7.5 132.5v566h-354v-943h-279v943h-134v259h134v8q0 75 7.5 132.5t28 109
t54 85t87 53t126.5 19.5q125 0 223 -75l-15 -233l-11 6q-11 6 -14 7.5t-14.5 7t-18.5 7.5t-20 6t-24 5.5t-26 3t-31 1.5q-43 0 -58 -30t-15 -105v-8h354v385z" />
    <glyph glyph-name="f_j.liga" unicode="fj" horiz-adv-x="1086" 
d="M-15 943v259h134v8q0 75 7.5 132.5t28 109t54 85t87 53t126.5 19.5q125 0 223 -75l-15 -233l-11 6q-11 6 -14 7.5t-14.5 7t-18.5 7.5t-20 6t-24 5.5t-26 3t-31 1.5q-43 0 -58 -30t-15 -105v-8h594v-1210q0 -75 -7.5 -132.5t-28 -109t-54 -85t-87 -53t-126.5 -19.5
q-128 0 -223 75l15 233l11 -6q11 -6 14 -7.5t14.5 -7t18.5 -7.5t20 -6t24 -5.5t26 -3t31 -1.5q43 0 58.5 30.5t15.5 104.5v951h-316v-943h-279v943h-134zM689 1445q0 70 39 103t122 33q86 0 125 -33t39 -103t-39 -102.5t-125 -32.5q-83 0 -122 32.5t-39 102.5z" />
    <glyph glyph-name=".notdef" horiz-adv-x="1526" 
 />
    <glyph glyph-name="glyph1" horiz-adv-x="0" 
 />
    <glyph glyph-name="uni000D" unicode="&#xd;" horiz-adv-x="361" 
 />
    <glyph glyph-name="glyph3" horiz-adv-x="0" 
 />
    <glyph glyph-name="glyph3" horiz-adv-x="0" 
 />
    <glyph glyph-name="space" unicode=" " horiz-adv-x="361" 
 />
    <glyph glyph-name="exclam" unicode="!" horiz-adv-x="488" 
d="M364 409h-238l-43 1113h320zM81 128q0 80 38.5 116t122.5 36q86 0 124.5 -36t38.5 -116q0 -78 -38.5 -114t-124.5 -36q-84 0 -122.5 36t-38.5 114z" />
    <glyph glyph-name="quotedbl" unicode="&#x22;" horiz-adv-x="702" 
d="M288 1081h-208l-22 441h253zM618 1081h-208l-21 441h252z" />
    <glyph glyph-name="numbersign" unicode="#" horiz-adv-x="823" 
d="M759 607l-11 -179h-109l-52 -428h-227l51 428h-91l-52 -428h-226l51 428h-88l10 179h99l42 350h-88l10 180h99l47 388h230l-48 -388h90l47 388h229l-47 -388h97l-10 -180h-109l-43 -350h99zM384 957l-42 -350h91l42 350h-91z" />
    <glyph glyph-name="dollar" unicode="$" horiz-adv-x="864" 
d="M811 428v-61q0 -158 -59.5 -251t-186.5 -123v-113h-283v113q-129 31 -184.5 125t-55.5 258v84h282v-82q0 -64 22 -94t78 -30q57 0 80 30t23 86v11q0 85 -16 129.5t-74 83.5l-142 97q-80 54 -127.5 100t-72 100t-31.5 105t-7 133v31q0 156 56.5 245t168.5 120v117h283
v-111q122 -28 181 -119t59 -254v-86l-283 1v91q-1 52 -21 78.5t-68 26.5q-95 0 -93 -113v-28q2 -120 88 -173l124 -74q147 -90 201 -193t58 -260z" />
    <glyph glyph-name="percent" unicode="%" horiz-adv-x="1674" 
d="M68 932v256q0 93 13 155.5t46.5 109.5t93 68.5t149.5 21.5t149 -21.5t92 -68.5t45.5 -109.5t12.5 -155.5v-242q0 -94 -12.5 -157t-45.5 -110t-92 -69t-149 -22q-171 0 -236.5 81t-65.5 263zM370 808q32 0 45.5 25.5t13.5 93.5v264q0 76 -12 104t-47 28q-36 0 -48.5 -28
t-12.5 -103v-251q0 -76 13 -104.5t48 -28.5zM1184 1522l-421 -1522h-266l420 1522h267zM1007 316v254q0 93 13 155.5t46 109.5t92.5 69t149.5 22t149 -21.5t92 -69t45.5 -110t12.5 -155.5v-241q0 -94 -12.5 -157t-45.5 -110.5t-92 -69.5t-149 -22q-171 0 -236 82t-65 264z
M1308 192q32 0 45.5 25.5t13.5 93.5v263q0 75 -12.5 103.5t-46.5 28.5q-36 0 -48.5 -28t-12.5 -104v-250q0 -75 13 -103.5t48 -28.5z" />
    <glyph glyph-name="ampersand" unicode="&#x26;" horiz-adv-x="940" 
d="M840 1038v-113h77v-255h-77v-284q0 -92 -19.5 -163.5t-63 -128t-120 -86.5t-183.5 -30t-183.5 30t-119.5 86.5t-62.5 128t-19.5 164.5v167q0 103 37 169t105 86q-67 22 -99 89.5t-32 187.5v85q0 165 92 258t287 93h214l2 -262h-208q-54 0 -77 -27.5t-25 -85.5l-1 -90
q-2 -71 22 -101t82 -30h89v113zM352 554v-146q0 -154 99 -154q42 0 66.5 23t32 54.5t7.5 76.5v260h-101q-54 0 -79 -31.5t-25 -82.5z" />
    <glyph glyph-name="quotesingle" unicode="'" horiz-adv-x="369" 
d="M288 1081h-208l-22 441h253z" />
    <glyph glyph-name="parenleft" unicode="(" horiz-adv-x="542" 
d="M486 -111h-17q-80 0 -143.5 16t-103.5 39.5t-69 62.5t-43 71t-22 80.5t-9 76t-1 70.5v911q0 32 0.5 49.5t4 55t10 62t20 60t32 59t49 50t68 42t91 26t116.5 10.5h17v-250h-17q-28 0 -49 -8.5t-33 -26t-19 -31.5t-9.5 -38t-3 -31.5t-0.5 -25.5v-928q0 -151 114 -151h17
v-251z" />
    <glyph glyph-name="parenright" unicode=")" horiz-adv-x="540" 
d="M65 -111h-16v251h16q116 0 116 151v928q0 161 -116 161h-16v250h16q63 0 116.5 -10.5t91.5 -26t68 -42t49 -50t32.5 -59t20 -60t10 -61.5t4 -55.5t0.5 -49.5v-911q0 -33 -0.5 -54t-4.5 -58t-10.5 -62.5t-20.5 -59.5t-33 -57.5t-49.5 -49t-68 -40.5t-90 -25t-115.5 -10z
" />
    <glyph glyph-name="asterisk" unicode="*" horiz-adv-x="870" 
d="M540 1522l-24 -261l242 102l65 -202l-254 -59l171 -198l-171 -126l-136 225l-137 -223l-170 123l172 199l-254 61l65 199l241 -101l-22 261h212z" />
    <glyph glyph-name="plus" unicode="+" horiz-adv-x="835" 
d="M296 364v216h-217v247h217v214h245v-214h215v-247h-215v-216h-245z" />
    <glyph glyph-name="comma" unicode="," horiz-adv-x="444" 
d="M64 128q0 79 39 115.5t122 36.5q165 0 165 -182q0 -239 -135 -374l-123 72q41 50 58 90t23 92q-149 0 -149 150z" />
    <glyph glyph-name="hyphen" unicode="-" horiz-adv-x="707" 
d="M647 467h-589v247h589v-247z" />
    <glyph glyph-name="period" unicode="." horiz-adv-x="458" 
d="M64 128q0 80 38.5 116t122.5 36q87 0 126 -36t39 -116q0 -78 -39.5 -114t-125.5 -36q-83 0 -122 36.5t-39 113.5z" />
    <glyph glyph-name="slash" unicode="/" horiz-adv-x="698" 
d="M696 1599l-422 -1679h-272l419 1679h275z" />
    <glyph glyph-name="zero" unicode="0" horiz-adv-x="890" 
d="M76 394v735q0 95 16.5 166t56.5 129.5t114 89t182 30.5q87 0 152.5 -21t106.5 -56.5t66 -90t34.5 -113.5t9.5 -134v-735q0 -75 -10 -134.5t-35 -113.5t-66 -90t-106 -57t-152 -21q-108 0 -182.5 31t-114 90t-56 129.5t-16.5 165.5zM445 254q24 0 41 9t25.5 21t13.5 33
t6 37t1 41v734q0 24 -1 39.5t-5.5 36.5t-13.5 33.5t-26 21.5t-41 9q-29 0 -47.5 -11.5t-26.5 -34.5t-10 -43t-2 -51v-735q0 -24 1 -39.5t5.5 -36.5t13 -33.5t25.5 -21.5t41 -9z" />
    <glyph glyph-name="one" unicode="1" horiz-adv-x="582" 
d="M490 0h-276v1162q-29 -34 -90.5 -55.5t-122.5 -25.5v262q40 8 76 23.5t59 30t51 41.5t40.5 41.5t38.5 45.5h224v-1525z" />
    <glyph glyph-name="two" unicode="2" horiz-adv-x="892" 
d="M812 0h-728v251q22 82 77.5 185t118.5 197t123 186t99 179t39 151q0 120 -87 120q-50 0 -67.5 -34t-17.5 -92v-118h-284v149q0 179 92 276t282 97q185 0 275.5 -99t90.5 -298q0 -88 -30.5 -181.5t-80.5 -180t-103 -167.5t-107.5 -175t-84.5 -171h393v-275z" />
    <glyph glyph-name="three" unicode="3" 
d="M821 423q0 -243 -89 -344t-286 -101q-374 0 -374 394v98h282v-103q0 -56 24 -84.5t68 -28.5q45 0 69 29t24 98v143q0 64 -28.5 93t-84.5 30l-87 2v261l97 4q50 0 70.5 37t20.5 139v49q0 24 -1 40t-6 34.5t-13.5 29.5t-24.5 18.5t-38 7.5q-79 0 -79 -107v-110h-283v95
q0 204 89 300.5t280 96.5q186 0 272.5 -100.5t86.5 -317.5q0 -108 -14.5 -176t-44 -105.5t-80.5 -58.5q88 -32 119 -121t31 -242z" />
    <glyph glyph-name="four" unicode="4" horiz-adv-x="941" 
d="M289 1522h293l-198 -1025h118v325h275v-325h86v-275h-86v-222h-275v222h-427v190z" />
    <glyph glyph-name="five" unicode="5" horiz-adv-x="909" 
d="M834 516q0 -154 -22 -258t-69.5 -166t-115 -88t-166.5 -26q-195 0 -283.5 95t-88.5 274v141h283v-146q0 -88 84 -88q61 0 75 48t14 221q0 160 -14 204t-69 44q-44 0 -63.5 -19t-28.5 -58v-20h-281l21 848h672v-276h-394l-12 -282q52 71 192 71q47 0 83 -6.5t63.5 -23
t47 -36t32.5 -55t21 -70t12.5 -90.5t5.5 -108t1 -130z" />
    <glyph glyph-name="six" unicode="6" horiz-adv-x="884" 
d="M443 -22q-87 0 -152.5 21.5t-106 57.5t-66 91t-35 114.5t-9.5 134.5v730q0 95 16.5 166t55.5 130t113.5 90t181.5 31t179.5 -31t110 -89.5t52.5 -126t15 -158.5v-64h-284v43q0 46 -4.5 76t-21 52.5t-46.5 22.5q-29 0 -46.5 -11t-25.5 -36.5t-10 -49.5t-2 -67v-207
q51 109 162 109q77 0 131.5 -22t85.5 -56t48 -92t22 -113t5 -136v-190q0 -75 -10 -135.5t-35 -115t-66 -90.5t-106 -57.5t-152 -21.5zM358 567v-148v-14q0 -31 0.5 -46.5t4.5 -39t12.5 -35t25.5 -21t42 -9.5q29 0 47.5 13t26.5 39.5t10.5 51t2.5 61.5v148q0 41 -2 64.5
t-9.5 49.5t-25.5 38t-46 12q-55 0 -72 -40.5t-17 -123.5z" />
    <glyph glyph-name="seven" unicode="7" horiz-adv-x="902" 
d="M841 1307l-334 -1307h-297l328 1246h-213v-159h-261v435h777v-215z" />
    <glyph glyph-name="eight" unicode="8" horiz-adv-x="856" 
d="M67 1099v37q0 94 16 163.5t55 127t112 87.5t179 30t179 -30t111.5 -87.5t54.5 -127t16 -163.5v-41q0 -219 -124 -309q132 -84 132 -313v-86q0 -94 -17.5 -165t-58 -128t-114 -86.5t-179.5 -29.5q-85 0 -150 20t-106.5 55t-67 87.5t-36 112t-10.5 133.5v82q0 126 27 202.5
t91 117.5q-110 84 -110 311zM429 653q-29 0 -47 -14t-26 -41.5t-10.5 -52.5t-2.5 -63v-74q0 -29 0.5 -40.5t2.5 -34.5t7 -33t14.5 -23t25 -18t36.5 -5q28 0 46 11.5t26 35t11 47.5t3 60v74q0 30 -1 50.5t-6 45.5t-13.5 39.5t-25.5 25t-40 10.5zM429 927q22 0 37.5 10t23 24
t12 38.5t5 42.5t0.5 47v26q0 26 -0.5 38t-2.5 34.5t-6.5 33.5t-13 24t-22.5 18.5t-33 5.5t-33.5 -5t-22.5 -18t-13 -23t-6.5 -33t-2 -34.5t-0.5 -40.5v-25q0 -26 0.5 -40t2.5 -37t7 -35t13 -25.5t22 -19.5t33 -6z" />
    <glyph glyph-name="nine" unicode="9" horiz-adv-x="852" 
d="M794 1126v-729q0 -75 -9.5 -135t-34.5 -114.5t-65.5 -90.5t-105.5 -57t-152 -21q-106 0 -178.5 31t-110 89.5t-52.5 126.5t-15 158v65h283v-43q0 -34 2.5 -58t10 -47t22.5 -35t38 -12t39.5 8.5t25 21t13.5 36t6 44t1 54.5v210q-51 -112 -164 -112q-65 0 -113.5 14t-80 43
t-51.5 63.5t-30 86.5t-13.5 99.5t-3.5 113.5v190q0 95 16.5 166.5t56.5 130.5t114 90t182 31q87 0 152.5 -21.5t106 -57.5t66 -90.5t35 -114t9.5 -134.5zM422 791q55 0 72.5 41t17.5 124v149q0 90 -12 119q-18 46 -75 46q-29 0 -47 -13.5t-26 -40t-10.5 -50.5t-2.5 -61v-149
q0 -32 1 -51.5t5.5 -44t13 -37.5t24.5 -22.5t39 -9.5z" />
    <glyph glyph-name="colon" unicode=":" horiz-adv-x="440" 
d="M55 128q0 80 38.5 116t122.5 36q87 0 126 -36t39 -116q0 -78 -39.5 -114t-125.5 -36q-83 0 -122 36.5t-39 113.5zM55 1071q0 80 38.5 116t122.5 36q87 0 126 -36t39 -116q0 -78 -39.5 -114t-125.5 -36q-83 0 -122 36.5t-39 113.5z" />
    <glyph glyph-name="semicolon" unicode=";" horiz-adv-x="441" 
d="M55 128q0 79 39 115.5t122 36.5q165 0 165 -182q0 -239 -135 -374l-123 72q41 50 58 90t23 92q-149 0 -149 150zM55 1071q0 80 38.5 116t122.5 36q87 0 126 -36t39 -116q0 -78 -39.5 -114t-125.5 -36q-83 0 -122 36.5t-39 113.5z" />
    <glyph glyph-name="less" unicode="&#x3c;" horiz-adv-x="756" 
d="M673 173l-623 423v213l623 423v-301l-327 -229l327 -228v-301z" />
    <glyph glyph-name="equal" unicode="=" horiz-adv-x="835" 
d="M756 785h-677v247h677v-247zM756 373h-677v247h677v-247z" />
    <glyph glyph-name="greater" unicode="&#x3e;" horiz-adv-x="756" 
d="M706 596l-623 -423v301l327 228l-327 229v301l623 -423v-213z" />
    <glyph glyph-name="question" unicode="?" horiz-adv-x="875" 
d="M797 1142q0 -91 -25 -173.5t-61 -143t-72 -115t-62 -112.5t-27 -113l-2 -76h-241l-1 80q-2 88 18.5 167t51.5 137t62.5 111.5t53.5 115t22 124.5q0 62 -17 91.5t-63 29.5q-47 0 -62.5 -24.5t-18.5 -78.5l-2 -103h-272l-3 91q0 71 9.5 127t33.5 107t63.5 85t102 54
t146.5 20q178 0 272 -93.5t94 -307.5zM264 128q0 80 38.5 116t122.5 36q86 0 125.5 -36t39.5 -116q0 -78 -39.5 -114t-125.5 -36q-84 0 -122.5 36t-38.5 114z" />
    <glyph glyph-name="at" unicode="@" horiz-adv-x="1283" 
d="M1156 -26v-240h-398q-155 0 -272.5 38t-205 120.5t-133 221.5t-45.5 332v373q0 163 28.5 288.5t78.5 206.5t123.5 133t156.5 73t185 21q125 0 218 -38.5t149.5 -110t84.5 -165.5t30 -212h1v-3h-1q0 -3 0.5 -7t0.5 -6v-861h-246v85q-41 -104 -142 -104q-78 0 -131 26.5
t-81.5 78t-40 113t-11.5 145.5v297q0 66 6.5 117.5t24 99.5t46 79t75.5 49.5t110 18.5q99 0 144 -108q-11 261 -237 261q-172 0 -247.5 -118t-75.5 -359v-373q0 -87 14.5 -158t38 -119t58 -84.5t69.5 -57t77 -33t77 -16.5t73 -4h398zM831 357q32 0 50.5 22t23 45.5t6.5 58.5
v295q-7 122 -80 122q-26 0 -42.5 -10t-23.5 -29t-9.5 -36.5t-2.5 -42.5v-306q0 -25 2 -42.5t9 -37t24 -29.5t43 -10z" />
    <glyph glyph-name="A" unicode="A" horiz-adv-x="916" 
d="M9 0l245 1523h373l245 -1523h-285l-30 232h-234l-29 -232h-285zM440 1155l-84 -664h168z" />
    <glyph glyph-name="B" unicode="B" horiz-adv-x="959" 
d="M596 387v167q0 51 -25 82.5t-78 31.5h-101v-393h101q56 0 80 26t23 86zM585 1057l-2 90q-2 58 -25 85.5t-77 27.5h-89v-334h72q69 0 95.5 29.5t25.5 101.5zM880 554v-162q0 -205 -94.5 -298.5t-289.5 -93.5h-388v1522h382q195 0 286.5 -93t91.5 -258v-85
q0 -121 -31.5 -188t-98.5 -89q67 -21 104.5 -86.5t37.5 -168.5z" />
    <glyph glyph-name="C" unicode="C" horiz-adv-x="913" 
d="M558 497h284v-112q0 -406 -381 -406v-1q-87 0 -153.5 21t-109.5 57.5t-70 90.5t-38 114.5t-11 134.5v731q0 93 18.5 165.5t60.5 131t118 89.5t183 31l1 1q382 0 382 -410v-109h-284v108q0 135 -97 135q-31 0 -51.5 -12t-30 -34.5t-13 -44.5t-3.5 -51v-731q0 -29 3 -50.5
t12.5 -44t30.5 -35t52 -12.5q97 0 97 132v111z" />
    <glyph glyph-name="D" unicode="D" horiz-adv-x="944" 
d="M108 1521h379q106 0 181.5 -31t117.5 -89t60.5 -130t18.5 -165v-690q0 -94 -18.5 -166.5t-61 -130.5t-118.5 -88.5t-183 -30.5h-376v1521zM391 275h96q96 0 96 141v689q0 137 -96 141h-96v-971z" />
    <glyph glyph-name="E" unicode="E" horiz-adv-x="858" 
d="M780 0h-673v1521l673 1v-276h-390v-337h321v-276h-321v-358h390v-275z" />
    <glyph glyph-name="F" unicode="F" horiz-adv-x="847" 
d="M780 1246h-389v-380h315v-276h-315v-590h-283v1521h672v-275z" />
    <glyph glyph-name="G" unicode="G" horiz-adv-x="919" 
d="M454 567v272h388v-454q0 -406 -381 -406v-1q-108 0 -184.5 31t-118.5 90t-60.5 131t-18.5 166v731q0 94 18 166t60 130.5t118 89.5t184 31l1 1q382 0 382 -410v-109h-284v108q0 135 -97 135q-99 0 -99 -142v-731q0 -39 5.5 -67t29 -51.5t64.5 -23.5q97 0 97 132v181h-104
z" />
    <glyph glyph-name="H" unicode="H" horiz-adv-x="1011" 
d="M392 0h-284v1522h284v-617h228v617h283v-1522h-283v630h-228v-630z" />
    <glyph glyph-name="I" unicode="I" horiz-adv-x="500" 
d="M392 0h-284v1522h284v-1522z" />
    <glyph glyph-name="J" unicode="J" horiz-adv-x="689" 
d="M119 1246v275h466v-1150q0 -191 -86 -289.5t-294 -98.5q-119 0 -196 60l77 243q25 -15 49 -22t70 -7q54 0 75.5 30t21.5 91v868h-183z" />
    <glyph glyph-name="K" unicode="K" horiz-adv-x="964" 
d="M392 0h-284v1522h284v-617h67l192 616h301l-233 -741l249 -780h-302l-199 630h-75v-630z" />
    <glyph glyph-name="L" unicode="L" horiz-adv-x="772" 
d="M761 0h-653v1522h283v-1250h370v-272z" />
    <glyph glyph-name="M" unicode="M" horiz-adv-x="1266" 
d="M518 172l-159 814l16 -986h-267v1522h355l172 -832l171 832h353v-1522h-267l16 973l-156 -801h-234z" />
    <glyph glyph-name="N" unicode="N" horiz-adv-x="1011" 
d="M374 0h-266v1522h322l251 -888v888h267l1 -1522h-296l-279 927v-927z" />
    <glyph glyph-name="O" unicode="O" horiz-adv-x="914" 
d="M75 396v731q0 93 18.5 165.5t61 131t118.5 89.5t184 31q87 0 153.5 -21t109.5 -57.5t70 -90t38 -114t11 -134.5v-732q0 -74 -11 -134.5t-38 -114t-70 -90t-109.5 -57.5t-153.5 -21t-153.5 21t-109.5 57.5t-70 90.5t-38 114.5t-11 134.5zM457 254h1q1 -1 3 -1q95 3 95 142
v732q0 28 -3.5 49.5t-13 44t-30.5 35t-52 12.5q-3 0 -4 1q-39 -1 -61 -24.5t-27.5 -51t-5.5 -66.5v-731q0 -29 3 -50.5t12.5 -44t30.5 -35t52 -12.5z" />
    <glyph glyph-name="P" unicode="P" horiz-adv-x="932" 
d="M861 1141v-257q0 -110 -27 -187t-79.5 -120.5t-121 -63t-160.5 -19.5h-81v-494h-283v1522h366q90 0 158.5 -20t120.5 -63.5t79.5 -118.5t27.5 -179zM576 884v257q0 54 -23 79.5t-78 25.5h-83v-479h77q59 0 83 27t24 90z" />
    <glyph glyph-name="Q" unicode="Q" horiz-adv-x="914" 
d="M344 -178v167q-269 52 -269 407v731q0 93 18.5 165.5t61 131t118.5 89.5t184 31q87 0 153.5 -21t109.5 -57.5t70 -90t38 -114t11 -134.5v-732q0 -338 -247 -401v-172h-248zM457 254h1q1 -1 3 -1q95 3 95 142v732q0 28 -3.5 49.5t-13 44t-30.5 35t-52 12.5q-3 0 -4 1
q-39 -1 -61 -24.5t-27.5 -51t-5.5 -66.5v-731q0 -29 3 -50.5t12.5 -44t30.5 -35t52 -12.5z" />
    <glyph glyph-name="R" unicode="R" horiz-adv-x="960" 
d="M392 0h-284v1521h388q195 0 289.5 -93t94.5 -298v-172q0 -173 -142 -288q58 -42 80.5 -95.5t32.5 -176.5l14 -207q7 -87 60 -191h-293q-11 19 -29.5 73.5t-21.5 109.5l-16 208q-6 99 -40.5 139.5t-83.5 37.5h-49v-568zM596 958v175q0 60 -23.5 86.5t-79.5 26.5h-101v-402
h101q53 0 78 31t25 83z" />
    <glyph glyph-name="S" unicode="S" horiz-adv-x="907" 
d="M839 428v-61q0 -194 -93.5 -291.5t-290.5 -97.5q-209 0 -297 97.5t-88 300.5v121h282v-119q0 -64 22 -94t78 -30q57 0 80 30t23 86v11q0 85 -16 129.5t-74 83.5l-142 97q-80 54 -127.5 100t-72 100t-31.5 105t-7 133v31q0 202 95 293t284 91q190 0 280 -92.5t90 -293.5
v-132h-283v138q-1 52 -21 78.5t-69 26.5q-95 0 -93 -113v-28q2 -120 88 -173l124 -74q147 -90 201 -193t58 -260z" />
    <glyph glyph-name="T" unicode="T" horiz-adv-x="781" 
d="M770 1246h-237v-1246h-285v1246h-238v275h760v-275z" />
    <glyph glyph-name="U" unicode="U" horiz-adv-x="945" 
d="M571 1521h282v-1154q0 -94 -18.5 -162.5t-61 -121t-117.5 -79t-183 -26.5t-183.5 26.5t-118 79t-61 121t-18.5 162.5v1154h282v-1153q0 -56 19.5 -85.5t79.5 -29.5t79 29.5t19 85.5v1153z" />
    <glyph glyph-name="V" unicode="V" horiz-adv-x="890" 
d="M592 1523h285l-246 -1523h-374l-247 1523h286l148 -1158z" />
    <glyph glyph-name="W" unicode="W" horiz-adv-x="1357" 
d="M805 0l-127 891l-127 -891h-332l-183 1523h285l89 -1025l140 1025h256l140 -1025l89 1025h285l-183 -1523h-332z" />
    <glyph glyph-name="X" unicode="X" horiz-adv-x="951" 
d="M944 0h-314l-161 500l-148 -500h-314l279 787l-255 735h311l138 -445l135 445h310l-263 -735z" />
    <glyph glyph-name="Y" unicode="Y" horiz-adv-x="895" 
d="M890 1521l-294 -985v-536h-283v536l-308 985h311l141 -598l156 598h277z" />
    <glyph glyph-name="Z" unicode="Z" horiz-adv-x="816" 
d="M759 0h-702v256l378 990h-362v275h684v-236l-388 -1010h390v-275z" />
    <glyph glyph-name="bracketleft" unicode="[" horiz-adv-x="534" 
d="M486 -111h-408v1741h408v-250h-131v-1240h131v-251z" />
    <glyph glyph-name="backslash" unicode="\" horiz-adv-x="698" 
d="M422 -80l-420 1679h274l420 -1679h-274z" />
    <glyph glyph-name="bracketright" unicode="]" horiz-adv-x="534" 
d="M457 -111h-408v251h132v1240h-132v250h408v-1741z" />
    <glyph glyph-name="asciicircum" unicode="^" horiz-adv-x="1065" 
d="M739 1599l243 -755h-287l-144 501h-38l-144 -501h-287l242 755h415z" />
    <glyph glyph-name="underscore" unicode="_" horiz-adv-x="851" 
d="M830 -272h-808v228h808v-228z" />
    <glyph glyph-name="grave" unicode="`" horiz-adv-x="430" 
d="M25 1564h242l132 -284h-192z" />
    <glyph glyph-name="a" unicode="a" horiz-adv-x="918" 
d="M824 0h-276v113q-52 -135 -171 -135q-87 0 -147.5 27.5t-94 81t-48 121.5t-14.5 159t12.5 151t45.5 104t92 63.5t150 19.5q96 0 174 -21v132q0 30 -3 51t-11.5 43.5t-28.5 34.5t-51 12q-92 0 -92 -129v-28h-277v24q0 90 17 159t57 125.5t114 86.5t180 30q105 0 179 -28.5
t115.5 -83.5t59.5 -124.5t18 -161.5v-827zM446 246q54 0 77.5 46.5t23.5 104.5v54q-43 26 -106 26q-30 0 -49 -9t-27.5 -27.5t-11 -36t-2.5 -44.5q0 -114 95 -114z" />
    <glyph glyph-name="b" unicode="b" horiz-adv-x="930" 
d="M384 0h-276v1569h276v-469q46 125 164 125q89 0 150 -30.5t93.5 -89.5t46 -129.5t13.5 -165.5v-416q0 -76 -7.5 -135t-27.5 -113.5t-53 -90t-86.5 -56.5t-124.5 -21q-121 0 -168 130v-108zM479 957q-94 0 -94 -164v-381q0 -163 94 -163q30 0 50 11.5t29 34t12 43.5t3 51
v427q0 30 -2.5 50.5t-11.5 43.5t-29 35t-51 12z" />
    <glyph glyph-name="c" unicode="c" horiz-adv-x="891" 
d="M544 377v26h275v-23q0 -73 -9.5 -130.5t-35 -109.5t-66 -86.5t-105.5 -55t-152 -20.5q-108 0 -183.5 31t-116.5 89.5t-58.5 130t-17.5 165.5v323q0 73 1 110q0 92 18 161.5t59.5 124.5t115.5 83.5t179 28.5q107 0 182 -30t115 -87t57 -125.5t17 -158.5v-24h-275v28
q0 129 -96 129q-31 0 -51 -12t-28.5 -34.5t-11.5 -43.5t-3 -51v-273q0 -124 1 -187q7 -107 93 -107q96 0 96 128z" />
    <glyph glyph-name="d" unicode="d" horiz-adv-x="923" 
d="M816 0h-276v100q-47 -122 -163 -122q-72 0 -125.5 21t-87 57t-54 90t-28 113.5t-7.5 134.5v415q0 76 7.5 135t27.5 113.5t53 90t86.5 56.5t124.5 21q118 0 166 -127v471h276v-1569zM446 246q94 0 94 165v395q-1 29 -5 51t-13 46.5t-28.5 38t-47.5 13.5q-30 0 -50 -12
t-29 -34.5t-12 -43.5t-3 -51v-427q0 -23 1.5 -40t7 -37t15 -33t27.5 -22t43 -9z" />
    <glyph glyph-name="e" unicode="e" horiz-adv-x="893" 
d="M544 406h275v-24q0 -93 -16.5 -162t-56 -126t-113.5 -86.5t-182 -29.5t-183.5 31t-116.5 89.5t-58.5 130t-17.5 165.5v415q0 75 10 135t36 114t67.5 89.5t107 56.5t152.5 21t152 -20.5t106.5 -55.5t67 -88t35.5 -111t10 -130v-273l-469 -94v-62q0 -29 3 -50.5t12.5 -44
t30.5 -35t52 -12.5q57 0 76.5 36.5t19.5 93.5v27zM448 957q-41 0 -64 -23.5t-28.5 -51.5t-5.5 -68v-121l194 43v89q0 132 -96 132z" />
    <glyph glyph-name="f" unicode="f" horiz-adv-x="610" 
d="M623 1556l-50 -228q-59 17 -99 17q-43 0 -58.5 -30.5t-15.5 -104.5v-8h160v-259h-160v-943h-278v943h-105v259h105v8q0 75 7.5 132.5t28 109t54 85t87 53t126.5 19.5q92 0 198 -53z" />
    <glyph glyph-name="g" unicode="g" horiz-adv-x="902" 
d="M540 1202h279v-1210q0 -92 -16.5 -162t-53 -125t-101 -83.5t-155.5 -28.5q-195 0 -306 58l16 233q76 -27 240 -27q97 0 97 135v106q-48 -120 -163 -120q-72 0 -125.5 21t-87 57t-54 90t-28 113.5t-7.5 134.5v415q0 76 7.5 135t27.5 113.5t53 90t86.5 56.5t124.5 21
q115 0 166 -126v103zM447 246q82 0 93 127v454q-11 128 -93 128q-31 0 -51 -12t-28.5 -34.5t-11.5 -43.5t-3 -51v-427q0 -29 2.5 -50t11.5 -44t29 -35t51 -12z" />
    <glyph glyph-name="h" unicode="h" horiz-adv-x="929" 
d="M837 0h-278v815q0 30 -2.5 50.5t-11 43.5t-29 35t-51.5 12q-93 0 -93 -166v-790h-276v1567h276v-471q47 128 164 128q71 0 124.5 -21t87 -57t54 -90t28 -113t7.5 -134v-809z" />
    <glyph glyph-name="i" unicode="i" horiz-adv-x="468" 
d="M71 1445q0 70 39 103t122 33q84 0 123.5 -33t39.5 -103t-39 -102.5t-124 -32.5q-83 0 -122 32.5t-39 102.5zM373 0h-277v1202h277v-1202z" />
    <glyph glyph-name="j" unicode="j" horiz-adv-x="470" 
d="M71 1445q0 70 39 103t122 33q84 0 123.5 -33t39.5 -103t-39 -102.5t-124 -32.5q-83 0 -122 32.5t-39 102.5zM95 1202h279v-1210q0 -75 -7.5 -132.5t-28 -109t-54 -85t-87 -53t-126.5 -19.5q-125 0 -223 75l15 233l11 -6q11 -6 14 -7.5t14.5 -7t18.5 -7.5t20 -6t24 -5.5
t26 -3t31 -1.5q43 0 58 30t15 105v1210z" />
    <glyph glyph-name="k" unicode="k" horiz-adv-x="903" 
d="M94 1569h277v-825h72l146 458h280l-215 -602l243 -600h-306l-152 470h-68v-470h-277v1569z" />
    <glyph glyph-name="l" unicode="l" horiz-adv-x="468" 
d="M372 0h-277v1569h277v-1569z" />
    <glyph glyph-name="m" unicode="m" horiz-adv-x="1395" 
d="M837 0h-278v815q0 25 -1 40.5t-6 36.5t-14 33.5t-27 21.5t-43 9q-89 0 -96 -150v-806h-276v1202h276v-101q86 123 216 123q134 0 197 -118q81 118 243 118q66 0 115.5 -21t79.5 -56.5t48 -90.5t24.5 -113t6.5 -134v-809h-277v815q0 25 -1 40.5t-6 36.5t-14 33.5t-27 21.5
t-43 9q-96 0 -96 -165v-326l-1 1v-466z" />
    <glyph glyph-name="n" unicode="n" horiz-adv-x="929" 
d="M837 0h-278v815q0 31 -2.5 50.5t-10.5 43t-28 35.5t-51 12q-95 0 -95 -166v-790h-276v1202h276v-108q27 56 82 93t117 37q67 0 115.5 -21.5t77 -56.5t45.5 -90.5t22.5 -112.5t5.5 -134v-809z" />
    <glyph glyph-name="o" unicode="o" 
d="M75 394v415q0 95 17 166.5t57.5 130t115 89t182.5 30.5q87 0 152.5 -21t106.5 -57t67 -89.5t36 -113t10 -134.5v-416q0 -95 -16.5 -166t-56 -130t-113.5 -89.5t-182 -30.5t-183.5 31t-116.5 89.5t-58.5 130t-17.5 165.5zM447 957q-31 0 -51 -12t-28.5 -34.5t-11.5 -43.5
t-3 -51v-427q0 -29 2.5 -49.5t11.5 -43.5t29 -35t51 -12q30 0 50 11.5t28.5 34t11.5 43.5t3 51v427q0 30 -2.5 50.5t-11 43.5t-28.5 35t-51 12z" />
    <glyph glyph-name="p" unicode="p" horiz-adv-x="918" 
d="M372 -367h-277v1569h277v-102q46 125 164 125q72 0 125.5 -21t87 -56.5t54 -90t28 -113.5t7.5 -134v-416q0 -76 -7.5 -135t-27.5 -113.5t-53 -90t-86.5 -56.5t-124.5 -21q-120 0 -167 129v-474zM467 249q30 0 50 11.5t29 34t12 43.5t3 51v427q0 29 -3 50t-11.5 44
t-28.5 35t-51 12q-94 0 -94 -164v-381q0 -163 94 -163z" />
    <glyph glyph-name="q" unicode="q" horiz-adv-x="911" 
d="M817 -367h-276v467q-47 -122 -163 -122q-72 0 -125.5 21t-87 57t-54 90t-28 113.5t-7.5 134.5v415q0 76 7.5 135t27.5 113.5t53 90t86.5 56.5t124.5 21q118 0 166 -127v104h276v-1569zM447 246q94 0 94 165v395q-1 29 -5 51t-13 46.5t-28.5 38t-47.5 13.5q-30 0 -50 -12
t-29 -34.5t-12 -43.5t-3 -51v-427q0 -23 1.5 -40t7 -37t15 -33t27.5 -22t43 -9z" />
    <glyph glyph-name="r" unicode="r" horiz-adv-x="629" 
d="M620 1202v-293q-1 0 -13.5 6.5t-27.5 13.5t-41.5 13t-52.5 6h-2q-56 0 -82 -46.5t-29 -107.5v-794h-276v1202h276v-119q52 142 171 142v-2l2 2q46 0 75 -23z" />
    <glyph glyph-name="s" unicode="s" horiz-adv-x="831" 
d="M780 367q0 -189 -83 -289t-282 -100q-86 0 -150.5 19.5t-106.5 54t-68.5 87.5t-37 115t-10.5 142h278q0 -71 20 -109t72 -38q38 0 57 24t19 56q0 33 -24 63t-62 55.5t-84 53t-92.5 60.5t-84.5 71t-62 92.5t-24 118.5q0 196 81.5 289t282.5 93q66 0 115.5 -9t96 -35
t76 -69.5t47 -115t17.5 -168.5l-278 1q0 128 -74 128q-45 0 -63.5 -24t-18.5 -55q0 -29 24.5 -56.5t63.5 -52t86.5 -51.5t94.5 -61t86 -73.5t63.5 -95.5t24.5 -121z" />
    <glyph glyph-name="t" unicode="t" horiz-adv-x="683" 
d="M143 1587h279v-385h182v-259h-182v-566q0 -75 15 -105t58 -31q18 0 34 1.5t30.5 5t24.5 6t23 8.5t17.5 8t17.5 9l12 7l15 -233q-95 -75 -222 -75q-73 0 -127.5 19.5t-88 53t-53.5 85.5t-27.5 109t-7.5 132v566h-127v259h127v385z" />
    <glyph glyph-name="u" unicode="u" horiz-adv-x="929" 
d="M558 1202h276v-1202h-276v107q-48 -128 -162 -128q-72 0 -126 21t-87.5 57t-54 90t-28 113t-7.5 134v809h278v-816q0 -30 2.5 -50t11 -43t29 -35t51.5 -12q28 0 47 13.5t28 37.5t13 46.5t5 51.5v806z" />
    <glyph glyph-name="v" unicode="v" horiz-adv-x="863" 
d="M569 1204h285l-235 -1204h-375l-235 1204h285l137 -900z" />
    <glyph glyph-name="w" unicode="w" horiz-adv-x="1435" 
d="M186 0l-175 1204h285l109 -936h4l109 936h398l109 -936h4l109 936h286l-176 -1204h-425l-106 899l-106 -899h-425z" />
    <glyph glyph-name="x" unicode="x" horiz-adv-x="834" 
d="M828 0h-289l-128 363l-135 -363h-270l238 625l-225 577h291l112 -331l124 331h269l-225 -577z" />
    <glyph glyph-name="y" unicode="y" horiz-adv-x="849" 
d="M10 1204h285l130 -940l6 34q65 479 125 906h286q-24 -140 -70.5 -416.5t-69.5 -416.5l-66 -401q-27 -172 -116.5 -288t-206.5 -162l-120 198q35 16 58 31t51 43.5t47 73.5t30 106l4 28h-172z" />
    <glyph glyph-name="z" unicode="z" horiz-adv-x="782" 
d="M718 0h-676v237l367 707h-339v258h647v-235l-364 -701h365v-266z" />
    <glyph glyph-name="braceleft" unicode="{" horiz-adv-x="575" 
d="M14 892q77 2 101 48.5t24 165.5q0 34 -0.5 99t-0.5 98q-2 83 21 145.5t58 96t84 54t88.5 26t82.5 5.5h72v-250h-37q-56 0 -72.5 -31.5t-18.5 -115.5l-4 -282q-2 -94 -36 -139t-99 -52q66 -7 99.5 -51.5t35.5 -139.5l4 -291q2 -78 19.5 -108t71.5 -30h37v-251h-72
q-43 0 -82 5.5t-88 26t-83.5 54.5t-58 96.5t-22.5 145.5l1 197q0 120 -23.5 164.5t-101.5 48.5v265z" />
    <glyph glyph-name="bar" unicode="|" horiz-adv-x="919" 
d="M387 -82h-283v1686h283v-1686z" />
    <glyph glyph-name="braceright" unicode="}" horiz-adv-x="577" 
d="M561 892v-265q-78 -4 -101.5 -48.5t-23.5 -164.5l2 -197q1 -83 -22.5 -145.5t-58 -96.5t-83.5 -54.5t-88.5 -26t-82.5 -5.5h-72v251h37q55 0 72.5 30t19.5 108l4 291q2 95 35.5 140t98.5 51q-65 7 -98.5 52t-35.5 139l-4 282q-2 84 -18.5 115.5t-73.5 31.5h-37v250h72
q35 0 67.5 -4.5t73.5 -15.5t74 -34.5t61.5 -58t44 -89.5t14.5 -125l-2 -197q0 -119 23.5 -165.5t101.5 -48.5z" />
    <glyph glyph-name="asciitilde" unicode="~" horiz-adv-x="835" 
d="M755 836l44 -188q-68 -111 -209 -111q-53 0 -111.5 24.5t-110.5 48.5t-91 24q-103 0 -146 -55l-44 188q66 111 205 111q50 0 110 -24t115 -48t93 -24q104 0 145 54z" />
    <glyph glyph-name="exclamdown" unicode="&#xa1;" horiz-adv-x="522" 
d="M111 802h238l43 -1113h-320zM394 1083q0 -80 -38.5 -116t-122.5 -36q-86 0 -124.5 36t-38.5 116q0 78 38.5 114t124.5 36q84 0 122.5 -36t38.5 -114z" />
    <glyph glyph-name="cent" unicode="&#xa2;" horiz-adv-x="896" 
d="M545 402v1h275v-32q0 -157 -57 -255.5t-194 -126.5v-154h-245v157q-70 17 -119.5 53.5t-77 91t-39.5 116.5t-12 141v415q0 79 12 141.5t39 117t76.5 91.5t120.5 53v166h245v-165q136 -28 193.5 -127t57.5 -254v-32h-275v28q0 95 -62 105q-12 5 -20 42q-5 -18 -14 -18
q-31 0 -51 -12t-28.5 -34.5t-11.5 -43.5t-3 -51v-427q0 -30 2.5 -50t11 -43t29 -35t51.5 -12q9 0 13 -13q4 23 16 25q14 2 25 8t18 13.5t12 19.5t7.5 20.5t3.5 23.5t1 21v20v15z" />
    <glyph glyph-name="sterling" unicode="&#xa3;" horiz-adv-x="844" 
d="M37 509v254h118q-4 12 -25 71t-27 78t-21 69t-20.5 79.5t-11 72.5t-5.5 82q0 349 376 349q200 0 283.5 -117.5t83.5 -356.5q0 -71 -2 -92l-278 -2q-2 7 -2 39q0 10 0.5 34t0.5 38q0 38 -3 66.5t-11 58t-26.5 45.5t-46.5 16q-49 0 -70.5 -33t-21.5 -110q0 -38 11 -87.5
t24 -88t36.5 -105.5t36.5 -106h254v-254h-199q2 -38 2 -56q0 -66 -34.5 -123.5t-72.5 -67.5q31 2 102 -5t91 -7q31 0 50 2t45.5 13.5t50.5 33.5l97 -230q-75 -86 -201 -86q-53 0 -191 12.5t-195 12.5q-36 0 -133 -9l-75 -9v266q191 36 191 190q0 32 -3 63h-178z" />
    <glyph glyph-name="currency" unicode="&#xa4;" horiz-adv-x="816" 
d="M121 700q0 52 18 99l-90 90l174 174l93 -91q44 15 92 15t96 -17l93 93l174 -173l-93 -94q17 -48 17 -96q0 -49 -16 -94l92 -91l-174 -174l-89 90q-46 -18 -100 -18q-48 0 -96 17l-89 -89l-174 174l89 88q-17 48 -17 97zM321 700q0 -36 25.5 -61t61.5 -25t61.5 25t25.5 61
t-25.5 61.5t-61.5 25.5t-61.5 -25.5t-25.5 -61.5z" />
    <glyph glyph-name="yen" unicode="&#xa5;" horiz-adv-x="851" 
d="M878 1521l-259 -863h190v-162h-226v-85h226v-162h-226v-249h-282v249h-220v162h220v85h-220v162h182l-270 863h311l141 -598l156 598h277z" />
    <glyph glyph-name="brokenbar" unicode="&#xa6;" horiz-adv-x="919" 
d="M387 820h-283v784h283v-784zM104 713h283v-795h-283v795z" />
    <glyph glyph-name="section" unicode="&#xa7;" horiz-adv-x="862" 
d="M59 628q0 214 154 282q-141 112 -141 261q0 195 82 288.5t282 93.5q65 0 115 -9t96 -35t76 -69.5t47.5 -115t17.5 -168.5l-278 1q0 127 -74 127q-45 0 -63.5 -24t-18.5 -54q0 -29 24.5 -56.5t63.5 -52t86 -51.5t94 -61t86 -73.5t63.5 -95.5t24.5 -121q0 -215 -154 -283
q141 -112 141 -261q0 -196 -81.5 -289t-282.5 -93q-65 0 -115 9.5t-96 35.5t-76 69.5t-47.5 115t-17.5 168.5l278 -2q0 -128 74 -128q45 0 64 24t19 55q0 29 -24.5 56.5t-63.5 52t-86.5 52t-94.5 61.5t-86 73.5t-63.5 95.5t-24.5 121zM351 666q0 -44 44 -85q14 -5 33 -5
q39 0 58 24.5t19 56.5q0 43 -43 83q-15 6 -35 6q-38 0 -57 -24t-19 -56z" />
    <glyph glyph-name="dieresis" unicode="&#xa8;" horiz-adv-x="455" 
d="M-55 1422q0 69 30 100t95 31q66 0 96 -31t30 -100q0 -67 -30 -98.5t-96 -31.5q-65 0 -95 31.5t-30 98.5zM238 1422q0 69 30 100t94 31q67 0 97 -31t30 -100q0 -67 -30.5 -98.5t-96.5 -31.5q-64 0 -94 31.5t-30 98.5z" />
    <glyph glyph-name="copyright" unicode="&#xa9;" horiz-adv-x="1535" 
d="M1448 857v-369q0 -159 -31 -280.5t-87.5 -202t-142 -131.5t-187 -72.5t-229.5 -21.5q-129 0 -231 21.5t-187.5 72.5t-142 132.5t-87.5 204t-31 284.5v369q0 197 46.5 335.5t137 218.5t211 115.5t282.5 35.5q129 0 231 -21.5t187.5 -73t142 -132.5t87.5 -203t31 -282z
M771 -4q241 0 343.5 118t102.5 368v381q0 252 -103 371t-345 119q-239 0 -343 -119t-104 -363v-382q0 -255 103 -374t346 -119zM860 471v22h238v-20q0 -64 -8.5 -115.5t-30.5 -98t-58 -78t-93 -49.5t-133 -18q-77 0 -135.5 19t-95 51t-59.5 80.5t-32 102t-9 120.5v288
q0 66 1 98q0 82 16 144t52.5 111.5t101.5 75.5t157 26q95 0 161 -27t101 -78t49.5 -112.5t14.5 -142.5v-20h-238v25q0 23 -3 40.5t-11 37.5t-27 30.5t-47 10.5t-46.5 -11t-26.5 -32t-10.5 -41t-2.5 -48v-245q0 -111 1 -167q7 -98 85 -98q88 0 88 119z" />
    <glyph glyph-name="ordfeminine" unicode="&#xaa;" horiz-adv-x="786" 
d="M694 774h-241v88q-43 -111 -131 -111q-65 0 -110 14.5t-73 40t-43.5 70t-21 95t-5.5 125.5v93q0 76 5.5 128t21 98t43.5 72.5t73.5 41.5t109.5 15q88 0 131 -109v87h241v-748zM116 470v220h568v-220h-568zM381 973q34 0 51.5 23.5t17.5 88.5v112q0 72 -16.5 99t-52.5 27
q-38 0 -55 -27t-17 -98v-99q0 -72 17 -99t55 -27z" />
    <glyph glyph-name="guillemotleft" unicode="&#xab;" horiz-adv-x="955" 
d="M480 188h-277l-171 403l171 404h277l-182 -404zM921 188h-277l-171 403l171 404h277l-182 -404z" />
    <glyph glyph-name="logicalnot" unicode="&#xac;" horiz-adv-x="835" 
d="M510 364v216h-431v247h677v-463h-246z" />
    <glyph glyph-name="uni00AD" unicode="&#xad;" horiz-adv-x="737" 
d="M669 -113h-589v247h589v-247z" />
    <glyph glyph-name="registered" unicode="&#xae;" horiz-adv-x="1535" 
d="M1448 857v-369q0 -159 -31 -280.5t-87.5 -202t-142 -131.5t-187 -72.5t-230.5 -21.5q-162 0 -282.5 35.5t-211.5 116.5t-137.5 221.5t-46.5 341.5v369q0 197 46.5 335.5t137 218.5t211 115.5t282.5 35.5q129 0 231 -21.5t187.5 -73t142 -132.5t87.5 -203t31 -282zM771 -4
q241 0 343.5 118t102.5 368v381q0 252 -103 371t-345 119q-239 0 -343 -119t-104 -363v-382q0 -255 103 -374t346 -119zM691 138h-244v1079h325q167 0 249.5 -80.5t82.5 -250.5v-50q0 -149 -124 -252q56 -38 78.5 -82t22.5 -140l2 -224h-240l-5 216q-2 88 -29.5 116
t-74.5 28h-43v-360zM861 836v54q0 46 -21.5 68t-70.5 22h-78v-245h77q93 0 93 101z" />
    <glyph glyph-name="macron" unicode="&#xaf;" horiz-adv-x="421" 
d="M464 1326h-503v207h503v-207z" />
    <glyph glyph-name="degree" unicode="&#xb0;" horiz-adv-x="482" 
d="M472 1304q0 -100 -63.5 -167.5t-171.5 -67.5q-105 0 -167.5 67.5t-62.5 167.5q0 101 62.5 171t167.5 70q107 0 171 -70t64 -171zM315 1304q0 88 -78 88q-34 0 -53.5 -23.5t-19.5 -64.5q0 -38 20 -64t53 -26q38 0 58 25.5t20 64.5z" />
    <glyph glyph-name="plusminus" unicode="&#xb1;" horiz-adv-x="835" 
d="M296 542v216h-217v247h217v214h245v-214h215v-247h-215v-216h-245zM756 195h-677v247h677v-247z" />
    <glyph glyph-name="uni00B2" unicode="&#xb2;" horiz-adv-x="722" 
d="M656 834h-590v229q14 51 57 106.5t93.5 101t99 89.5t80.5 85.5t32 74.5q0 92 -62 92q-59 0 -59 -94v-25h-240v51q0 144 75.5 223t228.5 79q296 0 296 -326q0 -65 -28.5 -125t-71 -105t-86 -84t-80 -76t-45.5 -66h300v-230z" />
    <glyph glyph-name="uni00B3" unicode="&#xb3;" horiz-adv-x="711" 
d="M661 1112q0 -156 -76 -229t-228 -73q-145 0 -225.5 72.5t-80.5 242.5v28h238v-27q0 -92 67 -92q34 0 51 17t17 62v14q0 61 -20.5 87t-64.5 28l-69 1v187l78 2q37 2 52.5 24t15.5 72q0 22 -1.5 35t-6.5 29t-18 24t-34 8q-56 0 -56 -77v-36l-239 -1v11q0 166 72 244.5
t227 78.5q151 0 220.5 -74.5t69.5 -228.5q0 -185 -110 -200q54 -11 87.5 -66t33.5 -163z" />
    <glyph glyph-name="acute" unicode="&#xb4;" horiz-adv-x="509" 
d="M193 1564h259l-191 -284h-200z" />
    <glyph glyph-name="mu" unicode="&#xb5;" horiz-adv-x="924" 
d="M569 1202h278v-809q0 -75 -7.5 -134t-28 -113t-54 -90t-87 -57t-124.5 -21q-117 0 -164 128v-471h-276v1567h276v-791q0 -165 93 -165q31 0 51.5 12t29 35t11 43.5t2.5 50.5v815z" />
    <glyph glyph-name="paragraph" unicode="&#xb6;" horiz-adv-x="1178" 
d="M751 -369h-249v948q-223 5 -332.5 119.5t-109.5 346.5q0 245 106.5 361t335.5 116h249v-1891zM1099 -369h-248v1891h248v-1891z" />
    <glyph glyph-name="periodcentered" unicode="&#xb7;" horiz-adv-x="455" 
d="M62 588q0 80 38.5 116t122.5 36q87 0 126 -36t39 -116q0 -78 -39.5 -114t-125.5 -36q-83 0 -122 36.5t-39 113.5z" />
    <glyph glyph-name="cedilla" unicode="&#xb8;" horiz-adv-x="666" 
d="M81 -365l41 98q31 -19 47.5 -27t49.5 -16t75 -8q41 0 66 16.5t25 48.5q0 26 -31 39.5t-73 13.5q-38 0 -65 -9l2 250h135l-1 -118q2 0 9 1.5t11 2.5q20 5 47 5q77 0 122.5 -51t45.5 -122q0 -99 -77 -152t-208 -53q-69 0 -126.5 23.5t-94.5 57.5z" />
    <glyph glyph-name="uni00B9" unicode="&#xb9;" horiz-adv-x="482" 
d="M39 1474v217q111 60 169 131h197v-988h-241v704q-41 -52 -125 -64z" />
    <glyph glyph-name="ordmasculine" unicode="&#xba;" horiz-adv-x="734" 
d="M67 1093v95q0 93 13 155.5t46.5 109.5t93 68.5t149.5 21.5q89 0 148 -21.5t91.5 -68.5t45.5 -109.5t13 -155.5v-82q0 -93 -13 -156.5t-45.5 -111t-91.5 -69.5t-148 -22q-171 0 -236.5 82t-65.5 264zM369 969q32 0 45.5 23t13.5 90v115q0 74 -12.5 100t-46.5 26
q-36 0 -49 -25.5t-13 -100.5v-101q0 -75 13 -101t49 -26zM84 470v220h568v-220h-568z" />
    <glyph glyph-name="guillemotright" unicode="&#xbb;" horiz-adv-x="948" 
d="M311 187h-277l182 403l-182 404h277l171 -404zM752 187h-277l182 403l-182 404h277l171 -404z" />
    <glyph glyph-name="onehalf" unicode="&#xbd;" horiz-adv-x="1607" 
d="M37 1474v217q111 60 169 131h197v-988h-241v704q-41 -52 -125 -64zM1023 1483l-426 -1534l-241 45l433 1534zM1525 300h-590v229q14 51 57 106.5t93.5 101t99 89.5t80.5 85.5t32 74.5q0 92 -62 92q-59 0 -59 -94v-25h-240v51q0 144 75.5 223t228.5 79q296 0 296 -326
q0 -65 -28.5 -125t-71 -105t-86 -84t-80 -76t-45.5 -66h300v-230z" />
    <glyph glyph-name="questiondown" unicode="&#xbf;" horiz-adv-x="882" 
d="M85 66q0 91 25 173.5t61 143t72 115t62 112.5t27 113l2 76h241l1 -80q2 -88 -18.5 -167t-51.5 -137t-62.5 -111.5t-53.5 -115t-22 -124.5q0 -62 17 -91.5t63 -29.5q47 0 62.5 24.5t18.5 78.5l2 103h272l3 -91q0 -71 -9.5 -127t-33.5 -107t-63.5 -85t-102 -54t-146.5 -20
q-178 0 -272 93.5t-94 307.5zM618 1080q0 -80 -38.5 -116t-122.5 -36q-86 0 -125.5 36t-39.5 116q0 78 39.5 114t125.5 36q84 0 122.5 -36t38.5 -114z" />
    <glyph glyph-name="Agrave" unicode="&#xc0;" horiz-adv-x="916" 
d="M9 0l245 1523h373l245 -1523h-285l-30 232h-234l-29 -232h-285zM440 1155l-84 -664h168zM167 1885h242l132 -284h-192z" />
    <glyph glyph-name="Aacute" unicode="&#xc1;" horiz-adv-x="916" 
d="M9 0l245 1523h373l245 -1523h-285l-30 232h-234l-29 -232h-285zM440 1155l-84 -664h168zM474 1885h259l-191 -284h-200z" />
    <glyph glyph-name="Acircumflex" unicode="&#xc2;" horiz-adv-x="916" 
d="M9 0l245 1523h373l245 -1523h-285l-30 232h-234l-29 -232h-285zM440 1155l-84 -664h168zM396 1601h-221l138 245h261l138 -245h-221l-48 106z" />
    <glyph glyph-name="Atilde" unicode="&#xc3;" horiz-adv-x="916" 
d="M9 0l245 1523h373l245 -1523h-285l-30 232h-234l-29 -232h-285zM440 1155l-84 -664h168zM635 1890l138 -38q-20 -109 -75.5 -175.5t-153.5 -66.5q-49 0 -111.5 32t-88.5 32q-34 0 -55.5 -16t-35.5 -56l-137 42q50 239 227 239q54 0 116.5 -32.5t87.5 -32.5q64 0 88 72z
" />
    <glyph glyph-name="Adieresis" unicode="&#xc4;" horiz-adv-x="916" 
d="M9 0l245 1523h373l245 -1523h-285l-30 232h-234l-29 -232h-285zM440 1155l-84 -664h168zM173 1743q0 69 30 100t95 31q66 0 96 -31t30 -100q0 -67 -30 -98.5t-96 -31.5q-65 0 -95 31.5t-30 98.5zM466 1743q0 69 30 100t94 31q67 0 97 -31t30 -100q0 -67 -30.5 -98.5
t-96.5 -31.5q-64 0 -94 31.5t-30 98.5z" />
    <glyph glyph-name="Aring" unicode="&#xc5;" horiz-adv-x="916" 
d="M9 0l245 1523h373l245 -1523h-285l-30 232h-234l-29 -232h-285zM440 1155l-84 -664h168zM210 1803q0 114 56 166.5t176 52.5q123 0 179.5 -52.5t56.5 -166.5q0 -111 -56.5 -163.5t-179.5 -52.5q-120 0 -176 52.5t-56 163.5zM385 1804q0 -57 59 -57t59 57q0 28 -13.5 41.5
t-45.5 13.5t-45.5 -13.5t-13.5 -41.5z" />
    <glyph glyph-name="AE" unicode="&#xc6;" horiz-adv-x="1136" 
d="M238 0h-284l379 1521h165l588 1v-276h-305v-337h236v-276h-236v-358h305v-275h-588v232h-209zM346 491h152v686z" />
    <glyph glyph-name="Ccedilla" unicode="&#xc7;" horiz-adv-x="913" 
d="M558 497v-111q0 -132 -97 -132q-31 0 -52 12.5t-30.5 35t-12.5 44t-3 50.5v731q0 29 3.5 51t13 44.5t30 34.5t51.5 12q97 0 97 -135v-108h284v109q0 410 -382 410l-1 -1q-107 0 -183 -31t-118 -89.5t-60.5 -131t-18.5 -165.5v-731q0 -74 11 -134.5t38 -114.5t70 -90.5
t109.5 -57.5t153.5 -21v1q381 0 381 406v112h-284zM245 -365l41 98q31 -19 47.5 -27t49.5 -16t75 -8q41 0 66 16.5t25 48.5q0 26 -31 39.5t-73 13.5q-38 0 -65 -9l2 250h135l-1 -118q3 0 9.5 1.5t10.5 2.5q20 5 47 5q77 0 122.5 -51t45.5 -122q0 -99 -77 -152t-208 -53
q-69 0 -126.5 23.5t-94.5 57.5z" />
    <glyph glyph-name="Egrave" unicode="&#xc8;" horiz-adv-x="858" 
d="M780 0h-673v1521l673 1v-276h-390v-337h321v-276h-321v-358h390v-275zM169 1885h242l132 -284h-192z" />
    <glyph glyph-name="Eacute" unicode="&#xc9;" horiz-adv-x="858" 
d="M780 0h-673v1521l673 1v-276h-390v-337h321v-276h-321v-358h390v-275zM461 1885h259l-191 -284h-200z" />
    <glyph glyph-name="Ecircumflex" unicode="&#xca;" horiz-adv-x="858" 
d="M780 0h-673v1521l673 1v-276h-390v-337h321v-276h-321v-358h390v-275zM386 1601h-221l138 245h261l138 -245h-221l-48 106z" />
    <glyph glyph-name="Edieresis" unicode="&#xcb;" horiz-adv-x="858" 
d="M780 0h-673v1521l673 1v-276h-390v-337h321v-276h-321v-358h390v-275zM162 1743q0 69 30 100t95 31q66 0 96 -31t30 -100q0 -67 -30 -98.5t-96 -31.5q-65 0 -95 31.5t-30 98.5zM455 1743q0 69 30 100t94 31q67 0 97 -31t30 -100q0 -67 -30.5 -98.5t-96.5 -31.5
q-64 0 -94 31.5t-30 98.5z" />
    <glyph glyph-name="Igrave" unicode="&#xcc;" horiz-adv-x="500" 
d="M392 0h-284v1522h284v-1522zM-32 1885h242l132 -284h-192z" />
    <glyph glyph-name="Iacute" unicode="&#xcd;" horiz-adv-x="500" 
d="M392 0h-284v1522h284v-1522zM275 1885h259l-191 -284h-200z" />
    <glyph glyph-name="Icircumflex" unicode="&#xce;" horiz-adv-x="500" 
d="M392 0h-284v1522h284v-1522zM201 1601h-221l138 245h261l138 -245h-221l-48 106z" />
    <glyph glyph-name="Idieresis" unicode="&#xcf;" horiz-adv-x="500" 
d="M392 0h-284v1522h284v-1522zM-24 1743q0 69 30 100t95 31q66 0 96 -31t30 -100q0 -67 -30 -98.5t-96 -31.5q-65 0 -95 31.5t-30 98.5zM269 1743q0 69 30 100t94 31q67 0 97 -31t30 -100q0 -67 -30.5 -98.5t-96.5 -31.5q-64 0 -94 31.5t-30 98.5z" />
    <glyph glyph-name="Eth" unicode="&#xd0;" horiz-adv-x="934" 
d="M473 827v-247h-468v247h468zM88 1521h379q106 0 181.5 -31t117.5 -89t60.5 -130t18.5 -165v-690q0 -94 -18.5 -166.5t-61 -130.5t-118.5 -88.5t-183 -30.5h-376v1521zM371 275h96q96 0 96 141v689q0 137 -96 141h-96v-971z" />
    <glyph glyph-name="Ntilde" unicode="&#xd1;" horiz-adv-x="1011" 
d="M724 1890l138 -38q-20 -109 -75.5 -175.5t-153.5 -66.5q-49 0 -111.5 32t-88.5 32q-34 0 -55.5 -16t-35.5 -56l-137 42q50 239 227 239q54 0 116.5 -32.5t87.5 -32.5q64 0 88 72zM392 0h-284v1522h339l226 -818l-8 818h283l1 -1522h-312l-255 861z" />
    <glyph glyph-name="Ograve" unicode="&#xd2;" horiz-adv-x="914" 
d="M75 396v731q0 93 18.5 165.5t61 131t118.5 89.5t184 31q87 0 153.5 -21t109.5 -57.5t70 -90t38 -114t11 -134.5v-732q0 -74 -11 -134.5t-38 -114t-70 -90t-109.5 -57.5t-153.5 -21t-153.5 21t-109.5 57.5t-70 90.5t-38 114.5t-11 134.5zM457 254h1q1 -1 3 -1q95 3 95 142
v732q0 28 -3.5 49.5t-13 44t-30.5 35t-52 12.5q-3 0 -4 1q-39 -1 -61 -24.5t-27.5 -51t-5.5 -66.5v-731q0 -29 3 -50.5t12.5 -44t30.5 -35t52 -12.5zM183 1885h242l132 -284h-192z" />
    <glyph glyph-name="Oacute" unicode="&#xd3;" horiz-adv-x="914" 
d="M75 396v731q0 93 18.5 165.5t61 131t118.5 89.5t184 31q87 0 153.5 -21t109.5 -57.5t70 -90t38 -114t11 -134.5v-732q0 -74 -11 -134.5t-38 -114t-70 -90t-109.5 -57.5t-153.5 -21t-153.5 21t-109.5 57.5t-70 90.5t-38 114.5t-11 134.5zM457 254h1q1 -1 3 -1q95 3 95 142
v732q0 28 -3.5 49.5t-13 44t-30.5 35t-52 12.5q-3 0 -4 1q-39 -1 -61 -24.5t-27.5 -51t-5.5 -66.5v-731q0 -29 3 -50.5t12.5 -44t30.5 -35t52 -12.5zM479 1885h259l-191 -284h-200z" />
    <glyph glyph-name="Ocircumflex" unicode="&#xd4;" horiz-adv-x="914" 
d="M75 396v731q0 93 18.5 165.5t61 131t118.5 89.5t184 31q87 0 153.5 -21t109.5 -57.5t70 -90t38 -114t11 -134.5v-732q0 -74 -11 -134.5t-38 -114t-70 -90t-109.5 -57.5t-153.5 -21t-153.5 21t-109.5 57.5t-70 90.5t-38 114.5t-11 134.5zM457 254h1q1 -1 3 -1q95 3 95 142
v732q0 28 -3.5 49.5t-13 44t-30.5 35t-52 12.5q-3 0 -4 1q-39 -1 -61 -24.5t-27.5 -51t-5.5 -66.5v-731q0 -29 3 -50.5t12.5 -44t30.5 -35t52 -12.5zM408 1601h-221l138 245h261l138 -245h-221l-48 106z" />
    <glyph glyph-name="Otilde" unicode="&#xd5;" horiz-adv-x="914" 
d="M75 396v731q0 93 18.5 165.5t61 131t118.5 89.5t184 31q87 0 153.5 -21t109.5 -57.5t70 -90t38 -114t11 -134.5v-732q0 -74 -11 -134.5t-38 -114t-70 -90t-109.5 -57.5t-153.5 -21t-153.5 21t-109.5 57.5t-70 90.5t-38 114.5t-11 134.5zM457 254h1q1 -1 3 -1q95 3 95 142
v732q0 28 -3.5 49.5t-13 44t-30.5 35t-52 12.5q-3 0 -4 1q-39 -1 -61 -24.5t-27.5 -51t-5.5 -66.5v-731q0 -29 3 -50.5t12.5 -44t30.5 -35t52 -12.5zM646 1890l138 -38q-20 -109 -75.5 -175.5t-153.5 -66.5q-49 0 -111.5 32t-88.5 32q-34 0 -55.5 -16t-35.5 -56l-137 42
q50 239 227 239q54 0 116.5 -32.5t87.5 -32.5q64 0 88 72z" />
    <glyph glyph-name="Odieresis" unicode="&#xd6;" horiz-adv-x="914" 
d="M75 396v731q0 93 18.5 165.5t61 131t118.5 89.5t184 31q87 0 153.5 -21t109.5 -57.5t70 -90t38 -114t11 -134.5v-732q0 -74 -11 -134.5t-38 -114t-70 -90t-109.5 -57.5t-153.5 -21t-153.5 21t-109.5 57.5t-70 90.5t-38 114.5t-11 134.5zM457 254h1q1 -1 3 -1q95 3 95 142
v732q0 28 -3.5 49.5t-13 44t-30.5 35t-52 12.5q-3 0 -4 1q-39 -1 -61 -24.5t-27.5 -51t-5.5 -66.5v-731q0 -29 3 -50.5t12.5 -44t30.5 -35t52 -12.5zM184 1743q0 69 30 100t95 31q66 0 96 -31t30 -100q0 -67 -30 -98.5t-96 -31.5q-65 0 -95 31.5t-30 98.5zM477 1743
q0 69 30 100t94 31q67 0 97 -31t30 -100q0 -67 -30.5 -98.5t-96.5 -31.5q-64 0 -94 31.5t-30 98.5z" />
    <glyph glyph-name="multiply" unicode="&#xd7;" horiz-adv-x="835" 
d="M74 533l169 169l-169 170l174 174l169 -170l170 170l174 -174l-170 -170l170 -169l-173 -174l-170 170l-170 -170z" />
    <glyph glyph-name="Oslash" unicode="&#xd8;" horiz-adv-x="914" 
d="M75 396v731q0 93 18.5 165.5t61 131t118.5 89.5t184 31q31 0 59 -3l32 121l255 -63l-44 -174q80 -101 80 -298v-732q0 -74 -11 -134.5t-38 -114t-70 -90t-109.5 -57.5t-153.5 -21q-33 0 -61 3l-25 -104l-262 43l44 179q-78 104 -78 297zM457 254h1q1 -1 3 -1q95 3 95 142
v732q0 28 -3.5 49.5t-13 44t-30.5 35t-52 12.5q-3 0 -4 1q-39 -1 -61 -24.5t-27.5 -51t-5.5 -66.5v-731q0 -29 3 -50.5t12.5 -44t30.5 -35t52 -12.5z" />
    <glyph glyph-name="Ugrave" unicode="&#xd9;" horiz-adv-x="945" 
d="M571 1521h282v-1154q0 -94 -18.5 -162.5t-61 -121t-117.5 -79t-183 -26.5t-183.5 26.5t-118 79t-61 121t-18.5 162.5v1154h282v-1153q0 -56 19.5 -85.5t79.5 -29.5t79 29.5t19 85.5v1153zM196 1885h242l132 -284h-192z" />
    <glyph glyph-name="Uacute" unicode="&#xda;" horiz-adv-x="945" 
d="M571 1521h282v-1154q0 -94 -18.5 -162.5t-61 -121t-117.5 -79t-183 -26.5t-183.5 26.5t-118 79t-61 121t-18.5 162.5v1154h282v-1153q0 -56 19.5 -85.5t79.5 -29.5t79 29.5t19 85.5v1153zM505 1885h259l-191 -284h-200z" />
    <glyph glyph-name="Ucircumflex" unicode="&#xdb;" horiz-adv-x="945" 
d="M571 1521h282v-1154q0 -94 -18.5 -162.5t-61 -121t-117.5 -79t-183 -26.5t-183.5 26.5t-118 79t-61 121t-18.5 162.5v1154h282v-1153q0 -56 19.5 -85.5t79.5 -29.5t79 29.5t19 85.5v1153zM425 1601h-221l138 245h261l138 -245h-221l-48 106z" />
    <glyph glyph-name="Udieresis" unicode="&#xdc;" horiz-adv-x="945" 
d="M571 1521h282v-1154q0 -94 -18.5 -162.5t-61 -121t-117.5 -79t-183 -26.5t-183.5 26.5t-118 79t-61 121t-18.5 162.5v1154h282v-1153q0 -56 19.5 -85.5t79.5 -29.5t79 29.5t19 85.5v1153zM200 1743q0 69 30 100t95 31q66 0 96 -31t30 -100q0 -67 -30 -98.5t-96 -31.5
q-65 0 -95 31.5t-30 98.5zM493 1743q0 69 30 100t94 31q67 0 97 -31t30 -100q0 -67 -30.5 -98.5t-96.5 -31.5q-64 0 -94 31.5t-30 98.5z" />
    <glyph glyph-name="Yacute" unicode="&#xdd;" horiz-adv-x="895" 
d="M890 1521l-294 -985v-536h-283v536l-308 985h311l141 -598l156 598h277zM494 1885h259l-191 -284h-200z" />
    <glyph glyph-name="Thorn" unicode="&#xde;" horiz-adv-x="937" 
d="M94 1522h283v-280h83q185 0 285.5 -88.5t100.5 -291.5v-222q0 -110 -27 -187t-79.5 -120.5t-121 -63t-160.5 -19.5h-81v-250h-283v1522zM562 640v222q0 53 -23.5 79t-78.5 26h-83v-443h77q60 0 84 26.5t24 89.5z" />
    <glyph glyph-name="germandbls" unicode="&#xdf;" horiz-adv-x="908" 
d="M431 704v265h31q89 4 89 117v71q0 121 -95 121q-98 0 -98 -144v-1132l-282 -2v1126q0 94 18 166t60 131t118 90t184 31q106 0 181 -30t115.5 -86t58 -124t17.5 -155v-58q0 -184 -130 -256q138 -80 138 -273v-143q0 -94 -18.5 -166.5t-60.5 -131t-118 -90t-183 -31.5v266
q101 0 101 144v157q0 137 -101 137h-25z" />
    <glyph glyph-name="agrave" unicode="&#xe0;" horiz-adv-x="918" 
d="M824 0h-276v113q-52 -135 -171 -135q-87 0 -147.5 27.5t-94 81t-48 121.5t-14.5 159t12.5 151t45.5 104t92 63.5t150 19.5q96 0 174 -21v132q0 30 -3 51t-11.5 43.5t-28.5 34.5t-51 12q-92 0 -92 -129v-28h-277v24q0 90 17 159t57 125.5t114 86.5t180 30q105 0 179 -28.5
t115.5 -83.5t59.5 -124.5t18 -161.5v-827zM446 246q54 0 77.5 46.5t23.5 104.5v54q-43 26 -106 26q-30 0 -49 -9t-27.5 -27.5t-11 -36t-2.5 -44.5q0 -114 95 -114zM179 1564h242l132 -284h-192z" />
    <glyph glyph-name="aacute" unicode="&#xe1;" horiz-adv-x="918" 
d="M824 0h-276v113q-52 -135 -171 -135q-87 0 -147.5 27.5t-94 81t-48 121.5t-14.5 159t12.5 151t45.5 104t92 63.5t150 19.5q96 0 174 -21v132q0 30 -3 51t-11.5 43.5t-28.5 34.5t-51 12q-92 0 -92 -129v-28h-277v24q0 90 17 159t57 125.5t114 86.5t180 30q105 0 179 -28.5
t115.5 -83.5t59.5 -124.5t18 -161.5v-827zM446 246q54 0 77.5 46.5t23.5 104.5v54q-43 26 -106 26q-30 0 -49 -9t-27.5 -27.5t-11 -36t-2.5 -44.5q0 -114 95 -114zM481 1564h259l-191 -284h-200z" />
    <glyph glyph-name="acircumflex" unicode="&#xe2;" horiz-adv-x="918" 
d="M824 0h-276v113q-52 -135 -171 -135q-87 0 -147.5 27.5t-94 81t-48 121.5t-14.5 159t12.5 151t45.5 104t92 63.5t150 19.5q96 0 174 -21v132q0 30 -3 51t-11.5 43.5t-28.5 34.5t-51 12q-92 0 -92 -129v-28h-277v24q0 90 17 159t57 125.5t114 86.5t180 30q105 0 179 -28.5
t115.5 -83.5t59.5 -124.5t18 -161.5v-827zM446 246q54 0 77.5 46.5t23.5 104.5v54q-43 26 -106 26q-30 0 -49 -9t-27.5 -27.5t-11 -36t-2.5 -44.5q0 -114 95 -114zM420 1280h-221l138 245h261l138 -245h-221l-48 106z" />
    <glyph glyph-name="atilde" unicode="&#xe3;" horiz-adv-x="918" 
d="M824 0h-276v113q-52 -135 -171 -135q-87 0 -147.5 27.5t-94 81t-48 121.5t-14.5 159t12.5 151t45.5 104t92 63.5t150 19.5q96 0 174 -21v132q0 30 -3 51t-11.5 43.5t-28.5 34.5t-51 12q-92 0 -92 -129v-28h-277v24q0 90 17 159t57 125.5t114 86.5t180 30q105 0 179 -28.5
t115.5 -83.5t59.5 -124.5t18 -161.5v-827zM446 246q54 0 77.5 46.5t23.5 104.5v54q-43 26 -106 26q-30 0 -49 -9t-27.5 -27.5t-11 -36t-2.5 -44.5q0 -114 95 -114zM658 1569l138 -38q-20 -109 -75.5 -175.5t-153.5 -66.5q-49 0 -111.5 32t-88.5 32q-34 0 -55.5 -16
t-35.5 -56l-137 42q50 239 227 239q54 0 116.5 -32.5t87.5 -32.5q64 0 88 72z" />
    <glyph glyph-name="adieresis" unicode="&#xe4;" horiz-adv-x="918" 
d="M824 0h-276v113q-52 -135 -171 -135q-87 0 -147.5 27.5t-94 81t-48 121.5t-14.5 159t12.5 151t45.5 104t92 63.5t150 19.5q96 0 174 -21v132q0 30 -3 51t-11.5 43.5t-28.5 34.5t-51 12q-92 0 -92 -129v-28h-277v24q0 90 17 159t57 125.5t114 86.5t180 30q105 0 179 -28.5
t115.5 -83.5t59.5 -124.5t18 -161.5v-827zM446 246q54 0 77.5 46.5t23.5 104.5v54q-43 26 -106 26q-30 0 -49 -9t-27.5 -27.5t-11 -36t-2.5 -44.5q0 -114 95 -114zM195 1422q0 69 30 100t95 31q66 0 96 -31t30 -100q0 -67 -30 -98.5t-96 -31.5q-65 0 -95 31.5t-30 98.5z
M488 1422q0 69 30 100t94 31q67 0 97 -31t30 -100q0 -67 -30.5 -98.5t-96.5 -31.5q-64 0 -94 31.5t-30 98.5z" />
    <glyph glyph-name="aring" unicode="&#xe5;" horiz-adv-x="918" 
d="M824 0h-276v113q-52 -135 -171 -135q-87 0 -147.5 27.5t-94 81t-48 121.5t-14.5 159t12.5 151t45.5 104t92 63.5t150 19.5q96 0 174 -21v132q0 30 -3 51t-11.5 43.5t-28.5 34.5t-51 12q-92 0 -92 -129v-28h-277v24q0 90 17 159t57 125.5t114 86.5t180 30q105 0 179 -28.5
t115.5 -83.5t59.5 -124.5t18 -161.5v-827zM446 246q54 0 77.5 46.5t23.5 104.5v54q-43 26 -106 26q-30 0 -49 -9t-27.5 -27.5t-11 -36t-2.5 -44.5q0 -114 95 -114zM234 1482q0 114 56 166.5t176 52.5q123 0 179.5 -52.5t56.5 -166.5q0 -111 -56.5 -163.5t-179.5 -52.5
q-120 0 -176 52.5t-56 163.5zM409 1483q0 -57 59 -57t59 57q0 28 -13.5 41.5t-45.5 13.5t-45.5 -13.5t-13.5 -41.5z" />
    <glyph glyph-name="ae" unicode="&#xe6;" horiz-adv-x="1383" 
d="M1015 406h275v-24q0 -93 -16.5 -162t-56 -126t-113.5 -86.5t-182 -29.5q-176 0 -256 86q-108 -86 -253 -86q-97 0 -164.5 27.5t-105 81t-54 121.5t-16.5 159t12.5 151t45.5 104t92 63.5t150 19.5q97 0 173 -21v132q0 30 -3 51t-11.5 43.5t-28.5 34.5t-50 12
q-92 0 -92 -129v-28h-277v24q0 90 17 159t57 125.5t113.5 86.5t179.5 30q157 0 233 -67q79 67 234 67q108 0 182.5 -30t115 -87.5t57.5 -127t17 -160.5v-273l-469 -94v-62q0 -29 3 -50.5t12.5 -44t30 -35t51.5 -12.5q97 0 97 130v27zM918 957q-25 0 -43 -8.5t-28.5 -22
t-16.5 -33.5t-7.5 -38t-1.5 -41v-121l194 43v89q0 26 -3 46t-12.5 41t-30 33t-51.5 12zM452 246q37 0 61 26.5t31.5 57.5t7.5 67v54q-43 26 -106 26q-29 0 -48 -9t-27.5 -27.5t-11 -36t-2.5 -44.5q0 -114 95 -114z" />
    <glyph glyph-name="ccedilla" unicode="&#xe7;" horiz-adv-x="891" 
d="M231 -365l41 98q31 -19 47.5 -27t49.5 -16t75 -8q41 0 66 16.5t25 48.5q0 26 -31 39.5t-73 13.5q-38 0 -65 -9l2 250h135l-1 -118q2 0 9 1.5t11 2.5q20 5 47 5q77 0 122.5 -51t45.5 -122q0 -99 -77 -152t-208 -53q-69 0 -126.5 23.5t-94.5 57.5zM544 377q0 -128 -96 -128
q-86 0 -93 107q-1 63 -1 187v273q0 30 3 51t11.5 43.5t28.5 34.5t51 12q96 0 96 -129v-28h275v24q0 90 -17 158.5t-57 125.5t-115 87t-182 30q-105 0 -179 -28.5t-115.5 -83.5t-59.5 -124.5t-18 -161.5q-1 -37 -1 -110v-323q0 -94 17.5 -165.5t58.5 -130t116.5 -89.5
t183.5 -31q87 0 152 20.5t105.5 55t66 86.5t35 109.5t9.5 130.5v23h-275v-26z" />
    <glyph glyph-name="egrave" unicode="&#xe8;" horiz-adv-x="893" 
d="M544 406h275v-24q0 -93 -16.5 -162t-56 -126t-113.5 -86.5t-182 -29.5t-183.5 31t-116.5 89.5t-58.5 130t-17.5 165.5v415q0 75 10 135t36 114t67.5 89.5t107 56.5t152.5 21t152 -20.5t106.5 -55.5t67 -88t35.5 -111t10 -130v-273l-469 -94v-62q0 -29 3 -50.5t12.5 -44
t30.5 -35t52 -12.5q57 0 76.5 36.5t19.5 93.5v27zM448 957q-41 0 -64 -23.5t-28.5 -51.5t-5.5 -68v-121l194 43v89q0 132 -96 132zM183 1564h242l132 -284h-192z" />
    <glyph glyph-name="eacute" unicode="&#xe9;" horiz-adv-x="893" 
d="M544 406h275v-24q0 -93 -16.5 -162t-56 -126t-113.5 -86.5t-182 -29.5t-183.5 31t-116.5 89.5t-58.5 130t-17.5 165.5v415q0 75 10 135t36 114t67.5 89.5t107 56.5t152.5 21t152 -20.5t106.5 -55.5t67 -88t35.5 -111t10 -130v-273l-469 -94v-62q0 -29 3 -50.5t12.5 -44
t30.5 -35t52 -12.5q57 0 76.5 36.5t19.5 93.5v27zM448 957q-41 0 -64 -23.5t-28.5 -51.5t-5.5 -68v-121l194 43v89q0 132 -96 132zM472 1564h259l-191 -284h-200z" />
    <glyph glyph-name="ecircumflex" unicode="&#xea;" horiz-adv-x="893" 
d="M544 406h275v-24q0 -93 -16.5 -162t-56 -126t-113.5 -86.5t-182 -29.5t-183.5 31t-116.5 89.5t-58.5 130t-17.5 165.5v415q0 75 10 135t36 114t67.5 89.5t107 56.5t152.5 21t152 -20.5t106.5 -55.5t67 -88t35.5 -111t10 -130v-273l-469 -94v-62q0 -29 3 -50.5t12.5 -44
t30.5 -35t52 -12.5q57 0 76.5 36.5t19.5 93.5v27zM448 957q-41 0 -64 -23.5t-28.5 -51.5t-5.5 -68v-121l194 43v89q0 132 -96 132zM399 1280h-221l138 245h261l138 -245h-221l-48 106z" />
    <glyph glyph-name="edieresis" unicode="&#xeb;" horiz-adv-x="893" 
d="M544 406h275v-24q0 -93 -16.5 -162t-56 -126t-113.5 -86.5t-182 -29.5t-183.5 31t-116.5 89.5t-58.5 130t-17.5 165.5v415q0 75 10 135t36 114t67.5 89.5t107 56.5t152.5 21t152 -20.5t106.5 -55.5t67 -88t35.5 -111t10 -130v-273l-469 -94v-62q0 -29 3 -50.5t12.5 -44
t30.5 -35t52 -12.5q57 0 76.5 36.5t19.5 93.5v27zM448 957q-41 0 -64 -23.5t-28.5 -51.5t-5.5 -68v-121l194 43v89q0 132 -96 132zM175 1422q0 69 30 100t95 31q66 0 96 -31t30 -100q0 -67 -30 -98.5t-96 -31.5q-65 0 -95 31.5t-30 98.5zM468 1422q0 69 30 100t94 31
q67 0 97 -31t30 -100q0 -67 -30.5 -98.5t-96.5 -31.5q-64 0 -94 31.5t-30 98.5z" />
    <glyph glyph-name="igrave" unicode="&#xec;" horiz-adv-x="468" 
d="M373 0h-277v1202h277v-1202zM-44 1564h242l132 -284h-192z" />
    <glyph glyph-name="iacute" unicode="&#xed;" horiz-adv-x="468" 
d="M373 0h-277v1202h277v-1202zM266 1564h259l-191 -284h-200z" />
    <glyph glyph-name="icircumflex" unicode="&#xee;" horiz-adv-x="468" 
d="M373 0h-277v1202h277v-1202zM187 1280h-221l138 245h261l138 -245h-221l-48 106z" />
    <glyph glyph-name="idieresis" unicode="&#xef;" horiz-adv-x="468" 
d="M373 0h-277v1202h277v-1202zM-38 1422q0 69 30 100t95 31q66 0 96 -31t30 -100q0 -67 -30 -98.5t-96 -31.5q-65 0 -95 31.5t-30 98.5zM255 1422q0 69 30 100t94 31q67 0 97 -31t30 -100q0 -67 -30.5 -98.5t-96.5 -31.5q-64 0 -94 31.5t-30 98.5z" />
    <glyph glyph-name="eth" unicode="&#xf0;" horiz-adv-x="907" 
d="M300 1276l48 66q-20 7 -40.5 10t-40 4t-24.5 2l122 231q79 -11 137 -35l51 70l109 -78l-43 -60q206 -171 206 -569v-526q0 -95 -16.5 -165.5t-56.5 -129t-114 -88.5t-181 -30q-88 0 -154.5 21t-108 57.5t-67.5 90.5t-36 114t-10 135v356q0 77 6.5 134.5t25.5 111t51 87.5
t84.5 54.5t123.5 20.5q132 0 179 -136q-20 161 -91 244l-50 -68zM453 249q30 0 50 11.5t28.5 34.5t11.5 45.5t3 55.5v338q0 31 -2.5 54t-11 51t-28.5 43.5t-51 15.5t-51 -12t-28.5 -34.5t-11.5 -43.5t-3 -51v-368q0 -29 2.5 -49.5t11.5 -43.5t29 -35t51 -12z" />
    <glyph glyph-name="ntilde" unicode="&#xf1;" horiz-adv-x="929" 
d="M837 0h-278v815q0 31 -2.5 50.5t-10.5 43t-28 35.5t-51 12q-95 0 -95 -166v-790h-276v1202h276v-108q27 56 82 93t117 37q67 0 115.5 -21.5t77 -56.5t45.5 -90.5t22.5 -112.5t5.5 -134v-809zM666 1569l138 -38q-20 -109 -75.5 -175.5t-153.5 -66.5q-49 0 -111.5 32
t-88.5 32q-34 0 -55.5 -16t-35.5 -56l-137 42q50 239 227 239q54 0 116.5 -32.5t87.5 -32.5q64 0 88 72z" />
    <glyph glyph-name="ograve" unicode="&#xf2;" 
d="M75 394v415q0 95 17 166.5t57.5 130t115 89t182.5 30.5q87 0 152.5 -21t106.5 -57t67 -89.5t36 -113t10 -134.5v-416q0 -95 -16.5 -166t-56 -130t-113.5 -89.5t-182 -30.5t-183.5 31t-116.5 89.5t-58.5 130t-17.5 165.5zM447 957q-31 0 -51 -12t-28.5 -34.5t-11.5 -43.5
t-3 -51v-427q0 -29 2.5 -49.5t11.5 -43.5t29 -35t51 -12q30 0 50 11.5t28.5 34t11.5 43.5t3 51v427q0 30 -2.5 50.5t-11 43.5t-28.5 35t-51 12zM169 1564h242l132 -284h-192z" />
    <glyph glyph-name="oacute" unicode="&#xf3;" 
d="M75 394v415q0 95 17 166.5t57.5 130t115 89t182.5 30.5q87 0 152.5 -21t106.5 -57t67 -89.5t36 -113t10 -134.5v-416q0 -95 -16.5 -166t-56 -130t-113.5 -89.5t-182 -30.5t-183.5 31t-116.5 89.5t-58.5 130t-17.5 165.5zM447 957q-31 0 -51 -12t-28.5 -34.5t-11.5 -43.5
t-3 -51v-427q0 -29 2.5 -49.5t11.5 -43.5t29 -35t51 -12q30 0 50 11.5t28.5 34t11.5 43.5t3 51v427q0 30 -2.5 50.5t-11 43.5t-28.5 35t-51 12zM473 1564h259l-191 -284h-200z" />
    <glyph glyph-name="ocircumflex" unicode="&#xf4;" 
d="M75 394v415q0 95 17 166.5t57.5 130t115 89t182.5 30.5q87 0 152.5 -21t106.5 -57t67 -89.5t36 -113t10 -134.5v-416q0 -95 -16.5 -166t-56 -130t-113.5 -89.5t-182 -30.5t-183.5 31t-116.5 89.5t-58.5 130t-17.5 165.5zM447 957q-31 0 -51 -12t-28.5 -34.5t-11.5 -43.5
t-3 -51v-427q0 -29 2.5 -49.5t11.5 -43.5t29 -35t51 -12q30 0 50 11.5t28.5 34t11.5 43.5t3 51v427q0 30 -2.5 50.5t-11 43.5t-28.5 35t-51 12zM394 1280h-221l138 245h261l138 -245h-221l-48 106z" />
    <glyph glyph-name="otilde" unicode="&#xf5;" 
d="M75 394v415q0 95 17 166.5t57.5 130t115 89t182.5 30.5q87 0 152.5 -21t106.5 -57t67 -89.5t36 -113t10 -134.5v-416q0 -95 -16.5 -166t-56 -130t-113.5 -89.5t-182 -30.5t-183.5 31t-116.5 89.5t-58.5 130t-17.5 165.5zM447 957q-31 0 -51 -12t-28.5 -34.5t-11.5 -43.5
t-3 -51v-427q0 -29 2.5 -49.5t11.5 -43.5t29 -35t51 -12q30 0 50 11.5t28.5 34t11.5 43.5t3 51v427q0 30 -2.5 50.5t-11 43.5t-28.5 35t-51 12zM631 1569l138 -38q-20 -109 -75.5 -175.5t-153.5 -66.5q-49 0 -111.5 32t-88.5 32q-34 0 -55.5 -16t-35.5 -56l-137 42
q50 239 227 239q54 0 116.5 -32.5t87.5 -32.5q64 0 88 72z" />
    <glyph glyph-name="odieresis" unicode="&#xf6;" 
d="M75 394v415q0 95 17 166.5t57.5 130t115 89t182.5 30.5q87 0 152.5 -21t106.5 -57t67 -89.5t36 -113t10 -134.5v-416q0 -95 -16.5 -166t-56 -130t-113.5 -89.5t-182 -30.5t-183.5 31t-116.5 89.5t-58.5 130t-17.5 165.5zM447 957q-31 0 -51 -12t-28.5 -34.5t-11.5 -43.5
t-3 -51v-427q0 -29 2.5 -49.5t11.5 -43.5t29 -35t51 -12q30 0 50 11.5t28.5 34t11.5 43.5t3 51v427q0 30 -2.5 50.5t-11 43.5t-28.5 35t-51 12zM168 1422q0 69 30 100t95 31q66 0 96 -31t30 -100q0 -67 -30 -98.5t-96 -31.5q-65 0 -95 31.5t-30 98.5zM461 1422q0 69 30 100
t94 31q67 0 97 -31t30 -100q0 -67 -30.5 -98.5t-96.5 -31.5q-64 0 -94 31.5t-30 98.5z" />
    <glyph glyph-name="divide" unicode="&#xf7;" horiz-adv-x="835" 
d="M756 580h-677v247h677v-247zM251 1034q0 80 38.5 116t122.5 36q87 0 126 -36t39 -116q0 -78 -39.5 -114t-125.5 -36q-83 0 -122 36.5t-39 113.5zM251 370q0 80 38.5 116t122.5 36q87 0 126 -36t39 -116q0 -78 -39.5 -114t-125.5 -36q-83 0 -122 36.5t-39 113.5z" />
    <glyph glyph-name="oslash" unicode="&#xf8;" horiz-adv-x="893" 
d="M881 1411l-102 -205q18 -70 18 -155v-690q0 -87 -18 -154t-58.5 -120t-112 -80.5t-171.5 -27.5q-142 0 -228 58l-33 -69l-190 34l107 213q-16 63 -16 146v690q0 87 18 153.5t58.5 119t112 80.5t171.5 28q139 0 225 -56l35 70zM437 255q1 0 4 -1q72 3 72 107v689
q0 106 -76 106q-3 0 -4 1q-73 -3 -73 -106v-690q0 -106 77 -106z" />
    <glyph glyph-name="ugrave" unicode="&#xf9;" horiz-adv-x="929" 
d="M558 1202h276v-1202h-276v107q-48 -128 -162 -128q-72 0 -126 21t-87.5 57t-54 90t-28 113t-7.5 134v809h278v-816q0 -30 2.5 -50t11 -43t29 -35t51.5 -12q28 0 47 13.5t28 37.5t13 46.5t5 51.5v806zM189 1564h242l132 -284h-192z" />
    <glyph glyph-name="uacute" unicode="&#xfa;" horiz-adv-x="929" 
d="M558 1202h276v-1202h-276v107q-48 -128 -162 -128q-72 0 -126 21t-87.5 57t-54 90t-28 113t-7.5 134v809h278v-816q0 -30 2.5 -50t11 -43t29 -35t51.5 -12q28 0 47 13.5t28 37.5t13 46.5t5 51.5v806zM494 1564h259l-191 -284h-200z" />
    <glyph glyph-name="ucircumflex" unicode="&#xfb;" horiz-adv-x="929" 
d="M558 1202h276v-1202h-276v107q-48 -128 -162 -128q-72 0 -126 21t-87.5 57t-54 90t-28 113t-7.5 134v809h278v-816q0 -30 2.5 -50t11 -43t29 -35t51.5 -12q28 0 47 13.5t28 37.5t13 46.5t5 51.5v806zM415 1280h-221l138 245h261l138 -245h-221l-48 106z" />
    <glyph glyph-name="udieresis" unicode="&#xfc;" horiz-adv-x="929" 
d="M558 1202h276v-1202h-276v107q-48 -128 -162 -128q-72 0 -126 21t-87.5 57t-54 90t-28 113t-7.5 134v809h278v-816q0 -30 2.5 -50t11 -43t29 -35t51.5 -12q28 0 47 13.5t28 37.5t13 46.5t5 51.5v806zM191 1422q0 69 30 100t95 31q66 0 96 -31t30 -100q0 -67 -30 -98.5
t-96 -31.5q-65 0 -95 31.5t-30 98.5zM484 1422q0 69 30 100t94 31q67 0 97 -31t30 -100q0 -67 -30.5 -98.5t-96.5 -31.5q-64 0 -94 31.5t-30 98.5z" />
    <glyph glyph-name="yacute" unicode="&#xfd;" horiz-adv-x="849" 
d="M10 1204h285l130 -940l6 34q65 479 125 906h286q-24 -140 -70.5 -416.5t-69.5 -416.5l-66 -401q-27 -172 -116.5 -288t-206.5 -162l-120 198q35 16 58 31t51 43.5t47 73.5t30 106l4 28h-172zM459 1564h259l-191 -284h-200z" />
    <glyph glyph-name="thorn" unicode="&#xfe;" horiz-adv-x="931" 
d="M371 -367h-277v1889h277v-421q46 124 164 124q72 0 125.5 -21t87 -56.5t54 -90t28 -113.5t7.5 -134v-416q0 -76 -7.5 -135t-27.5 -113.5t-53 -90t-86.5 -56.5t-124.5 -21q-120 0 -167 129v-474zM466 957q-94 0 -94 -164v-381q0 -163 94 -163q30 0 50 11.5t28.5 34
t11.5 43.5t3 51v427q0 29 -3 50t-11.5 44t-28.5 35t-50 12z" />
    <glyph glyph-name="ydieresis" unicode="&#xff;" horiz-adv-x="849" 
d="M10 1204h285l130 -940l6 34q65 479 125 906h286q-24 -140 -70.5 -416.5t-69.5 -416.5l-66 -401q-27 -172 -116.5 -288t-206.5 -162l-120 198q35 16 58 31t51 43.5t47 73.5t30 106l4 28h-172zM163 1422q0 69 30 100t95 31q66 0 96 -31t30 -100q0 -67 -30 -98.5t-96 -31.5
q-65 0 -95 31.5t-30 98.5zM456 1422q0 69 30 100t94 31q67 0 97 -31t30 -100q0 -67 -30.5 -98.5t-96.5 -31.5q-64 0 -94 31.5t-30 98.5z" />
    <glyph glyph-name="Amacron" unicode="&#x100;" horiz-adv-x="916" 
d="M9 0l245 1523h373l245 -1523h-285l-30 232h-234l-29 -232h-285zM440 1155l-84 -664h168zM696 1647h-503v207h503v-207z" />
    <glyph glyph-name="amacron" unicode="&#x101;" horiz-adv-x="918" 
d="M824 0h-276v113q-52 -135 -171 -135q-87 0 -147.5 27.5t-94 81t-48 121.5t-14.5 159t12.5 151t45.5 104t92 63.5t150 19.5q96 0 174 -21v132q0 30 -3 51t-11.5 43.5t-28.5 34.5t-51 12q-92 0 -92 -129v-28h-277v24q0 90 17 159t57 125.5t114 86.5t180 30q105 0 179 -28.5
t115.5 -83.5t59.5 -124.5t18 -161.5v-827zM446 246q54 0 77.5 46.5t23.5 104.5v54q-43 26 -106 26q-30 0 -49 -9t-27.5 -27.5t-11 -36t-2.5 -44.5q0 -114 95 -114zM719 1326h-503v207h503v-207z" />
    <glyph glyph-name="Abreve" unicode="&#x102;" horiz-adv-x="916" 
d="M9 0l245 1523h373l245 -1523h-285l-30 232h-234l-29 -232h-285zM440 1155l-84 -664h168zM585 1889h155q-1 -61 -17 -111t-49 -91t-92 -64t-139 -23q-81 0 -140.5 23t-93 64t-48.5 91t-15 111h154q3 -31 5.5 -44.5t11 -35t22 -30.5t40 -16.5t64.5 -7.5q36 0 61 6.5
t39.5 16.5t23.5 29t12 36t6 46z" />
    <glyph glyph-name="abreve" unicode="&#x103;" horiz-adv-x="918" 
d="M824 0h-276v113q-52 -135 -171 -135q-87 0 -147.5 27.5t-94 81t-48 121.5t-14.5 159t12.5 151t45.5 104t92 63.5t150 19.5q96 0 174 -21v132q0 30 -3 51t-11.5 43.5t-28.5 34.5t-51 12q-92 0 -92 -129v-28h-277v24q0 90 17 159t57 125.5t114 86.5t180 30q105 0 179 -28.5
t115.5 -83.5t59.5 -124.5t18 -161.5v-827zM446 246q54 0 77.5 46.5t23.5 104.5v54q-43 26 -106 26q-30 0 -49 -9t-27.5 -27.5t-11 -36t-2.5 -44.5q0 -114 95 -114zM608 1568h155q-1 -61 -17 -111t-49 -91t-92 -64t-139 -23q-81 0 -140.5 23t-93 64t-48.5 91t-15 111h154
q3 -31 5.5 -44.5t11 -35t22 -30.5t40 -16.5t64.5 -7.5q36 0 61 6.5t39.5 16.5t23.5 29t12 36t6 46z" />
    <glyph glyph-name="Aogonek" unicode="&#x104;" horiz-adv-x="916" 
d="M9 0l245 1523h373l245 -1523h-285l-30 232h-234l-29 -232h-285zM440 1155l-84 -664h168zM896 -252l16 -151q-49 -55 -161 -55q-113 0 -185.5 58t-72.5 179q0 42 16 78.5t38 61.5t63 50.5t73.5 41t87.5 39.5l106 -50q-77 -48 -107.5 -91t-30.5 -105q0 -80 67 -80
q33 0 50.5 4.5t39.5 19.5z" />
    <glyph glyph-name="aogonek" unicode="&#x105;" horiz-adv-x="918" 
d="M824 0h-276v113q-52 -135 -171 -135q-87 0 -147.5 27.5t-94 81t-48 121.5t-14.5 159t12.5 151t45.5 104t92 63.5t150 19.5q96 0 174 -21v132q0 30 -3 51t-11.5 43.5t-28.5 34.5t-51 12q-92 0 -92 -129v-28h-277v24q0 90 17 159t57 125.5t114 86.5t180 30q105 0 179 -28.5
t115.5 -83.5t59.5 -124.5t18 -161.5v-827zM446 246q54 0 77.5 46.5t23.5 104.5v54q-43 26 -106 26q-30 0 -49 -9t-27.5 -27.5t-11 -36t-2.5 -44.5q0 -114 95 -114zM841 -252l16 -151q-49 -55 -161 -55q-113 0 -185.5 58t-72.5 179q0 42 16 78.5t38 61.5t63 50.5t73.5 41
t87.5 39.5l106 -50q-77 -48 -107.5 -91t-30.5 -105q0 -80 67 -80q33 0 50.5 4.5t39.5 19.5z" />
    <glyph glyph-name="Cacute" unicode="&#x106;" horiz-adv-x="913" 
d="M558 497h284v-112q0 -406 -381 -406v-1q-87 0 -153.5 21t-109.5 57.5t-70 90.5t-38 114.5t-11 134.5v731q0 93 18.5 165.5t60.5 131t118 89.5t183 31l1 1q382 0 382 -410v-109h-284v108q0 135 -97 135q-31 0 -51.5 -12t-30 -34.5t-13 -44.5t-3.5 -51v-731q0 -29 3 -50.5
t12.5 -44t30.5 -35t52 -12.5q97 0 97 132v111zM483 1885h259l-191 -284h-200z" />
    <glyph glyph-name="cacute" unicode="&#x107;" horiz-adv-x="891" 
d="M473 1580h259l-191 -284h-200zM544 377v26h275v-23q0 -73 -9.5 -130.5t-35 -109.5t-66 -86.5t-105.5 -55t-152 -20.5q-108 0 -183.5 31t-116.5 89.5t-58.5 130t-17.5 165.5v323q0 73 1 110q0 92 18 161.5t59.5 124.5t115.5 83.5t179 28.5q107 0 182 -30t115 -87
t57 -125.5t17 -158.5v-24h-275v28q0 129 -96 129q-31 0 -51 -12t-28.5 -34.5t-11.5 -43.5t-3 -51v-273q0 -124 1 -187q7 -107 93 -107q96 0 96 128z" />
    <glyph glyph-name="Ccircumflex" unicode="&#x108;" horiz-adv-x="913" 
d="M558 497h284v-112q0 -406 -381 -406v-1q-87 0 -153.5 21t-109.5 57.5t-70 90.5t-38 114.5t-11 134.5v731q0 93 18.5 165.5t60.5 131t118 89.5t183 31l1 1q382 0 382 -410v-109h-284v108q0 135 -97 135q-31 0 -51.5 -12t-30 -34.5t-13 -44.5t-3.5 -51v-731q0 -29 3 -50.5
t12.5 -44t30.5 -35t52 -12.5q97 0 97 132v111zM409 1601h-221l138 245h261l138 -245h-221l-48 106z" />
    <glyph glyph-name="ccircumflex" unicode="&#x109;" horiz-adv-x="891" 
d="M544 377v26h275v-23q0 -73 -9.5 -130.5t-35 -109.5t-66 -86.5t-105.5 -55t-152 -20.5q-108 0 -183.5 31t-116.5 89.5t-58.5 130t-17.5 165.5v323q0 73 1 110q0 92 18 161.5t59.5 124.5t115.5 83.5t179 28.5q107 0 182 -30t115 -87t57 -125.5t17 -158.5v-24h-275v28
q0 129 -96 129q-31 0 -51 -12t-28.5 -34.5t-11.5 -43.5t-3 -51v-273q0 -124 1 -187q7 -107 93 -107q96 0 96 128zM400 1280h-221l138 245h261l138 -245h-221l-48 106z" />
    <glyph glyph-name="Cdotaccent" unicode="&#x10a;" horiz-adv-x="913" 
d="M558 497h284v-112q0 -406 -381 -406v-1q-87 0 -153.5 21t-109.5 57.5t-70 90.5t-38 114.5t-11 134.5v731q0 93 18.5 165.5t60.5 131t118 89.5t183 31l1 1q382 0 382 -410v-109h-284v108q0 135 -97 135q-31 0 -51.5 -12t-30 -34.5t-13 -44.5t-3.5 -51v-731q0 -29 3 -50.5
t12.5 -44t30.5 -35t52 -12.5q97 0 97 132v111zM294 1730q0 79 39 115.5t122 36.5q86 0 125 -36.5t39 -115.5q0 -78 -39 -114t-125 -36q-83 0 -122 36.5t-39 113.5z" />
    <glyph glyph-name="cdotaccent" unicode="&#x10b;" horiz-adv-x="891" 
d="M285 1409q0 79 39 115.5t122 36.5q86 0 125 -36.5t39 -115.5q0 -78 -39 -114t-125 -36q-83 0 -122 36.5t-39 113.5zM544 377v26h275v-23q0 -73 -9.5 -130.5t-35 -109.5t-66 -86.5t-105.5 -55t-152 -20.5q-108 0 -183.5 31t-116.5 89.5t-58.5 130t-17.5 165.5v323
q0 73 1 110q0 92 18 161.5t59.5 124.5t115.5 83.5t179 28.5q107 0 182 -30t115 -87t57 -125.5t17 -158.5v-24h-275v28q0 129 -96 129q-31 0 -51 -12t-28.5 -34.5t-11.5 -43.5t-3 -51v-273q0 -124 1 -187q7 -107 93 -107q96 0 96 128z" />
    <glyph glyph-name="Ccaron" unicode="&#x10c;" horiz-adv-x="913" 
d="M558 497h284v-112q0 -406 -381 -406v-1q-87 0 -153.5 21t-109.5 57.5t-70 90.5t-38 114.5t-11 134.5v731q0 93 18.5 165.5t60.5 131t118 89.5t183 31l1 1q382 0 382 -410v-109h-284v108q0 135 -97 135q-31 0 -51.5 -12t-30 -34.5t-13 -44.5t-3.5 -51v-731q0 -29 3 -50.5
t12.5 -44t30.5 -35t52 -12.5q97 0 97 132v111zM188 1846h221l47 -106l48 106h221l-138 -245h-260z" />
    <glyph glyph-name="ccaron" unicode="&#x10d;" horiz-adv-x="891" 
d="M178 1525h221l47 -106l48 106h221l-138 -245h-260zM544 377v26h275v-23q0 -73 -9.5 -130.5t-35 -109.5t-66 -86.5t-105.5 -55t-152 -20.5q-108 0 -183.5 31t-116.5 89.5t-58.5 130t-17.5 165.5v323q0 73 1 110q0 92 18 161.5t59.5 124.5t115.5 83.5t179 28.5
q107 0 182 -30t115 -87t57 -125.5t17 -158.5v-24h-275v28q0 129 -96 129q-31 0 -51 -12t-28.5 -34.5t-11.5 -43.5t-3 -51v-273q0 -124 1 -187q7 -107 93 -107q96 0 96 128z" />
    <glyph glyph-name="Dcaron" unicode="&#x10e;" horiz-adv-x="944" 
d="M108 1521h379q106 0 181.5 -31t117.5 -89t60.5 -130t18.5 -165v-690q0 -94 -18.5 -166.5t-61 -130.5t-118.5 -88.5t-183 -30.5h-376v1521zM391 275h96q96 0 96 141v689q0 137 -96 141h-96v-971zM168 1846h221l47 -106l48 106h221l-138 -245h-260z" />
    <glyph glyph-name="dcaron" unicode="&#x10f;" horiz-adv-x="923" 
d="M883 1569h242l-31 -327h-183zM816 0h-276v100q-47 -122 -163 -122q-72 0 -125.5 21t-87 57t-54 90t-28 113.5t-7.5 134.5v415q0 76 7.5 135t27.5 113.5t53 90t86.5 56.5t124.5 21q118 0 166 -127v471h276v-1569zM446 246q94 0 94 165v395q-1 29 -5 51t-13 46.5t-28.5 38
t-47.5 13.5q-30 0 -50 -12t-29 -34.5t-12 -43.5t-3 -51v-427q0 -23 1.5 -40t7 -37t15 -33t27.5 -22t43 -9z" />
    <glyph glyph-name="Dcroat" unicode="&#x110;" horiz-adv-x="934" 
d="M88 1521h379q106 0 181.5 -31t117.5 -89t60.5 -130t18.5 -165v-690q0 -94 -18.5 -166.5t-61 -130.5t-118.5 -88.5t-183 -30.5h-376v1521zM371 275h96q96 0 96 141v689q0 137 -96 141h-96v-971zM471 638h-503v207h503v-207z" />
    <glyph glyph-name="dcroat" unicode="&#x111;" horiz-adv-x="923" 
d="M816 0h-276v100q-47 -122 -163 -122q-72 0 -125.5 21t-87 57t-54 90t-28 113.5t-7.5 134.5v415q0 76 7.5 135t27.5 113.5t53 90t86.5 56.5t124.5 21q118 0 166 -127v162h-101v246h101v63h276v-63h89v-246h-89v-1260zM446 246q94 0 94 165v380q0 164 -94 164
q-30 0 -50 -12t-29 -34.5t-12 -43.5t-3 -51v-427q0 -23 1.5 -40t7 -37t15 -33t27.5 -22t43 -9z" />
    <glyph glyph-name="Emacron" unicode="&#x112;" horiz-adv-x="858" 
d="M780 0h-673v1521l673 1v-276h-390v-337h321v-276h-321v-358h390v-275zM685 1647h-503v207h503v-207z" />
    <glyph glyph-name="emacron" unicode="&#x113;" horiz-adv-x="893" 
d="M544 406h275v-24q0 -93 -16.5 -162t-56 -126t-113.5 -86.5t-182 -29.5t-183.5 31t-116.5 89.5t-58.5 130t-17.5 165.5v415q0 75 10 135t36 114t67.5 89.5t107 56.5t152.5 21t152 -20.5t106.5 -55.5t67 -88t35.5 -111t10 -130v-273l-469 -94v-62q0 -29 3 -50.5t12.5 -44
t30.5 -35t52 -12.5q57 0 76.5 36.5t19.5 93.5v27zM448 957q-41 0 -64 -23.5t-28.5 -51.5t-5.5 -68v-121l194 43v89q0 132 -96 132zM699 1326h-503v207h503v-207z" />
    <glyph glyph-name="Ebreve" unicode="&#x114;" horiz-adv-x="858" 
d="M780 0h-673v1521l673 1v-276h-390v-337h321v-276h-321v-358h390v-275zM575 1889h155q-1 -61 -17 -111t-49 -91t-92 -64t-139 -23q-81 0 -140.5 23t-93 64t-48.5 91t-15 111h154q3 -31 5.5 -44.5t11 -35t22 -30.5t40 -16.5t64.5 -7.5q36 0 61 6.5t39.5 16.5t23.5 29t12 36
t6 46z" />
    <glyph glyph-name="ebreve" unicode="&#x115;" horiz-adv-x="893" 
d="M544 406h275v-24q0 -93 -16.5 -162t-56 -126t-113.5 -86.5t-182 -29.5t-183.5 31t-116.5 89.5t-58.5 130t-17.5 165.5v415q0 75 10 135t36 114t67.5 89.5t107 56.5t152.5 21t152 -20.5t106.5 -55.5t67 -88t35.5 -111t10 -130v-273l-469 -94v-62q0 -29 3 -50.5t12.5 -44
t30.5 -35t52 -12.5q57 0 76.5 36.5t19.5 93.5v27zM448 957q-41 0 -64 -23.5t-28.5 -51.5t-5.5 -68v-121l194 43v89q0 132 -96 132zM588 1568h155q-1 -61 -17 -111t-49 -91t-92 -64t-139 -23q-81 0 -140.5 23t-93 64t-48.5 91t-15 111h154q3 -31 5.5 -44.5t11 -35t22 -30.5
t40 -16.5t64.5 -7.5q36 0 61 6.5t39.5 16.5t23.5 29t12 36t6 46z" />
    <glyph glyph-name="Edotaccent" unicode="&#x116;" horiz-adv-x="858" 
d="M780 0h-673v1521l673 1v-276h-390v-337h321v-276h-321v-358h390v-275zM277 1730q0 79 39 115.5t122 36.5q86 0 125 -36.5t39 -115.5q0 -78 -39 -114t-125 -36q-83 0 -122 36.5t-39 113.5z" />
    <glyph glyph-name="edotaccent" unicode="&#x117;" horiz-adv-x="893" 
d="M544 406h275v-24q0 -93 -16.5 -162t-56 -126t-113.5 -86.5t-182 -29.5t-183.5 31t-116.5 89.5t-58.5 130t-17.5 165.5v415q0 75 10 135t36 114t67.5 89.5t107 56.5t152.5 21t152 -20.5t106.5 -55.5t67 -88t35.5 -111t10 -130v-273l-469 -94v-62q0 -29 3 -50.5t12.5 -44
t30.5 -35t52 -12.5q57 0 76.5 36.5t19.5 93.5v27zM448 957q-41 0 -64 -23.5t-28.5 -51.5t-5.5 -68v-121l194 43v89q0 132 -96 132zM284 1409q0 79 39 115.5t122 36.5q86 0 125 -36.5t39 -115.5q0 -78 -39 -114t-125 -36q-83 0 -122 36.5t-39 113.5z" />
    <glyph glyph-name="Eogonek" unicode="&#x118;" horiz-adv-x="858" 
d="M780 0h-673v1521l673 1v-276h-390v-337h321v-276h-321v-358h390v-275zM799 -252l16 -151q-49 -55 -161 -55q-113 0 -185.5 58t-72.5 179q0 42 16 78.5t38 61.5t63 50.5t73.5 41t87.5 39.5l106 -50q-77 -48 -107.5 -91t-30.5 -105q0 -80 67 -80q33 0 50.5 4.5t39.5 19.5z
" />
    <glyph glyph-name="eogonek" unicode="&#x119;" horiz-adv-x="893" 
d="M544 406v-27q0 -57 -19.5 -93.5t-76.5 -36.5q-31 0 -52 12.5t-30.5 35t-12.5 44t-3 50.5v62l469 94v273q0 72 -10 130t-35.5 111t-67 88t-106.5 55.5t-152 20.5t-152.5 -21t-107 -56.5t-67.5 -89.5t-36 -114t-10 -135v-415q0 -94 17.5 -165.5t58.5 -130t116.5 -89.5
t183.5 -31t182 29.5t113.5 86.5t56 126t16.5 162v24h-275zM448 957q96 0 96 -132v-89l-194 -43v121q0 40 5.5 68t28.5 51.5t64 23.5zM724 -202l16 -151q-49 -55 -161 -55q-113 0 -185.5 58t-72.5 179q0 42 16 78.5t38 61.5t63 50.5t73.5 41t87.5 39.5l106 -50
q-77 -48 -107.5 -91t-30.5 -105q0 -80 67 -80q33 0 50.5 4.5t39.5 19.5z" />
    <glyph glyph-name="Ecaron" unicode="&#x11a;" horiz-adv-x="858" 
d="M780 0h-673v1521l673 1v-276h-390v-337h321v-276h-321v-358h390v-275zM164 1846h221l47 -106l48 106h221l-138 -245h-260z" />
    <glyph glyph-name="ecaron" unicode="&#x11b;" horiz-adv-x="893" 
d="M544 406h275v-24q0 -93 -16.5 -162t-56 -126t-113.5 -86.5t-182 -29.5t-183.5 31t-116.5 89.5t-58.5 130t-17.5 165.5v415q0 75 10 135t36 114t67.5 89.5t107 56.5t152.5 21t152 -20.5t106.5 -55.5t67 -88t35.5 -111t10 -130v-273l-469 -94v-62q0 -29 3 -50.5t12.5 -44
t30.5 -35t52 -12.5q57 0 76.5 36.5t19.5 93.5v27zM448 957q-41 0 -64 -23.5t-28.5 -51.5t-5.5 -68v-121l194 43v89q0 132 -96 132zM178 1525h221l47 -106l48 106h221l-138 -245h-260z" />
    <glyph glyph-name="Gcircumflex" unicode="&#x11c;" horiz-adv-x="919" 
d="M454 567v272h388v-454q0 -406 -381 -406v-1q-108 0 -184.5 31t-118.5 90t-60.5 131t-18.5 166v731q0 94 18 166t60 130.5t118 89.5t184 31l1 1q382 0 382 -410v-109h-284v108q0 135 -97 135q-99 0 -99 -142v-731q0 -39 5.5 -67t29 -51.5t64.5 -23.5q97 0 97 132v181h-104
zM413 1601h-221l138 245h261l138 -245h-221l-48 106z" />
    <glyph glyph-name="gcircumflex" unicode="&#x11d;" horiz-adv-x="902" 
d="M414 1280h-221l138 245h261l138 -245h-221l-48 106zM540 1202h279v-1210q0 -92 -16.5 -162t-53 -125t-101 -83.5t-155.5 -28.5q-195 0 -306 58l16 233q76 -27 240 -27q97 0 97 135v106q-48 -120 -163 -120q-72 0 -125.5 21t-87 57t-54 90t-28 113.5t-7.5 134.5v415
q0 76 7.5 135t27.5 113.5t53 90t86.5 56.5t124.5 21q115 0 166 -126v103zM447 246q82 0 93 127v454q-11 128 -93 128q-31 0 -51 -12t-28.5 -34.5t-11.5 -43.5t-3 -51v-427q0 -29 2.5 -50t11.5 -44t29 -35t51 -12z" />
    <glyph glyph-name="Gbreve" unicode="&#x11e;" horiz-adv-x="919" 
d="M454 567v272h388v-454q0 -406 -381 -406v-1q-108 0 -184.5 31t-118.5 90t-60.5 131t-18.5 166v731q0 94 18 166t60 130.5t118 89.5t184 31l1 1q382 0 382 -410v-109h-284v108q0 135 -97 135q-99 0 -99 -142v-731q0 -39 5.5 -67t29 -51.5t64.5 -23.5q97 0 97 132v181h-104
zM603 1889h155q-1 -61 -17 -111t-49 -91t-92 -64t-139 -23q-81 0 -140.5 23t-93 64t-48.5 91t-15 111h154q3 -31 5.5 -44.5t11 -35t22 -30.5t40 -16.5t64.5 -7.5q36 0 61 6.5t39.5 16.5t23.5 29t12 36t6 46z" />
    <glyph glyph-name="gbreve" unicode="&#x11f;" horiz-adv-x="902" 
d="M609 1568h155q-1 -61 -17 -111t-49 -91t-92 -64t-139 -23q-81 0 -140.5 23t-93 64t-48.5 91t-15 111h154q3 -31 5.5 -44.5t11 -35t22 -30.5t40 -16.5t64.5 -7.5q36 0 61 6.5t39.5 16.5t23.5 29t12 36t6 46zM540 1202h279v-1210q0 -92 -16.5 -162t-53 -125t-101 -83.5
t-155.5 -28.5q-195 0 -306 58l16 233q76 -27 240 -27q97 0 97 135v106q-48 -120 -163 -120q-72 0 -125.5 21t-87 57t-54 90t-28 113.5t-7.5 134.5v415q0 76 7.5 135t27.5 113.5t53 90t86.5 56.5t124.5 21q115 0 166 -126v103zM447 246q82 0 93 127v454q-11 128 -93 128
q-31 0 -51 -12t-28.5 -34.5t-11.5 -43.5t-3 -51v-427q0 -29 2.5 -50t11.5 -44t29 -35t51 -12z" />
    <glyph glyph-name="Gdotaccent" unicode="&#x120;" horiz-adv-x="919" 
d="M454 567v272h388v-454q0 -406 -381 -406v-1q-108 0 -184.5 31t-118.5 90t-60.5 131t-18.5 166v731q0 94 18 166t60 130.5t118 89.5t184 31l1 1q382 0 382 -410v-109h-284v108q0 135 -97 135q-99 0 -99 -142v-731q0 -39 5.5 -67t29 -51.5t64.5 -23.5q97 0 97 132v181h-104
zM298 1730q0 79 39 115.5t122 36.5q86 0 125 -36.5t39 -115.5q0 -78 -39 -114t-125 -36q-83 0 -122 36.5t-39 113.5z" />
    <glyph glyph-name="gdotaccent" unicode="&#x121;" horiz-adv-x="902" 
d="M310 1409q0 79 39 115.5t122 36.5q86 0 125 -36.5t39 -115.5q0 -78 -39 -114t-125 -36q-83 0 -122 36.5t-39 113.5zM540 1202h279v-1210q0 -92 -16.5 -162t-53 -125t-101 -83.5t-155.5 -28.5q-195 0 -306 58l16 233q76 -27 240 -27q97 0 97 135v106q-48 -120 -163 -120
q-72 0 -125.5 21t-87 57t-54 90t-28 113.5t-7.5 134.5v415q0 76 7.5 135t27.5 113.5t53 90t86.5 56.5t124.5 21q115 0 166 -126v103zM447 246q82 0 93 127v454q-11 128 -93 128q-31 0 -51 -12t-28.5 -34.5t-11.5 -43.5t-3 -51v-427q0 -29 2.5 -50t11.5 -44t29 -35t51 -12z
" />
    <glyph glyph-name="uni0122" unicode="&#x122;" horiz-adv-x="919" 
d="M454 567v272h388v-454q0 -406 -381 -406v-1q-108 0 -184.5 31t-118.5 90t-60.5 131t-18.5 166v731q0 94 18 166t60 130.5t118 89.5t184 31l1 1q382 0 382 -410v-109h-284v108q0 135 -97 135q-99 0 -99 -142v-731q0 -39 5.5 -67t29 -51.5t64.5 -23.5q97 0 97 132v181h-104
zM329 -171q0 63 31 89.5t99 26.5q133 0 133 -141q0 -185 -109 -290l-100 57q34 44 47 72t19 71q-62 0 -91 27.5t-29 87.5z" />
    <glyph glyph-name="uni0123" unicode="&#x123;" horiz-adv-x="902" 
d="M337 -634q0 63 31 89.5t99 26.5q133 0 133 -141q0 -185 -109 -290l-100 57q34 44 47 72t19 71q-62 0 -91 27.5t-29 87.5zM540 1202h279v-1210q0 -92 -16.5 -162t-53 -125t-101 -83.5t-155.5 -28.5q-195 0 -306 58l16 233q76 -27 240 -27q97 0 97 135v106
q-48 -120 -163 -120q-72 0 -125.5 21t-87 57t-54 90t-28 113.5t-7.5 134.5v415q0 76 7.5 135t27.5 113.5t53 90t86.5 56.5t124.5 21q115 0 166 -126v103zM447 246q82 0 93 127v454q-11 128 -93 128q-31 0 -51 -12t-28.5 -34.5t-11.5 -43.5t-3 -51v-427q0 -29 2.5 -50
t11.5 -44t29 -35t51 -12z" />
    <glyph glyph-name="Hcircumflex" unicode="&#x124;" horiz-adv-x="1011" 
d="M392 0h-284v1522h284v-617h228v617h283v-1522h-283v630h-228v-630zM458 1601h-221l138 245h261l138 -245h-221l-48 106z" />
    <glyph glyph-name="hcircumflex" unicode="&#x125;" horiz-adv-x="929" 
d="M837 0h-278v815q0 30 -2.5 50.5t-11 43.5t-29 35t-51.5 12q-93 0 -93 -166v-790h-276v1567h276v-471q47 128 164 128q71 0 124.5 -21t87 -57t54 -90t28 -113t7.5 -134v-809zM419 1598h-221l138 245h261l138 -245h-221l-48 106z" />
    <glyph glyph-name="Hbar" unicode="&#x126;" horiz-adv-x="1011" 
d="M392 0h-284v1522h284v-617h228v617h283v-1522h-283v630h-228v-630zM757 1647h-503v207h503v-207z" />
    <glyph glyph-name="hbar" unicode="&#x127;" horiz-adv-x="929" 
d="M837 0h-278v815q0 30 -2.5 50.5t-11 43.5t-29 35t-51.5 12q-93 0 -93 -166v-790h-276v1567h276v-471q47 128 164 128q71 0 124.5 -21t87 -57t54 -90t28 -113t7.5 -134v-809zM527 1303h-503v207h503v-207z" />
    <glyph glyph-name="Itilde" unicode="&#x128;" horiz-adv-x="500" 
d="M392 0h-284v1522h284v-1522zM438 1890l138 -38q-20 -109 -75.5 -175.5t-153.5 -66.5q-49 0 -111.5 32t-88.5 32q-34 0 -55.5 -16t-35.5 -56l-137 42q50 239 227 239q54 0 116.5 -32.5t87.5 -32.5q64 0 88 72z" />
    <glyph glyph-name="itilde" unicode="&#x129;" horiz-adv-x="468" 
d="M373 0h-277v1202h277v-1202zM424 1569l138 -38q-20 -109 -75.5 -175.5t-153.5 -66.5q-49 0 -111.5 32t-88.5 32q-34 0 -55.5 -16t-35.5 -56l-137 42q50 239 227 239q54 0 116.5 -32.5t87.5 -32.5q64 0 88 72z" />
    <glyph glyph-name="Imacron" unicode="&#x12a;" horiz-adv-x="500" 
d="M392 0h-284v1522h284v-1522zM500 1647h-503v207h503v-207z" />
    <glyph glyph-name="imacron" unicode="&#x12b;" horiz-adv-x="468" 
d="M373 0h-277v1202h277v-1202zM486 1326h-503v207h503v-207z" />
    <glyph glyph-name="Ibreve" unicode="&#x12c;" horiz-adv-x="500" 
d="M392 0h-284v1522h284v-1522zM390 1889h155q-1 -61 -17 -111t-49 -91t-92 -64t-139 -23q-81 0 -140.5 23t-93 64t-48.5 91t-15 111h154q3 -31 5.5 -44.5t11 -35t22 -30.5t40 -16.5t64.5 -7.5q36 0 61 6.5t39.5 16.5t23.5 29t12 36t6 46z" />
    <glyph glyph-name="ibreve" unicode="&#x12d;" horiz-adv-x="468" 
d="M373 0h-277v1202h277v-1202zM377 1568h155q-1 -61 -17 -111t-49 -91t-92 -64t-139 -23q-81 0 -140.5 23t-93 64t-48.5 91t-15 111h154q3 -31 5.5 -44.5t11 -35t22 -30.5t40 -16.5t64.5 -7.5q36 0 61 6.5t39.5 16.5t23.5 29t12 36t6 46z" />
    <glyph glyph-name="Iogonek" unicode="&#x12e;" horiz-adv-x="500" 
d="M392 0h-284v1522h284v-1522zM408 -252l16 -151q-49 -55 -161 -55q-113 0 -185.5 58t-72.5 179q0 42 16 78.5t38 61.5t63 50.5t73.5 41t87.5 39.5l106 -50q-77 -48 -107.5 -91t-30.5 -105q0 -80 67 -80q33 0 50.5 4.5t39.5 19.5z" />
    <glyph glyph-name="iogonek" unicode="&#x12f;" horiz-adv-x="468" 
d="M71 1445q0 70 39 103t122 33q84 0 123.5 -33t39.5 -103t-39 -102.5t-124 -32.5q-83 0 -122 32.5t-39 102.5zM373 0h-277v1202h277v-1202zM392 -252l16 -151q-49 -55 -161 -55q-113 0 -185.5 58t-72.5 179q0 42 16 78.5t38 61.5t63 50.5t73.5 41t87.5 39.5l106 -50
q-77 -48 -107.5 -91t-30.5 -105q0 -80 67 -80q33 0 50.5 4.5t39.5 19.5z" />
    <glyph glyph-name="Idotaccent" unicode="&#x130;" horiz-adv-x="500" 
d="M392 0h-284v1522h284v-1522zM86 1730q0 79 39 115.5t122 36.5q86 0 125 -36.5t39 -115.5q0 -78 -39 -114t-125 -36q-83 0 -122 36.5t-39 113.5z" />
    <glyph glyph-name="dotlessi" unicode="&#x131;" horiz-adv-x="468" 
d="M373 0h-277v1202h277v-1202z" />
    <glyph glyph-name="IJ" unicode="&#x132;" horiz-adv-x="1189" 
d="M392 0h-284v1522h284v-1522zM619 1246v275h466v-1150q0 -191 -86 -289.5t-294 -98.5q-119 0 -196 60l77 243q25 -15 49 -22t70 -7q54 0 75.5 30t21.5 91v868h-183z" />
    <glyph glyph-name="ij" unicode="&#x133;" horiz-adv-x="949" 
d="M70 1445q0 70 39 103t123 33t123.5 -33t39.5 -103t-39 -102.5t-124 -32.5q-84 0 -123 32.5t-39 102.5zM372 0h-277v1202h277v-1202zM527 1445q0 70 39.5 103t122.5 33q84 0 123.5 -33t39.5 -103t-39 -102.5t-124 -32.5q-83 0 -122.5 32.5t-39.5 102.5zM552 1202h278
v-1210q0 -75 -7.5 -132.5t-28 -109t-54 -85t-87 -53t-126.5 -19.5q-128 0 -223 75l16 233q72 -44 159 -44q42 0 57.5 30.5t15.5 104.5v1210z" />
    <glyph glyph-name="Jcircumflex" unicode="&#x134;" horiz-adv-x="689" 
d="M119 1246v275h466v-1150q0 -191 -86 -289.5t-294 -98.5q-119 0 -196 60l77 243q25 -15 49 -22t70 -7q54 0 75.5 30t21.5 91v868h-183zM303 1584h-221l138 245h261l138 -245h-221l-48 106z" />
    <glyph glyph-name="jcircumflex" unicode="&#x135;" horiz-adv-x="470" 
d="M183 1280h-221l138 245h261l138 -245h-221l-48 106zM96 1202h278v-1210q0 -75 -7.5 -132.5t-28 -109t-54 -85t-87 -53t-126.5 -19.5q-128 0 -223 75l16 233q71 -44 158 -44q43 0 58.5 30.5t15.5 104.5v1210z" />
    <glyph glyph-name="uni0136" unicode="&#x136;" horiz-adv-x="964" 
d="M392 0h-284v1522h284v-617h67l192 616h301l-233 -741l249 -780h-302l-199 630h-75v-630zM399 -171q0 63 31 89.5t99 26.5q133 0 133 -141q0 -185 -109 -290l-100 57q34 44 47 72t19 71q-62 0 -91 27.5t-29 87.5z" />
    <glyph glyph-name="uni0137" unicode="&#x137;" horiz-adv-x="903" 
d="M94 1569h277v-825h72l146 458h280l-215 -602l243 -600h-306l-152 470h-68v-470h-277v1569zM334 -171q0 63 31 89.5t99 26.5q133 0 133 -141q0 -185 -109 -290l-100 57q34 44 47 72t19 71q-62 0 -91 27.5t-29 87.5z" />
    <glyph glyph-name="kgreenlandic" unicode="&#x138;" horiz-adv-x="903" 
d="M94 1201h277v-457h72l146 458h280l-215 -602l243 -600h-306l-152 470h-68v-470h-277v1201z" />
    <glyph glyph-name="Lacute" unicode="&#x139;" horiz-adv-x="772" 
d="M761 0h-653v1522h283v-1250h370v-272zM279 1885h259l-191 -284h-200z" />
    <glyph glyph-name="lacute" unicode="&#x13a;" horiz-adv-x="468" 
d="M372 0h-277v1569h277v-1569zM266 1893h259l-191 -284h-200z" />
    <glyph glyph-name="uni013B" unicode="&#x13b;" horiz-adv-x="772" 
d="M761 0h-653v1522h283v-1250h370v-272zM306 -171q0 63 31 89.5t99 26.5q133 0 133 -141q0 -185 -109 -290l-100 57q34 44 47 72t19 71q-62 0 -91 27.5t-29 87.5z" />
    <glyph glyph-name="uni013C" unicode="&#x13c;" horiz-adv-x="468" 
d="M372 0h-277v1569h277v-1569zM102 -171q0 63 31 89.5t99 26.5q133 0 133 -141q0 -185 -109 -290l-100 57q34 44 47 72t19 71q-62 0 -91 27.5t-29 87.5z" />
    <glyph glyph-name="Lcaron" unicode="&#x13d;" horiz-adv-x="772" 
d="M761 0h-653v1522h283v-1250h370v-272zM-20 1843h221l47 -106l48 106h221l-138 -245h-260z" />
    <glyph glyph-name="lcaron" unicode="&#x13e;" horiz-adv-x="468" 
d="M-37 1892h221l47 -106l48 106h221l-138 -245h-260zM372 0h-277v1569h277v-1569z" />
    <glyph glyph-name="Ldot" unicode="&#x13f;" horiz-adv-x="772" 
d="M483 744q0 79 39.5 115.5t122.5 36.5q86 0 125 -36.5t39 -115.5q0 -78 -39 -114t-125 -36q-83 0 -122.5 36.5t-39.5 113.5zM761 0h-653v1522h283v-1250h370v-272z" />
    <glyph glyph-name="ldot" unicode="&#x140;" horiz-adv-x="468" 
d="M73 1779q0 79 39 115.5t122 36.5q86 0 125 -36.5t39 -115.5q0 -78 -39 -114t-125 -36q-83 0 -122 36.5t-39 113.5zM372 0h-277v1569h277v-1569z" />
    <glyph glyph-name="Lslash" unicode="&#x141;" horiz-adv-x="772" 
d="M863 0h-654v409l-101 -73v309l101 73v804h284v-597l140 102v-310l-140 -102v-343h370v-272z" />
    <glyph glyph-name="lslash" unicode="&#x142;" horiz-adv-x="614" 
d="M688 861l-617 -470v251l617 471v-252zM519 0h-277v1569h277v-1569z" />
    <glyph glyph-name="Nacute" unicode="&#x143;" horiz-adv-x="1011" 
d="M392 0h-284v1522h339l226 -818l-8 818h283l1 -1522h-312l-255 861zM546 1884h259l-191 -284h-200z" />
    <glyph glyph-name="nacute" unicode="&#x144;" horiz-adv-x="929" 
d="M837 0h-278v815q0 31 -2.5 50.5t-10.5 43t-28 35.5t-51 12q-95 0 -95 -166v-790h-276v1202h276v-108q27 56 82 93t117 37q67 0 115.5 -21.5t77 -56.5t45.5 -90.5t22.5 -112.5t5.5 -134v-809zM493 1564h259l-191 -284h-200z" />
    <glyph glyph-name="uni0145" unicode="&#x145;" horiz-adv-x="1011" 
d="M392 0h-284v1522h339l226 -818l-8 818h283l1 -1522h-312l-255 861zM400 -171q0 63 31 89.5t99 26.5q133 0 133 -141q0 -185 -109 -290l-100 57q34 44 47 72t19 71q-62 0 -91 27.5t-29 87.5z" />
    <glyph glyph-name="uni0146" unicode="&#x146;" horiz-adv-x="929" 
d="M837 0h-278v815q0 31 -2.5 50.5t-10.5 43t-28 35.5t-51 12q-95 0 -95 -166v-790h-276v1202h276v-108q27 56 82 93t117 37q67 0 115.5 -21.5t77 -56.5t45.5 -90.5t22.5 -112.5t5.5 -134v-809zM348 -171q0 63 31 89.5t99 26.5q133 0 133 -141q0 -185 -109 -290l-100 57
q34 44 47 72t19 71q-62 0 -91 27.5t-29 87.5z" />
    <glyph glyph-name="Ncaron" unicode="&#x147;" horiz-adv-x="1011" 
d="M392 0h-284v1522h339l226 -818l-8 818h283l1 -1522h-312l-255 861zM273 1846h221l47 -106l48 106h221l-138 -245h-260z" />
    <glyph glyph-name="ncaron" unicode="&#x148;" horiz-adv-x="929" 
d="M837 0h-278v815q0 31 -2.5 50.5t-10.5 43t-28 35.5t-51 12q-95 0 -95 -166v-790h-276v1202h276v-108q27 56 82 93t117 37q67 0 115.5 -21.5t77 -56.5t45.5 -90.5t22.5 -112.5t5.5 -134v-809zM193 1525h221l47 -106l48 106h221l-138 -245h-260z" />
    <glyph glyph-name="napostrophe" unicode="&#x149;" horiz-adv-x="1199" 
d="M1122 0h-278v815q0 31 -2.5 50.5t-10.5 43t-28 35.5t-51 12q-95 0 -95 -166v-790h-276v1202h276v-108q27 56 82 93t117 37q67 0 115.5 -21.5t77 -56.5t45.5 -90.5t22.5 -112.5t5.5 -134v-809zM43 1109q0 63 31 89.5t99 26.5q133 0 133 -141q0 -185 -109 -290l-100 57
q34 44 47 72t19 71q-62 0 -91 27.5t-29 87.5z" />
    <glyph glyph-name="Eng" unicode="&#x14a;" horiz-adv-x="1011" 
d="M392 0h-284v1522h284v-1h29l210 -649v650h283v-1537q0 -101 -17 -172.5t-58 -128t-117.5 -84.5t-188.5 -28q-119 0 -196 60l77 243q44 -28 119 -28q55 0 76 29.5t21 90.5v33l-238 693v-693z" />
    <glyph glyph-name="eng" unicode="&#x14b;" horiz-adv-x="929" 
d="M837 809v-811q0 -75 -7.5 -132.5t-28 -109t-54 -85t-87 -53t-126.5 -19.5q-128 0 -223 75l15 228q72 -40 159 -40q43 1 58.5 31.5t15.5 104.5v817q0 30 -2.5 50.5t-11 43.5t-29 35t-51.5 12q-93 0 -93 -166v-790h-276v1202h276v-106q47 128 164 128q71 0 124.5 -21
t87 -57t54 -90t28 -113t7.5 -134z" />
    <glyph glyph-name="Omacron" unicode="&#x14c;" horiz-adv-x="914" 
d="M75 396v731q0 93 18.5 165.5t61 131t118.5 89.5t184 31q87 0 153.5 -21t109.5 -57.5t70 -90t38 -114t11 -134.5v-732q0 -74 -11 -134.5t-38 -114t-70 -90t-109.5 -57.5t-153.5 -21t-153.5 21t-109.5 57.5t-70 90.5t-38 114.5t-11 134.5zM457 254h1q1 -1 3 -1q95 3 95 142
v732q0 28 -3.5 49.5t-13 44t-30.5 35t-52 12.5q-3 0 -4 1q-39 -1 -61 -24.5t-27.5 -51t-5.5 -66.5v-731q0 -29 3 -50.5t12.5 -44t30.5 -35t52 -12.5zM708 1647h-503v207h503v-207z" />
    <glyph glyph-name="omacron" unicode="&#x14d;" 
d="M75 394v415q0 95 17 166.5t57.5 130t115 89t182.5 30.5q87 0 152.5 -21t106.5 -57t67 -89.5t36 -113t10 -134.5v-416q0 -95 -16.5 -166t-56 -130t-113.5 -89.5t-182 -30.5t-183.5 31t-116.5 89.5t-58.5 130t-17.5 165.5zM447 957q-31 0 -51 -12t-28.5 -34.5t-11.5 -43.5
t-3 -51v-427q0 -29 2.5 -49.5t11.5 -43.5t29 -35t51 -12q30 0 50 11.5t28.5 34t11.5 43.5t3 51v427q0 30 -2.5 50.5t-11 43.5t-28.5 35t-51 12zM693 1326h-503v207h503v-207z" />
    <glyph glyph-name="Obreve" unicode="&#x14e;" horiz-adv-x="914" 
d="M75 396v731q0 93 18.5 165.5t61 131t118.5 89.5t184 31q87 0 153.5 -21t109.5 -57.5t70 -90t38 -114t11 -134.5v-732q0 -74 -11 -134.5t-38 -114t-70 -90t-109.5 -57.5t-153.5 -21t-153.5 21t-109.5 57.5t-70 90.5t-38 114.5t-11 134.5zM457 254h1q1 -1 3 -1q95 3 95 142
v732q0 28 -3.5 49.5t-13 44t-30.5 35t-52 12.5q-3 0 -4 1q-39 -1 -61 -24.5t-27.5 -51t-5.5 -66.5v-731q0 -29 3 -50.5t12.5 -44t30.5 -35t52 -12.5zM598 1889h155q-1 -61 -17 -111t-49 -91t-92 -64t-139 -23q-81 0 -140.5 23t-93 64t-48.5 91t-15 111h154q3 -31 5.5 -44.5
t11 -35t22 -30.5t40 -16.5t64.5 -7.5q36 0 61 6.5t39.5 16.5t23.5 29t12 36t6 46z" />
    <glyph glyph-name="obreve" unicode="&#x14f;" 
d="M75 394v415q0 95 17 166.5t57.5 130t115 89t182.5 30.5q87 0 152.5 -21t106.5 -57t67 -89.5t36 -113t10 -134.5v-416q0 -95 -16.5 -166t-56 -130t-113.5 -89.5t-182 -30.5t-183.5 31t-116.5 89.5t-58.5 130t-17.5 165.5zM447 957q-31 0 -51 -12t-28.5 -34.5t-11.5 -43.5
t-3 -51v-427q0 -29 2.5 -49.5t11.5 -43.5t29 -35t51 -12q30 0 50 11.5t28.5 34t11.5 43.5t3 51v427q0 30 -2.5 50.5t-11 43.5t-28.5 35t-51 12zM583 1568h155q-1 -61 -17 -111t-49 -91t-92 -64t-139 -23q-81 0 -140.5 23t-93 64t-48.5 91t-15 111h154q3 -31 5.5 -44.5
t11 -35t22 -30.5t40 -16.5t64.5 -7.5q36 0 61 6.5t39.5 16.5t23.5 29t12 36t6 46z" />
    <glyph glyph-name="Ohungarumlaut" unicode="&#x150;" horiz-adv-x="914" 
d="M75 396v731q0 93 18.5 165.5t61 131t118.5 89.5t184 31q87 0 153.5 -21t109.5 -57.5t70 -90t38 -114t11 -134.5v-732q0 -74 -11 -134.5t-38 -114t-70 -90t-109.5 -57.5t-153.5 -21t-153.5 21t-109.5 57.5t-70 90.5t-38 114.5t-11 134.5zM457 254h1q1 -1 3 -1q95 3 95 142
v732q0 28 -3.5 49.5t-13 44t-30.5 35t-52 12.5q-3 0 -4 1q-39 -1 -61 -24.5t-27.5 -51t-5.5 -66.5v-731q0 -29 3 -50.5t12.5 -44t30.5 -35t52 -12.5zM340 1885h243l-182 -284h-192zM627 1885h242l-182 -284h-191z" />
    <glyph glyph-name="ohungarumlaut" unicode="&#x151;" 
d="M75 394v415q0 95 17 166.5t57.5 130t115 89t182.5 30.5q87 0 152.5 -21t106.5 -57t67 -89.5t36 -113t10 -134.5v-416q0 -95 -16.5 -166t-56 -130t-113.5 -89.5t-182 -30.5t-183.5 31t-116.5 89.5t-58.5 130t-17.5 165.5zM447 957q-31 0 -51 -12t-28.5 -34.5t-11.5 -43.5
t-3 -51v-427q0 -29 2.5 -49.5t11.5 -43.5t29 -35t51 -12q30 0 50 11.5t28.5 34t11.5 43.5t3 51v427q0 30 -2.5 50.5t-11 43.5t-28.5 35t-51 12zM295 1564h243l-182 -284h-192zM582 1564h242l-182 -284h-191z" />
    <glyph glyph-name="OE" unicode="&#x152;" horiz-adv-x="1329" 
d="M1233 0h-674v70q-27 -41 -60 -64t-88 -23q-95 0 -161 30.5t-102 88.5t-51.5 129t-15.5 166v732q0 75 9 134.5t32.5 113.5t60 89.5t94.5 56.5t134 21q87 0 148 -67v48h674v-274h-390v-342h321v-276h-321v-358h390v-275zM464 257q61 0 95 58v896q-33 58 -96 58
q-44 0 -63 -26t-27 -66q-8 -70 -8 -202v-405q0 -124 9 -202q4 -53 24.5 -82t65.5 -29z" />
    <glyph glyph-name="oe" unicode="&#x153;" horiz-adv-x="1387" 
d="M1018 406h275v-24q0 -74 -9.5 -131.5t-34.5 -110.5t-66 -87.5t-106 -54.5t-152 -20q-146 0 -235 59q-89 -59 -233 -59q-108 0 -183.5 31t-116.5 89.5t-58.5 130t-17.5 165.5v415q0 95 17 166.5t57.5 130t115 89t182.5 30.5q148 0 234 -60q86 60 235 60q87 0 152 -20.5
t106.5 -55.5t67 -88t35.5 -111t10 -130v-273l-468 -94v-62q0 -29 3 -50.5t12 -44t30 -35t52 -12.5q57 0 76.5 36.5t19.5 93.5v27zM453 957q-31 0 -51 -12t-28.5 -34.5t-11.5 -43.5t-3 -51v-427q0 -29 2.5 -49.5t11.5 -43.5t29 -35t51 -12q30 0 50 11.5t28.5 34t11.5 43.5
t3 51v427q0 30 -2.5 50.5t-11 43.5t-28.5 35t-51 12zM922 957q-25 0 -43 -8.5t-28.5 -22t-16.5 -33.5t-7.5 -38t-1.5 -41v-121l193 43v89q0 20 -1.5 36t-7.5 35t-15.5 31.5t-28 21t-43.5 8.5z" />
    <glyph glyph-name="Racute" unicode="&#x154;" horiz-adv-x="960" 
d="M392 0h-284v1521h388q195 0 289.5 -93t94.5 -298v-172q0 -173 -142 -288q58 -42 80.5 -95.5t32.5 -176.5l14 -207q7 -87 60 -191h-293q-11 19 -29.5 73.5t-21.5 109.5l-16 208q-6 99 -40.5 139.5t-83.5 37.5h-49v-568zM596 958v175q0 60 -23.5 86.5t-79.5 26.5h-101v-402
h101q53 0 78 31t25 83zM456 1885h259l-191 -284h-200z" />
    <glyph glyph-name="racute" unicode="&#x155;" horiz-adv-x="629" 
d="M620 1202v-293q-1 0 -13.5 6.5t-27.5 13.5t-41.5 13t-52.5 6h-2q-56 0 -82 -46.5t-29 -107.5v-794h-276v1202h276v-119q52 142 171 142v-2l2 2q46 0 75 -23zM381 1564h259l-191 -284h-200z" />
    <glyph glyph-name="uni0156" unicode="&#x156;" horiz-adv-x="960" 
d="M392 0h-284v1521h388q195 0 289.5 -93t94.5 -298v-172q0 -173 -142 -288q58 -42 80.5 -95.5t32.5 -176.5l14 -207q7 -87 60 -191h-293q-11 19 -29.5 73.5t-21.5 109.5l-16 208q-6 99 -40.5 139.5t-83.5 37.5h-49v-568zM596 958v175q0 60 -23.5 86.5t-79.5 26.5h-101v-402
h101q53 0 78 31t25 83zM371 -171q0 63 31 89.5t99 26.5q133 0 133 -141q0 -185 -109 -290l-100 57q34 44 47 72t19 71q-62 0 -91 27.5t-29 87.5z" />
    <glyph glyph-name="uni0157" unicode="&#x157;" horiz-adv-x="629" 
d="M620 1202v-293q-1 0 -13.5 6.5t-27.5 13.5t-41.5 13t-52.5 6h-2q-56 0 -82 -46.5t-29 -107.5v-794h-276v1202h276v-119q52 142 171 142v-2l2 2q46 0 75 -23zM104 -171q0 63 31 89.5t99 26.5q133 0 133 -141q0 -185 -109 -290l-100 57q34 44 47 72t19 71q-62 0 -91 27.5
t-29 87.5z" />
    <glyph glyph-name="Rcaron" unicode="&#x158;" horiz-adv-x="960" 
d="M392 0h-284v1521h388q195 0 289.5 -93t94.5 -298v-172q0 -173 -142 -288q58 -42 80.5 -95.5t32.5 -176.5l14 -207q7 -87 60 -191h-293q-11 19 -29.5 73.5t-21.5 109.5l-16 208q-6 99 -40.5 139.5t-83.5 37.5h-49v-568zM596 958v175q0 60 -23.5 86.5t-79.5 26.5h-101v-402
h101q53 0 78 31t25 83zM165 1846h221l47 -106l48 106h221l-138 -245h-260z" />
    <glyph glyph-name="rcaron" unicode="&#x159;" horiz-adv-x="629" 
d="M620 1202v-293q-1 0 -13.5 6.5t-27.5 13.5t-41.5 13t-52.5 6h-2q-56 0 -82 -46.5t-29 -107.5v-794h-276v1202h276v-119q52 142 171 142v-2l2 2q46 0 75 -23zM75 1525h221l47 -106l48 106h221l-138 -245h-260z" />
    <glyph glyph-name="Sacute" unicode="&#x15a;" horiz-adv-x="907" 
d="M839 428v-61q0 -194 -93.5 -291.5t-290.5 -97.5q-209 0 -297 97.5t-88 300.5v121h282v-119q0 -64 22 -94t78 -30q57 0 80 30t23 86v11q0 85 -16 129.5t-74 83.5l-142 97q-80 54 -127.5 100t-72 100t-31.5 105t-7 133v31q0 202 95 293t284 91q190 0 280 -92.5t90 -293.5
v-132h-283v138q-1 52 -21 78.5t-69 26.5q-95 0 -93 -113v-28q2 -120 88 -173l124 -74q147 -90 201 -193t58 -260zM490 1885h259l-191 -284h-200z" />
    <glyph glyph-name="sacute" unicode="&#x15b;" horiz-adv-x="831" 
d="M780 367q0 -189 -83 -289t-282 -100q-86 0 -150.5 19.5t-106.5 54t-68.5 87.5t-37 115t-10.5 142h278q0 -71 20 -109t72 -38q38 0 57 24t19 56q0 33 -24 63t-62 55.5t-84 53t-92.5 60.5t-84.5 71t-62 92.5t-24 118.5q0 196 81.5 289t282.5 93q66 0 115.5 -9t96 -35
t76 -69.5t47 -115t17.5 -168.5l-278 1q0 128 -74 128q-45 0 -63.5 -24t-18.5 -55q0 -29 24.5 -56.5t63.5 -52t86.5 -51.5t94.5 -61t86 -73.5t63.5 -95.5t24.5 -121zM446 1564h259l-191 -284h-200z" />
    <glyph glyph-name="Scircumflex" unicode="&#x15c;" horiz-adv-x="907" 
d="M839 428v-61q0 -194 -93.5 -291.5t-290.5 -97.5q-209 0 -297 97.5t-88 300.5v121h282v-119q0 -64 22 -94t78 -30q57 0 80 30t23 86v11q0 85 -16 129.5t-74 83.5l-142 97q-80 54 -127.5 100t-72 100t-31.5 105t-7 133v31q0 202 95 293t284 91q190 0 280 -92.5t90 -293.5
v-132h-283v138q-1 52 -21 78.5t-69 26.5q-95 0 -93 -113v-28q2 -120 88 -173l124 -74q147 -90 201 -193t58 -260zM430 1601h-221l138 245h261l138 -245h-221l-48 106z" />
    <glyph glyph-name="scircumflex" unicode="&#x15d;" horiz-adv-x="831" 
d="M780 367q0 -189 -83 -289t-282 -100q-86 0 -150.5 19.5t-106.5 54t-68.5 87.5t-37 115t-10.5 142h278q0 -71 20 -109t72 -38q38 0 57 24t19 56q0 33 -24 63t-62 55.5t-84 53t-92.5 60.5t-84.5 71t-62 92.5t-24 118.5q0 196 81.5 289t282.5 93q66 0 115.5 -9t96 -35
t76 -69.5t47 -115t17.5 -168.5l-278 1q0 128 -74 128q-45 0 -63.5 -24t-18.5 -55q0 -29 24.5 -56.5t63.5 -52t86.5 -51.5t94.5 -61t86 -73.5t63.5 -95.5t24.5 -121zM366 1280h-221l138 245h261l138 -245h-221l-48 106z" />
    <glyph glyph-name="Scedilla" unicode="&#x15e;" horiz-adv-x="907" 
d="M839 428q-4 157 -58 260t-201 193l-124 74q-86 53 -88 173v28q-2 113 93 113q49 0 69 -26.5t21 -78.5v-138h283v132q0 201 -90 293.5t-280 92.5q-189 0 -284 -91t-95 -293v-31q0 -82 7 -133t31.5 -105t72 -100t127.5 -100l142 -97q58 -39 74 -83.5t16 -129.5v-11
q0 -56 -23 -86t-80 -30q-56 0 -78 30t-22 94v119h-282v-121q0 -203 88 -300.5t297 -97.5q197 0 290.5 97.5t93.5 291.5v61zM275 -365l41 98q31 -19 47.5 -27t49.5 -16t75 -8q41 0 66 16.5t25 48.5q0 26 -31 39.5t-73 13.5q-38 0 -65 -9l2 250h135l-1 -118q2 0 9 1.5t11 2.5
q20 5 47 5q77 0 122.5 -51t45.5 -122q0 -99 -77 -152t-208 -53q-69 0 -126.5 23.5t-94.5 57.5z" />
    <glyph glyph-name="scedilla" unicode="&#x15f;" horiz-adv-x="831" 
d="M780 367q0 65 -24.5 121t-63.5 95.5t-86 73.5t-94.5 61t-86.5 51.5t-63.5 52t-24.5 56.5q0 31 18.5 55t63.5 24q74 0 74 -128l278 -1q0 97 -17.5 168.5t-47 115t-76 69.5t-96 35t-115.5 9q-201 0 -282.5 -93t-81.5 -289q0 -64 24 -118.5t62 -92.5t84.5 -71t92.5 -60.5
t84 -53t62 -55.5t24 -63q0 -32 -19 -56t-57 -24q-52 0 -72 38t-20 109h-278q0 -80 10.5 -142t37 -115t68.5 -87.5t106.5 -54t150.5 -19.5q199 0 282 100t83 289zM202 -365l41 98q31 -19 47.5 -27t49.5 -16t75 -8q41 0 66 16.5t25 48.5q0 26 -31 39.5t-73 13.5q-38 0 -65 -9
l2 250h135l-1 -118q2 0 9 1.5t11 2.5q20 5 47 5q77 0 122.5 -51t45.5 -122q0 -99 -77 -152t-208 -53q-69 0 -126.5 23.5t-94.5 57.5z" />
    <glyph glyph-name="Scaron" unicode="&#x160;" horiz-adv-x="907" 
d="M839 428v-61q0 -194 -93.5 -291.5t-290.5 -97.5q-209 0 -297 97.5t-88 300.5v121h282v-119q0 -64 22 -94t78 -30q57 0 80 30t23 86v11q0 85 -16 129.5t-74 83.5l-142 97q-80 54 -127.5 100t-72 100t-31.5 105t-7 133v31q0 202 95 293t284 91q190 0 280 -92.5t90 -293.5
v-132h-283v138q-1 52 -21 78.5t-69 26.5q-95 0 -93 -113v-28q2 -120 88 -173l124 -74q147 -90 201 -193t58 -260zM208 1846h221l47 -106l48 106h221l-138 -245h-260z" />
    <glyph glyph-name="scaron" unicode="&#x161;" horiz-adv-x="831" 
d="M780 367q0 -189 -83 -289t-282 -100q-86 0 -150.5 19.5t-106.5 54t-68.5 87.5t-37 115t-10.5 142h278q0 -71 20 -109t72 -38q38 0 57 24t19 56q0 33 -24 63t-62 55.5t-84 53t-92.5 60.5t-84.5 71t-62 92.5t-24 118.5q0 196 81.5 289t282.5 93q66 0 115.5 -9t96 -35
t76 -69.5t47 -115t17.5 -168.5l-278 1q0 128 -74 128q-45 0 -63.5 -24t-18.5 -55q0 -29 24.5 -56.5t63.5 -52t86.5 -51.5t94.5 -61t86 -73.5t63.5 -95.5t24.5 -121zM145 1525h221l47 -106l48 106h221l-138 -245h-260z" />
    <glyph glyph-name="uni0162" unicode="&#x162;" horiz-adv-x="781" 
d="M770 1246h-237v-1246h-285v1246h-238v275h760v-275zM258 -171q0 63 31 89.5t99 26.5q133 0 133 -141q0 -185 -109 -290l-100 57q34 44 47 72t19 71q-62 0 -91 27.5t-29 87.5z" />
    <glyph glyph-name="uni0163" unicode="&#x163;" horiz-adv-x="683" 
d="M143 1587h279v-385h182v-259h-182v-566q0 -75 15 -105t58 -31q18 0 34 1.5t30.5 5t24.5 6t23 8.5t17.5 8t17.5 9l12 7l15 -233q-95 -75 -222 -75q-73 0 -127.5 19.5t-88 53t-53.5 85.5t-27.5 109t-7.5 132v566h-127v259h127v385zM301 -171q0 63 31 89.5t99 26.5
q133 0 133 -141q0 -185 -109 -290l-100 57q34 44 47 72t19 71q-62 0 -91 27.5t-29 87.5z" />
    <glyph glyph-name="Tcaron" unicode="&#x164;" horiz-adv-x="781" 
d="M770 1246h-237v-1246h-285v1246h-238v275h760v-275zM121 1846h221l47 -106l48 106h221l-138 -245h-260z" />
    <glyph glyph-name="tcaron" unicode="&#x165;" horiz-adv-x="683" 
d="M143 1587h279v-385h182v-259h-182v-566q0 -75 15 -105t58 -31q18 0 34 1.5t30.5 5t24.5 6t23 8.5t17.5 8t17.5 9l12 7l15 -233q-95 -75 -222 -75q-73 0 -127.5 19.5t-88 53t-53.5 85.5t-27.5 109t-7.5 132v566h-127v259h127v385zM17 1891h221l47 -106l48 106h221
l-138 -245h-260z" />
    <glyph glyph-name="Tbar" unicode="&#x166;" horiz-adv-x="781" 
d="M770 1246h-237v-1246h-285v1246h-238v275h760v-275zM641 1647h-503v207h503v-207z" />
    <glyph glyph-name="tbar" unicode="&#x167;" horiz-adv-x="683" 
d="M143 1587h279v-385h182v-259h-182v-566q0 -75 15 -105t58 -31q18 0 34 1.5t30.5 5t24.5 6t23 8.5t17.5 8t17.5 9l12 7l15 -233q-95 -75 -222 -75q-73 0 -127.5 19.5t-88 53t-53.5 85.5t-27.5 109t-7.5 132v566h-127v259h127v385zM546 540h-503v207h503v-207z" />
    <glyph glyph-name="Utilde" unicode="&#x168;" horiz-adv-x="945" 
d="M571 1521h282v-1154q0 -94 -18.5 -162.5t-61 -121t-117.5 -79t-183 -26.5t-183.5 26.5t-118 79t-61 121t-18.5 162.5v1154h282v-1153q0 -56 19.5 -85.5t79.5 -29.5t79 29.5t19 85.5v1153zM663 1890l138 -38q-20 -109 -75.5 -175.5t-153.5 -66.5q-49 0 -111.5 32t-88.5 32
q-34 0 -55.5 -16t-35.5 -56l-137 42q50 239 227 239q54 0 116.5 -32.5t87.5 -32.5q64 0 88 72z" />
    <glyph glyph-name="utilde" unicode="&#x169;" horiz-adv-x="929" 
d="M558 1202h276v-1202h-276v107q-48 -128 -162 -128q-72 0 -126 21t-87.5 57t-54 90t-28 113t-7.5 134v809h278v-816q0 -30 2.5 -50t11 -43t29 -35t51.5 -12q28 0 47 13.5t28 37.5t13 46.5t5 51.5v806zM653 1569l138 -38q-20 -109 -75.5 -175.5t-153.5 -66.5
q-49 0 -111.5 32t-88.5 32q-34 0 -55.5 -16t-35.5 -56l-137 42q50 239 227 239q54 0 116.5 -32.5t87.5 -32.5q64 0 88 72z" />
    <glyph glyph-name="Umacron" unicode="&#x16a;" horiz-adv-x="945" 
d="M571 1521h282v-1154q0 -94 -18.5 -162.5t-61 -121t-117.5 -79t-183 -26.5t-183.5 26.5t-118 79t-61 121t-18.5 162.5v1154h282v-1153q0 -56 19.5 -85.5t79.5 -29.5t79 29.5t19 85.5v1153zM724 1647h-503v207h503v-207z" />
    <glyph glyph-name="umacron" unicode="&#x16b;" horiz-adv-x="929" 
d="M558 1202h276v-1202h-276v107q-48 -128 -162 -128q-72 0 -126 21t-87.5 57t-54 90t-28 113t-7.5 134v809h278v-816q0 -30 2.5 -50t11 -43t29 -35t51.5 -12q28 0 47 13.5t28 37.5t13 46.5t5 51.5v806zM714 1326h-503v207h503v-207z" />
    <glyph glyph-name="Ubreve" unicode="&#x16c;" horiz-adv-x="945" 
d="M571 1521h282v-1154q0 -94 -18.5 -162.5t-61 -121t-117.5 -79t-183 -26.5t-183.5 26.5t-118 79t-61 121t-18.5 162.5v1154h282v-1153q0 -56 19.5 -85.5t79.5 -29.5t79 29.5t19 85.5v1153zM614 1889h155q-1 -61 -17 -111t-49 -91t-92 -64t-139 -23q-81 0 -140.5 23t-93 64
t-48.5 91t-15 111h154q3 -31 5.5 -44.5t11 -35t22 -30.5t40 -16.5t64.5 -7.5q36 0 61 6.5t39.5 16.5t23.5 29t12 36t6 46z" />
    <glyph glyph-name="ubreve" unicode="&#x16d;" horiz-adv-x="929" 
d="M558 1202h276v-1202h-276v107q-48 -128 -162 -128q-72 0 -126 21t-87.5 57t-54 90t-28 113t-7.5 134v809h278v-816q0 -30 2.5 -50t11 -43t29 -35t51.5 -12q28 0 47 13.5t28 37.5t13 46.5t5 51.5v806zM605 1568h155q-1 -61 -17 -111t-49 -91t-92 -64t-139 -23
q-81 0 -140.5 23t-93 64t-48.5 91t-15 111h154q3 -31 5.5 -44.5t11 -35t22 -30.5t40 -16.5t64.5 -7.5q36 0 61 6.5t39.5 16.5t23.5 29t12 36t6 46z" />
    <glyph glyph-name="Uring" unicode="&#x16e;" horiz-adv-x="945" 
d="M571 1521h282v-1154q0 -94 -18.5 -162.5t-61 -121t-117.5 -79t-183 -26.5t-183.5 26.5t-118 79t-61 121t-18.5 162.5v1154h282v-1153q0 -56 19.5 -85.5t79.5 -29.5t79 29.5t19 85.5v1153zM239 1803q0 114 56 166.5t176 52.5q123 0 179.5 -52.5t56.5 -166.5
q0 -111 -56.5 -163.5t-179.5 -52.5q-120 0 -176 52.5t-56 163.5zM414 1804q0 -57 59 -57t59 57q0 28 -13.5 41.5t-45.5 13.5t-45.5 -13.5t-13.5 -41.5z" />
    <glyph glyph-name="uring" unicode="&#x16f;" horiz-adv-x="929" 
d="M558 1202h276v-1202h-276v107q-48 -128 -162 -128q-72 0 -126 21t-87.5 57t-54 90t-28 113t-7.5 134v809h278v-816q0 -30 2.5 -50t11 -43t29 -35t51.5 -12q28 0 47 13.5t28 37.5t13 46.5t5 51.5v806zM228 1482q0 114 56 166.5t176 52.5q123 0 179.5 -52.5t56.5 -166.5
q0 -111 -56.5 -163.5t-179.5 -52.5q-120 0 -176 52.5t-56 163.5zM403 1483q0 -57 59 -57t59 57q0 28 -13.5 41.5t-45.5 13.5t-45.5 -13.5t-13.5 -41.5z" />
    <glyph glyph-name="Uhungarumlaut" unicode="&#x170;" horiz-adv-x="945" 
d="M571 1521h282v-1154q0 -94 -18.5 -162.5t-61 -121t-117.5 -79t-183 -26.5t-183.5 26.5t-118 79t-61 121t-18.5 162.5v1154h282v-1153q0 -56 19.5 -85.5t79.5 -29.5t79 29.5t19 85.5v1153zM363 1885h243l-182 -284h-192zM650 1885h242l-182 -284h-191z" />
    <glyph glyph-name="uhungarumlaut" unicode="&#x171;" horiz-adv-x="929" 
d="M558 1202h276v-1202h-276v107q-48 -128 -162 -128q-72 0 -126 21t-87.5 57t-54 90t-28 113t-7.5 134v809h278v-816q0 -30 2.5 -50t11 -43t29 -35t51.5 -12q28 0 47 13.5t28 37.5t13 46.5t5 51.5v806zM361 1564h243l-182 -284h-192zM648 1564h242l-182 -284h-191z" />
    <glyph glyph-name="Uogonek" unicode="&#x172;" horiz-adv-x="945" 
d="M571 1521v-1153q0 -56 -19 -85.5t-79 -29.5t-79.5 29.5t-19.5 85.5v1153h-282v-1154q0 -94 18.5 -162.5t61 -121t118 -79t183.5 -26.5t183 26.5t117.5 79t61 121t18.5 162.5v1154h-282zM707 -232l16 -151q-49 -55 -161 -55q-113 0 -185.5 58t-72.5 179q0 42 16 78.5
t38 61.5t63 50.5t73.5 41t87.5 39.5l106 -50q-77 -48 -107.5 -91t-30.5 -105q0 -80 67 -80q33 0 50.5 4.5t39.5 19.5z" />
    <glyph glyph-name="uogonek" unicode="&#x173;" horiz-adv-x="929" 
d="M558 1202h276v-1202h-276v107q-48 -128 -162 -128q-72 0 -126 21t-87.5 57t-54 90t-28 113t-7.5 134v809h278v-816q0 -30 2.5 -50t11 -43t29 -35t51.5 -12q28 0 47 13.5t28 37.5t13 46.5t5 51.5v806zM852 -252l16 -151q-49 -55 -161 -55q-113 0 -185.5 58t-72.5 179
q0 42 16 78.5t38 61.5t63 50.5t73.5 41t87.5 39.5l106 -50q-77 -48 -107.5 -91t-30.5 -105q0 -80 67 -80q33 0 50.5 4.5t39.5 19.5z" />
    <glyph glyph-name="Wcircumflex" unicode="&#x174;" horiz-adv-x="1357" 
d="M780 0l-102 983l-102 -983h-357l-183 1523h285l88 -1012l99 1012h340l99 -1012l88 1012h285l-183 -1523h-357zM632 1601h-221l138 245h261l138 -245h-221l-48 106z" />
    <glyph glyph-name="wcircumflex" unicode="&#x175;" horiz-adv-x="1435" 
d="M186 0l-175 1204h285l109 -936h4l109 936h398l109 -936h4l109 936h286l-176 -1204h-425l-106 899l-106 -899h-425zM599 1280h-221l138 245h261l138 -245h-221l-48 106z" />
    <glyph glyph-name="Ycircumflex" unicode="&#x176;" horiz-adv-x="895" 
d="M890 1521l-294 -985v-536h-283v536l-308 985h311l141 -598l156 598h277zM410 1601h-221l138 245h261l138 -245h-221l-48 106z" />
    <glyph glyph-name="ycircumflex" unicode="&#x177;" horiz-adv-x="849" 
d="M10 1204h285l130 -940l6 34q65 479 125 906h286q-24 -140 -70.5 -416.5t-69.5 -416.5l-66 -401q-27 -172 -116.5 -288t-206.5 -162l-120 198q35 16 58 31t51 43.5t47 73.5t30 106l4 28h-172zM385 1280h-221l138 245h261l138 -245h-221l-48 106z" />
    <glyph glyph-name="Ydieresis" unicode="&#x178;" horiz-adv-x="895" 
d="M890 1521l-294 -985v-536h-283v536l-308 985h311l141 -598l156 598h277zM185 1743q0 69 30 100t95 31q66 0 96 -31t30 -100q0 -67 -30 -98.5t-96 -31.5q-65 0 -95 31.5t-30 98.5zM478 1743q0 69 30 100t94 31q67 0 97 -31t30 -100q0 -67 -30.5 -98.5t-96.5 -31.5
q-64 0 -94 31.5t-30 98.5z" />
    <glyph glyph-name="Zacute" unicode="&#x179;" horiz-adv-x="816" 
d="M759 0h-702v256l378 990h-362v275h684v-236l-388 -1010h390v-275zM451 1885h259l-191 -284h-200z" />
    <glyph glyph-name="zacute" unicode="&#x17a;" horiz-adv-x="782" 
d="M718 0h-676v237l367 707h-339v258h647v-235l-364 -701h365v-266zM418 1564h259l-191 -284h-200z" />
    <glyph glyph-name="Zdotaccent" unicode="&#x17b;" horiz-adv-x="816" 
d="M759 0h-702v256l378 990h-362v275h684v-236l-388 -1010h390v-275zM254 1730q0 79 39 115.5t122 36.5q86 0 125 -36.5t39 -115.5q0 -78 -39 -114t-125 -36q-83 0 -122 36.5t-39 113.5z" />
    <glyph glyph-name="zdotaccent" unicode="&#x17c;" horiz-adv-x="782" 
d="M718 0h-676v237l367 707h-339v258h647v-235l-364 -701h365v-266zM219 1409q0 79 39 115.5t122 36.5q86 0 125 -36.5t39 -115.5q0 -78 -39 -114t-125 -36q-83 0 -122 36.5t-39 113.5z" />
    <glyph glyph-name="Zcaron" unicode="&#x17d;" horiz-adv-x="816" 
d="M759 0h-702v256l378 990h-362v275h684v-236l-388 -1010h390v-275zM149 1846h221l47 -106l48 106h221l-138 -245h-260z" />
    <glyph glyph-name="zcaron" unicode="&#x17e;" horiz-adv-x="782" 
d="M718 0h-676v237l367 707h-339v258h647v-235l-364 -701h365v-266zM115 1525h221l47 -106l48 106h221l-138 -245h-260z" />
    <glyph glyph-name="longs" unicode="&#x17f;" horiz-adv-x="610" 
d="M17 943v259h105v8q0 75 7.5 132.5t28 109t54 85t87 53t126.5 19.5q92 0 198 -53l-50 -228q-59 17 -99 17q-43 0 -58.5 -30.5t-15.5 -104.5v-1210h-278v943h-105z" />
    <glyph glyph-name="AEacute" unicode="&#x1fc;" horiz-adv-x="1327" 
d="M738 1885h259l-191 -284h-200zM238 0h-284l379 1521h165l588 1v-276h-305v-337h236v-276h-236v-358h305v-275h-588v232h-209zM346 491h152v686z" />
    <glyph glyph-name="aeacute" unicode="&#x1fd;" horiz-adv-x="1383" 
d="M1015 406h275v-24q0 -93 -16.5 -162t-56 -126t-113.5 -86.5t-182 -29.5q-176 0 -256 86q-108 -86 -253 -86q-97 0 -164.5 27.5t-105 81t-54 121.5t-16.5 159t12.5 151t45.5 104t92 63.5t150 19.5q97 0 173 -21v132q0 30 -3 51t-11.5 43.5t-28.5 34.5t-50 12
q-92 0 -92 -129v-28h-277v24q0 90 17 159t57 125.5t113.5 86.5t179.5 30q157 0 233 -67q79 67 234 67q108 0 182.5 -30t115 -87.5t57.5 -127t17 -160.5v-273l-469 -94v-62q0 -29 3 -50.5t12.5 -44t30 -35t51.5 -12.5q97 0 97 130v27zM918 957q-25 0 -43 -8.5t-28.5 -22
t-16.5 -33.5t-7.5 -38t-1.5 -41v-121l194 43v89q0 26 -3 46t-12.5 41t-30 33t-51.5 12zM452 246q37 0 61 26.5t31.5 57.5t7.5 67v54q-43 26 -106 26q-29 0 -48 -9t-27.5 -27.5t-11 -36t-2.5 -44.5q0 -114 95 -114zM703 1564h259l-191 -284h-200z" />
    <glyph glyph-name="Oslashacute" unicode="&#x1fe;" horiz-adv-x="914" 
d="M383 1885h259l-191 -284h-200zM75 396v731q0 93 18.5 165.5t61 131t118.5 89.5t184 31q31 0 59 -3l32 121l255 -63l-44 -174q80 -101 80 -298v-732q0 -74 -11 -134.5t-38 -114t-70 -90t-109.5 -57.5t-153.5 -21q-33 0 -61 3l-25 -104l-262 43l44 179q-78 104 -78 297z
M457 254h1q1 -1 3 -1q95 3 95 142v732q0 28 -3.5 49.5t-13 44t-30.5 35t-52 12.5q-3 0 -4 1q-39 -1 -61 -24.5t-27.5 -51t-5.5 -66.5v-731q0 -29 3 -50.5t12.5 -44t30.5 -35t52 -12.5z" />
    <glyph glyph-name="oslashacute" unicode="&#x1ff;" horiz-adv-x="893" 
d="M460 1809h259l-191 -284h-200zM881 1411l-102 -205q18 -70 18 -155v-690q0 -87 -18 -154t-58.5 -120t-112 -80.5t-171.5 -27.5q-142 0 -228 58l-33 -69l-190 34l107 213q-16 63 -16 146v690q0 87 18 153.5t58.5 119t112 80.5t171.5 28q139 0 225 -56l35 70zM437 255
q1 0 4 -1q72 3 72 107v689q0 106 -76 106q-3 0 -4 1q-73 -3 -73 -106v-690q0 -106 77 -106z" />
    <glyph glyph-name="uni0218" unicode="&#x218;" horiz-adv-x="907" 
d="M839 428v-61q0 -194 -93.5 -291.5t-290.5 -97.5q-209 0 -297 97.5t-88 300.5v121h282v-119q0 -64 22 -94t78 -30q57 0 80 30t23 86v11q0 85 -16 129.5t-74 83.5l-142 97q-80 54 -127.5 100t-72 100t-31.5 105t-7 133v31q0 202 95 293t284 91q190 0 280 -92.5t90 -293.5
v-132h-283v138q-1 52 -21 78.5t-69 26.5q-95 0 -93 -113v-28q2 -120 88 -173l124 -74q147 -90 201 -193t58 -260zM378 -174q0 63 31 89.5t99 26.5q133 0 133 -141q0 -185 -109 -290l-100 57q34 44 47 72t19 71q-62 0 -91 27.5t-29 87.5z" />
    <glyph glyph-name="uni0219" unicode="&#x219;" horiz-adv-x="831" 
d="M780 367q0 -189 -83 -289t-282 -100q-86 0 -150.5 19.5t-106.5 54t-68.5 87.5t-37 115t-10.5 142h278q0 -71 20 -109t72 -38q38 0 57 24t19 56q0 33 -24 63t-62 55.5t-84 53t-92.5 60.5t-84.5 71t-62 92.5t-24 118.5q0 196 81.5 289t282.5 93q66 0 115.5 -9t96 -35
t76 -69.5t47 -115t17.5 -168.5l-278 1q0 128 -74 128q-45 0 -63.5 -24t-18.5 -55q0 -29 24.5 -56.5t63.5 -52t86.5 -51.5t94.5 -61t86 -73.5t63.5 -95.5t24.5 -121zM282 -171q0 63 31 89.5t99 26.5q133 0 133 -141q0 -185 -109 -290l-100 57q34 44 47 72t19 71
q-62 0 -91 27.5t-29 87.5z" />
    <glyph glyph-name="uni021A" unicode="&#x21a;" horiz-adv-x="781" 
d="M770 1246h-237v-1246h-285v1246h-238v275h760v-275zM253 -171q0 63 31 89.5t99 26.5q133 0 133 -141q0 -185 -109 -290l-100 57q34 44 47 72t19 71q-62 0 -91 27.5t-29 87.5z" />
    <glyph glyph-name="uni021B" unicode="&#x21b;" horiz-adv-x="683" 
d="M143 1587h279v-385h182v-259h-182v-566q0 -75 15 -105t58 -31q18 0 34 1.5t30.5 5t24.5 6t23 8.5t17.5 8t17.5 9l12 7l15 -233q-95 -75 -222 -75q-73 0 -127.5 19.5t-88 53t-53.5 85.5t-27.5 109t-7.5 132v566h-127v259h127v385zM210 -171q0 63 31 89.5t99 26.5
q133 0 133 -141q0 -185 -109 -290l-100 57q34 44 47 72t19 71q-62 0 -91 27.5t-29 87.5z" />
    <glyph glyph-name="uni0237" unicode="&#x237;" horiz-adv-x="412" 
d="M97 1202h278v-1210q0 -75 -7.5 -132.5t-28 -109t-54 -85t-87 -53t-126.5 -19.5q-128 0 -223 75l16 233q71 -44 158 -44q43 0 58.5 30.5t15.5 104.5v1210z" />
    <glyph glyph-name="circumflex" unicode="&#x2c6;" horiz-adv-x="423" 
d="M173 1280h-221l138 245h261l138 -245h-221l-48 106z" />
    <glyph glyph-name="caron" unicode="&#x2c7;" horiz-adv-x="682" 
d="M69 1525h221l47 -106l48 106h221l-138 -245h-260z" />
    <glyph glyph-name="breve" unicode="&#x2d8;" horiz-adv-x="736" 
d="M498 1568h155q-1 -61 -17 -111t-49 -91t-92 -64t-139 -23q-81 0 -140.5 23t-93 64t-48.5 91t-15 111h154q3 -31 5.5 -44.5t11 -35t22 -30.5t40 -16.5t64.5 -7.5q36 0 61 6.5t39.5 16.5t23.5 29t12 36t6 46z" />
    <glyph glyph-name="dotaccent" unicode="&#x2d9;" horiz-adv-x="477" 
d="M63 1409q0 79 39 115.5t122 36.5q86 0 125 -36.5t39 -115.5q0 -78 -39 -114t-125 -36q-83 0 -122 36.5t-39 113.5z" />
    <glyph glyph-name="ring" unicode="&#x2da;" horiz-adv-x="430" 
d="M-26 1482q0 114 56 166.5t176 52.5q123 0 179.5 -52.5t56.5 -166.5q0 -111 -56.5 -163.5t-179.5 -52.5q-120 0 -176 52.5t-56 163.5zM149 1483q0 -57 59 -57t59 57q0 28 -13.5 41.5t-45.5 13.5t-45.5 -13.5t-13.5 -41.5z" />
    <glyph glyph-name="ogonek" unicode="&#x2db;" horiz-adv-x="449" 
d="M351 -252l16 -151q-49 -55 -161 -55q-113 0 -185.5 58t-72.5 179q0 42 16 78.5t38 61.5t63 50.5t73.5 41t87.5 39.5l106 -50q-77 -48 -107.5 -91t-30.5 -105q0 -80 67 -80q33 0 50.5 4.5t39.5 19.5z" />
    <glyph glyph-name="tilde" unicode="&#x2dc;" horiz-adv-x="417" 
d="M386 1569l138 -38q-20 -109 -75.5 -175.5t-153.5 -66.5q-49 0 -111.5 32t-88.5 32q-34 0 -55.5 -16t-35.5 -56l-137 42q50 239 227 239q54 0 116.5 -32.5t87.5 -32.5q64 0 88 72z" />
    <glyph glyph-name="hungarumlaut" unicode="&#x2dd;" horiz-adv-x="397" 
d="M7 1564h243l-182 -284h-192zM294 1564h242l-182 -284h-191z" />
    <glyph glyph-name="tonos" unicode="&#x384;" horiz-adv-x="509" 
d="M339 1564h234l-33 -284h-175z" />
    <glyph glyph-name="dieresistonos" unicode="&#x385;" horiz-adv-x="455" 
d="M198 1714h225l-33 -284h-167zM-61 1422q0 69 30 100t94 31q66 0 96.5 -31t30.5 -100q0 -67 -30.5 -98.5t-96.5 -31.5q-64 0 -94 31.5t-30 98.5zM419 1422q0 69 30 100t94 31q67 0 96.5 -31t29.5 -100q0 -67 -30 -98.5t-96 -31.5q-64 0 -94 31.5t-30 98.5z" />
    <glyph glyph-name="Alphatonos" unicode="&#x386;" horiz-adv-x="916" 
d="M9 0l245 1523h373l245 -1523h-285l-30 232h-234l-29 -232h-285zM440 1155l-84 -664h168zM-55 1522h234l-33 -284h-175z" />
    <glyph glyph-name="Epsilontonos" unicode="&#x388;" horiz-adv-x="858" 
d="M780 0h-673v1521l673 1v-276h-390v-337h321v-276h-321v-358h390v-275zM-170 1523h234l-33 -284h-175z" />
    <glyph glyph-name="Etatonos" unicode="&#x389;" horiz-adv-x="1011" 
d="M392 0h-284v1522h284v-617h228v617h283v-1522h-283v630h-228v-630zM-162 1518h234l-33 -284h-175z" />
    <glyph glyph-name="Iotatonos" unicode="&#x38a;" horiz-adv-x="500" 
d="M392 0h-284v1522h284v-1522zM141 1892h234l-33 -284h-175z" />
    <glyph glyph-name="Omicrontonos" unicode="&#x38c;" 
d="M75 396v731q0 93 18.5 165.5t61 131t118.5 89.5t184 31q87 0 153.5 -21t109.5 -57.5t70 -90t38 -114t11 -134.5v-732q0 -74 -11 -134.5t-38 -114t-70 -90t-109.5 -57.5t-153.5 -21t-153.5 21t-109.5 57.5t-70 90.5t-38 114.5t-11 134.5zM457 254h1q1 -1 3 -1q95 3 95 142
v732q0 28 -3.5 49.5t-13 44t-30.5 35t-52 12.5q-3 0 -4 1q-39 -1 -61 -24.5t-27.5 -51t-5.5 -66.5v-731q0 -29 3 -50.5t12.5 -44t30.5 -35t52 -12.5zM-151 1586h234l-33 -284h-175z" />
    <glyph glyph-name="Upsilontonos" unicode="&#x38e;" horiz-adv-x="1201" 
d="M1195 1521l-294 -985v-536h-283v536l-308 985h311l141 -598l156 598h277zM1 1564h234l-33 -284h-175z" />
    <glyph glyph-name="Omegatonos" unicode="&#x38f;" horiz-adv-x="926" 
d="M430 0h-333v272h101l-3 97q-65 51 -89 140.5t-24 217.5v400q0 74 11 134.5t38 114t70 90t109 57.5t153 21v-1q0 1 1 1q87 0 153 -21t109 -57.5t70 -90t38 -114t11 -134.5v-400q0 -126 -24.5 -215.5t-88.5 -141.5l-3 -98h101v-272h-333v577q19 0 32 9t19.5 20.5t9.5 34
t3.5 36t0.5 40.5v10v400q0 39 -5.5 66.5t-28.5 51t-64 23.5q-3 0 -4 1q-95 -3 -95 -142v-399v-10q0 -26 0.5 -40t3.5 -36.5t9.5 -34t19.5 -21t32 -9.5v-577zM-120 1564h234l-33 -284h-175z" />
    <glyph glyph-name="iotadieresistonos" unicode="&#x390;" horiz-adv-x="468" 
d="M373 0h-277v1202h277v-1202zM123 1694h225l-33 -284h-167zM-136 1402q0 69 30 100t94 31q66 0 96.5 -31t30.5 -100q0 -67 -30.5 -98.5t-96.5 -31.5q-64 0 -94 31.5t-30 98.5zM344 1402q0 69 30 100t94 31q67 0 96.5 -31t29.5 -100q0 -67 -30 -98.5t-96 -31.5
q-64 0 -94 31.5t-30 98.5z" />
    <glyph glyph-name="Alpha" unicode="&#x391;" horiz-adv-x="916" 
d="M9 0l245 1523h373l245 -1523h-285l-30 232h-234l-29 -232h-285zM440 1155l-84 -664h168z" />
    <glyph glyph-name="Beta" unicode="&#x392;" horiz-adv-x="959" 
d="M596 387v167q0 51 -25 82.5t-78 31.5h-101v-393h101q56 0 80 26t23 86zM585 1057l-2 90q-2 58 -25 85.5t-77 27.5h-89v-334h72q69 0 95.5 29.5t25.5 101.5zM880 554v-162q0 -205 -94.5 -298.5t-289.5 -93.5h-388v1522h382q195 0 286.5 -93t91.5 -258v-85
q0 -121 -31.5 -188t-98.5 -89q67 -21 104.5 -86.5t37.5 -168.5z" />
    <glyph glyph-name="Gamma" unicode="&#x393;" horiz-adv-x="766" 
d="M766 1251h-389v-1251h-283v1526h672v-275z" />
    <glyph glyph-name="uni0394" unicode="&#x394;" horiz-adv-x="916" 
d="M882 0h-868l230 1522h412zM451 1139l-112 -863h219z" />
    <glyph glyph-name="Epsilon" unicode="&#x395;" horiz-adv-x="858" 
d="M780 0h-673v1521l673 1v-276h-390v-337h321v-276h-321v-358h390v-275z" />
    <glyph glyph-name="Zeta" unicode="&#x396;" horiz-adv-x="816" 
d="M759 0h-702v256l378 990h-362v275h684v-236l-388 -1010h390v-275z" />
    <glyph glyph-name="Eta" unicode="&#x397;" horiz-adv-x="1011" 
d="M392 0h-284v1522h284v-617h228v617h283v-1522h-283v630h-228v-630z" />
    <glyph glyph-name="Theta" unicode="&#x398;" horiz-adv-x="914" 
d="M75 396v731q0 93 18.5 165.5t61 131t118.5 89.5t184 31q87 0 153.5 -21t109.5 -57.5t70 -90t38 -114t11 -134.5v-732q0 -74 -11 -134.5t-38 -114t-70 -90t-109.5 -57.5t-153.5 -21t-153.5 21t-109.5 57.5t-70 90.5t-38 114.5t-11 134.5zM359 1127v-232h197v232
q0 28 -3.5 49.5t-13 44t-30.5 35t-52 12.5q-3 0 -4 1q-39 -1 -61 -24.5t-27.5 -51t-5.5 -66.5zM457 254h1q1 -1 3 -1q95 3 95 142v225h-197v-224q0 -29 3 -50.5t12.5 -44t30.5 -35t52 -12.5z" />
    <glyph glyph-name="Iota" unicode="&#x399;" horiz-adv-x="500" 
d="M392 0h-284v1522h284v-1522z" />
    <glyph glyph-name="Kappa" unicode="&#x39a;" horiz-adv-x="964" 
d="M392 0h-284v1522h284v-617h67l192 616h301l-233 -741l249 -780h-302l-199 630h-75v-630z" />
    <glyph glyph-name="Lambda" unicode="&#x39b;" horiz-adv-x="881" 
d="M584 0l-141 1139l-147 -1139h-290l231 1522h411l226 -1522h-290z" />
    <glyph glyph-name="Mu" unicode="&#x39c;" horiz-adv-x="1266" 
d="M518 172l-152 778l26 -950h-284v1522h355l172 -832l171 832h353v-1522h-284l26 936l-149 -764h-234z" />
    <glyph glyph-name="Nu" unicode="&#x39d;" horiz-adv-x="1011" 
d="M392 0h-284v1522h339l226 -818l-8 818h283l1 -1522h-312l-255 861z" />
    <glyph glyph-name="Xi" unicode="&#x39e;" horiz-adv-x="845" 
d="M81 1251v274h682v-274h-682zM148 633v276h546v-276h-546zM81 0l-2 275h684v-275h-682z" />
    <glyph glyph-name="Omicron" unicode="&#x39f;" 
d="M75 396v731q0 93 18.5 165.5t61 131t118.5 89.5t184 31q87 0 153.5 -21t109.5 -57.5t70 -90t38 -114t11 -134.5v-732q0 -74 -11 -134.5t-38 -114t-70 -90t-109.5 -57.5t-153.5 -21t-153.5 21t-109.5 57.5t-70 90.5t-38 114.5t-11 134.5zM457 254h1q1 -1 3 -1q95 3 95 142
v732q0 28 -3.5 49.5t-13 44t-30.5 35t-52 12.5q-3 0 -4 1q-39 -1 -61 -24.5t-27.5 -51t-5.5 -66.5v-731q0 -29 3 -50.5t12.5 -44t30.5 -35t52 -12.5z" />
    <glyph glyph-name="Pi" unicode="&#x3a0;" horiz-adv-x="982" 
d="M377 0h-283v1522h795v-1522h-283v1246h-229v-1246z" />
    <glyph glyph-name="Rho" unicode="&#x3a1;" horiz-adv-x="940" 
d="M846 1141v-257q0 -110 -27 -187t-79.5 -120.5t-121 -63t-160.5 -19.5h-81v-494h-283v1522h366q90 0 158.5 -20t120.5 -63.5t79.5 -118.5t27.5 -179zM561 884v257q0 54 -23 79.5t-78 25.5h-83v-479h77q59 0 83 27t24 90z" />
    <glyph glyph-name="Sigma" unicode="&#x3a3;" horiz-adv-x="775" 
d="M575 812v-102l-228 -435h391v-275h-702v256l245 506l-236 504v256h683v-275h-372z" />
    <glyph glyph-name="Tau" unicode="&#x3a4;" horiz-adv-x="781" 
d="M770 1246h-237v-1246h-285v1246h-238v275h760v-275z" />
    <glyph glyph-name="Upsilon" unicode="&#x3a5;" horiz-adv-x="895" 
d="M890 1521l-294 -985v-536h-283v536l-308 985h311l141 -598l156 598h277z" />
    <glyph glyph-name="Phi" unicode="&#x3a6;" horiz-adv-x="1209" 
d="M746 0h-283v118q-108 0 -184.5 31t-118.5 89.5t-60.5 130t-18.5 165.5v455q0 74 11 134.5t38 114t70 89.5t109.5 56.5t153.5 20.5v118h283v-118q108 0 184.5 -31t118.5 -89t60.5 -130t18.5 -166v-454q0 -94 -18.5 -166t-61 -130t-118.5 -89t-184 -31v-118zM463 394v735
q-99 0 -99 -140v-455q0 -28 3.5 -49.5t13 -44t30.5 -34.5t52 -12zM746 1128v-735q31 0 51.5 12t30 34t13 44t3.5 51v454q0 29 -3 50t-12.5 43.5t-30.5 34.5t-52 12z" />
    <glyph glyph-name="Chi" unicode="&#x3a7;" horiz-adv-x="948" 
d="M943 0h-314l-161 500l-148 -500h-314l279 787l-255 735h311l138 -445l135 445h310l-263 -735z" />
    <glyph glyph-name="Psi" unicode="&#x3a8;" horiz-adv-x="1209" 
d="M747 0h-284v412q-108 0 -184 31t-118 89t-60.5 130t-18.5 166v695h283v-695q0 -29 3.5 -50.5t13 -44t30 -34.5t51.5 -12v835h284v-835q31 0 51.5 12t30 33.5t13 43.5t3.5 51v696h284v-696q0 -94 -18.5 -166t-61 -130t-118.5 -88.5t-184 -30.5v-412z" />
    <glyph glyph-name="uni03A9" unicode="&#x3a9;" horiz-adv-x="926" 
d="M430 0h-333v272h101l-3 97q-65 51 -89 140.5t-24 217.5v400q0 74 11 134.5t38 114t70 90t109 57.5t153 21v-1q0 1 1 1q87 0 153 -21t109 -57.5t70 -90t38 -114t11 -134.5v-400q0 -126 -24.5 -215.5t-88.5 -141.5l-3 -98h101v-272h-333v577q19 0 32 9t19.5 20.5t9.5 34
t3.5 36t0.5 40.5v10v400q0 39 -5.5 66.5t-28.5 51t-64 23.5q-3 0 -4 1q-95 -3 -95 -142v-399v-10q0 -26 0.5 -40t3.5 -36.5t9.5 -34t19.5 -21t32 -9.5v-577z" />
    <glyph glyph-name="Iotadieresis" unicode="&#x3aa;" horiz-adv-x="500" 
d="M392 0h-284v1522h284v-1522zM-25 1742q0 69 30 100t95 31q66 0 96 -31t30 -100q0 -67 -30 -98.5t-96 -31.5q-65 0 -95 31.5t-30 98.5zM268 1742q0 69 30 100t94 31q67 0 97 -31t30 -100q0 -67 -30.5 -98.5t-96.5 -31.5q-64 0 -94 31.5t-30 98.5z" />
    <glyph glyph-name="Upsilondieresis" unicode="&#x3ab;" horiz-adv-x="895" 
d="M890 1521l-294 -985v-536h-283v536l-308 985h311l141 -598l156 598h277zM184 1742q0 69 30 100t95 31q66 0 96 -31t30 -100q0 -67 -30 -98.5t-96 -31.5q-65 0 -95 31.5t-30 98.5zM477 1742q0 69 30 100t94 31q67 0 97 -31t30 -100q0 -67 -30.5 -98.5t-96.5 -31.5
q-64 0 -94 31.5t-30 98.5z" />
    <glyph glyph-name="alphatonos" unicode="&#x3ac;" horiz-adv-x="918" 
d="M827 0h-276v100q-48 -122 -163 -122q-86 0 -146.5 29t-93.5 84t-47.5 124.5t-14.5 161.5q-1 37 -1 110v230q0 73 1 110q0 93 14 161.5t46.5 124t92 84t145.5 28.5q116 0 167 -126v103h276v-1202zM457 246q80 0 92 121q2 86 2 127v270q0 5 -0.5 25.5t-2 34.5t-4 35.5
t-9 36.5t-16 29.5t-25.5 22t-37 7.5q-84 0 -91 -101q-3 -48 -3 -149v-208q0 -114 8 -162q12 -89 86 -89zM387 1564h234l-33 -284h-175z" />
    <glyph glyph-name="epsilontonos" unicode="&#x3ad;" horiz-adv-x="905" 
d="M549 377v26h276v-23q0 -73 -9.5 -130.5t-35 -109.5t-66 -86.5t-106 -55t-152.5 -20.5q-108 0 -183 31t-116 89.5t-58.5 130t-17.5 165.5v433q0 73 11 131.5t37.5 109t68.5 84.5t106.5 53.5t148.5 19.5q108 0 182.5 -30t115 -86.5t57.5 -125.5t17 -159v-24h-276v28
q0 129 -96 129q-31 0 -51 -12t-28.5 -34.5t-11.5 -43.5t-3 -51v-94l310 6v-252l-310 4q0 -83 1 -124q7 -107 93 -107q96 0 96 128zM345 1564h234l-33 -284h-175z" />
    <glyph glyph-name="etatonos" unicode="&#x3ae;" horiz-adv-x="929" 
d="M359 1564h234l-33 -284h-175zM837 -367h-278v1182q0 31 -2.5 50.5t-10.5 43t-28 35.5t-51 12q-95 0 -95 -166v-790h-276v1202h276v-108q27 56 82 93t117 37q67 0 115.5 -21.5t77 -56.5t45.5 -90.5t22.5 -112.5t5.5 -134v-1176z" />
    <glyph glyph-name="iotatonos" unicode="&#x3af;" horiz-adv-x="468" 
d="M373 0h-277v1202h277v-1202zM135 1589h234l-33 -284h-175z" />
    <glyph glyph-name="upsilondieresistonos" unicode="&#x3b0;" horiz-adv-x="902" 
d="M555 1202h282v-835q0 -94 -18.5 -162.5t-61 -121t-117.5 -79t-183 -26.5q-107 1 -181 28t-116.5 79t-60.5 120.5t-18 161.5v835h282v-834q0 -56 19.5 -85.5t79.5 -29.5q56 2 74.5 31t18.5 84v834zM355 1694h225l-33 -284h-167zM96 1402q0 69 30 100t94 31q66 0 96.5 -31
t30.5 -100q0 -67 -30.5 -98.5t-96.5 -31.5q-64 0 -94 31.5t-30 98.5zM576 1402q0 69 30 100t94 31q67 0 96.5 -31t29.5 -100q0 -67 -30 -98.5t-96 -31.5q-64 0 -94 31.5t-30 98.5z" />
    <glyph glyph-name="alpha" unicode="&#x3b1;" horiz-adv-x="918" 
d="M827 0h-276v100q-48 -122 -163 -122q-86 0 -146.5 29t-93.5 84t-47.5 124.5t-14.5 161.5q-1 37 -1 110v230q0 73 1 110q0 93 14 161.5t46.5 124t92 84t145.5 28.5q116 0 167 -126v103h276v-1202zM457 246q80 0 92 121q2 86 2 127v270q0 5 -0.5 25.5t-2 34.5t-4 35.5
t-9 36.5t-16 29.5t-25.5 22t-37 7.5q-84 0 -91 -101q-3 -48 -3 -149v-208q0 -114 8 -162q12 -89 86 -89z" />
    <glyph glyph-name="beta" unicode="&#x3b2;" horiz-adv-x="880" 
d="M821 423q0 -243 -89.5 -344t-286.5 -101h-23v276h23q45 0 69 29t24 98v143q0 123 -114 123h-60v-1013h-283v1513q0 205 85.5 301t273.5 96q186 0 272.5 -100.5t86.5 -317.5q0 -163 -28 -236.5t-102 -103.5q88 -32 120 -121.5t32 -241.5zM364 1162v-248h62q50 0 70 37
t20 139v49q0 24 -1 40t-6 34.5t-13.5 29.5t-24.5 18.5t-38 7.5q-41 0 -55 -27.5t-14 -79.5z" />
    <glyph glyph-name="gamma" unicode="&#x3b3;" horiz-adv-x="855" 
d="M562 -374h-278v400h278v-400zM565 1204h285l-235 -1204h-375l-235 1204h285l137 -900z" />
    <glyph glyph-name="delta" unicode="&#x3b4;" 
d="M208 1339v230h610v-230h-279q0 -3 99 -112q9 -10 43.5 -47.5t55.5 -61.5h-3q85 -101 85 -308v-416q0 -95 -16.5 -166t-56 -130t-113.5 -89.5t-182 -30.5t-183.5 31t-116.5 89.5t-58.5 130t-17.5 165.5v415q0 161 53 263.5t182 136.5zM447 957q-31 0 -51 -12t-28.5 -34.5
t-11.5 -43.5t-3 -51v-427q0 -29 2.5 -49.5t11.5 -43.5t29 -35t51 -12q30 0 50 11.5t28.5 34t11.5 43.5t3 51v427q0 30 -2.5 50.5t-11 43.5t-28.5 35t-51 12z" />
    <glyph glyph-name="epsilon" unicode="&#x3b5;" horiz-adv-x="905" 
d="M549 377v26h276v-23q0 -73 -9.5 -130.5t-35 -109.5t-66 -86.5t-106 -55t-152.5 -20.5q-108 0 -183 31t-116 89.5t-58.5 130t-17.5 165.5v433q0 73 11 131.5t37.5 109t68.5 84.5t106.5 53.5t148.5 19.5q108 0 182.5 -30t115 -86.5t57.5 -125.5t17 -159v-24h-276v28
q0 129 -96 129q-31 0 -51 -12t-28.5 -34.5t-11.5 -43.5t-3 -51v-94l310 6v-252l-310 4q0 -83 1 -124q7 -107 93 -107q96 0 96 128z" />
    <glyph glyph-name="zeta" unicode="&#x3b6;" horiz-adv-x="741" 
d="M5 924v278h563v-278l-239 -512q-20 -37 -20 -76q0 -41 27 -65.5t76 -29.5q1 0 3 -2q179 -27 254.5 -101t75.5 -203q0 -38 -4 -71l-26 -231h-276l24 231q5 52 -19.5 81t-86.5 36v-1q-166 23 -256 96.5t-90 187.5q0 78 43 168l230 492h-279z" />
    <glyph glyph-name="eta" unicode="&#x3b7;" horiz-adv-x="929" 
d="M837 -367h-278v1182q0 31 -2.5 50.5t-10.5 43t-28 35.5t-51 12q-95 0 -95 -166v-790h-276v1202h276v-108q27 56 82 93t117 37q67 0 115.5 -21.5t77 -56.5t45.5 -90.5t22.5 -112.5t5.5 -134v-1176z" />
    <glyph glyph-name="theta" unicode="&#x3b8;" 
d="M75 394v735q0 95 16.5 166t56.5 129.5t114 89t182 30.5q87 0 152.5 -21t106 -56.5t66 -89.5t35 -113.5t9.5 -134.5v-735q0 -75 -10 -134.5t-35 -113.5t-66 -90t-106 -57t-152 -21q-108 0 -182.5 31t-114 90t-56 129.5t-16.5 165.5zM444 1269q-29 0 -47.5 -11.5
t-26.5 -34.5t-10 -43t-2 -51v-234h173v234q0 30 -2 50t-10 43t-26.5 35t-48.5 12zM444 254q24 0 41 9t25.5 21t13.5 33t6 37t1 41v225h-173v-226q0 -24 1 -39.5t5.5 -36.5t13 -33.5t25.5 -21.5t41 -9z" />
    <glyph glyph-name="iota" unicode="&#x3b9;" horiz-adv-x="468" 
d="M71 1445q0 70 39 103t122 33q84 0 123.5 -33t39.5 -103t-39 -102.5t-124 -32.5q-83 0 -122 32.5t-39 102.5zM373 0h-277v1202h277v-1202z" />
    <glyph glyph-name="kappa" unicode="&#x3ba;" horiz-adv-x="902" 
d="M94 1201h277v-457h72l146 458h280l-215 -602l243 -600h-306l-152 470h-68v-470h-277v1201z" />
    <glyph glyph-name="lambda" unicode="&#x3bb;" horiz-adv-x="859" 
d="M293 0h-286l202 1204h184q-12 37 -31 65.5t-43.5 48t-44 30.5t-46.5 23l119 198q115 -44 205.5 -158t113.5 -277l15 -113l171 -1021h-285l-106 762h-4l-23 174h-11z" />
    <glyph glyph-name="uni03BC" unicode="&#x3bc;" horiz-adv-x="924" 
d="M569 1202h278v-809q0 -75 -7.5 -134t-28 -113t-54 -90t-87 -57t-124.5 -21q-117 0 -164 128v-471h-276v1567h276v-791q0 -165 93 -165q31 0 51.5 12t29 35t11 43.5t2.5 50.5v815z" />
    <glyph glyph-name="nu" unicode="&#x3bd;" horiz-adv-x="863" 
d="M569 1204h285l-235 -1204h-375l-235 1204h285l137 -900z" />
    <glyph glyph-name="xi" unicode="&#x3be;" horiz-adv-x="922" 
d="M379 1127v-90q0 -76 14.5 -102.5t62.5 -26.5h154v-267h-153q-114 0 -114 -123v-143q0 -68 29.5 -100t76.5 -32l136 -55l14 -210h-163q-198 0 -286.5 98t-88.5 341q0 146 38 238t128 125q-131 53 -131 257v91q0 75 9.5 134t34.5 113.5t65.5 90.5t105 57t150.5 21l1 1
q86 0 151.5 -21t106 -57t65.5 -89.5t34.5 -111.5t9.5 -131v-50h-284v49q0 28 -2.5 47.5t-10 42t-25.5 34t-45 11.5q-24 0 -41 -9.5t-25 -20.5t-12 -34.5t-4.5 -36t-0.5 -41.5zM780 -367h-277l25 231q2 22 2 30q0 42 -19.5 63t-71.5 21q-17 0 -17 58q0 35 6 86t12.5 86
t7.5 35q186 0 273.5 -85t87.5 -229q0 -34 -4 -65z" />
    <glyph glyph-name="omicron" unicode="&#x3bf;" 
d="M75 394v415q0 95 17 166.5t57.5 130t115 89t182.5 30.5q87 0 152.5 -21t106.5 -57t67 -89.5t36 -113t10 -134.5v-416q0 -95 -16.5 -166t-56 -130t-113.5 -89.5t-182 -30.5t-183.5 31t-116.5 89.5t-58.5 130t-17.5 165.5zM447 957q-31 0 -51 -12t-28.5 -34.5t-11.5 -43.5
t-3 -51v-427q0 -29 2.5 -49.5t11.5 -43.5t29 -35t51 -12q30 0 50 11.5t28.5 34t11.5 43.5t3 51v427q0 30 -2.5 50.5t-11 43.5t-28.5 35t-51 12z" />
    <glyph glyph-name="pi" unicode="&#x3c0;" horiz-adv-x="1133" 
d="M1069 933h-152v-934h-276v934h-188v-934h-276v934h-155v269h1047v-269z" />
    <glyph glyph-name="rho" unicode="&#x3c1;" horiz-adv-x="918" 
d="M372 -367h-277v974h-1v202q0 95 17 166.5t57.5 130t115 89t182.5 30.5q0 -1 1 -2q0 1 1 2q177 0 273.5 -115.5t96.5 -299.5v-416q0 -76 -7.5 -135t-27.5 -113.5t-53 -90t-86.5 -56.5t-124.5 -21q-120 0 -167 129v-474zM467 249q30 0 50 11.5t29 34t12 43.5t3 51v427
q0 29 -3 50t-11.5 44t-28.5 35t-51 12h-1q-31 0 -51 -12t-28.5 -34.5t-11.5 -43.5t-3 -51v-173h1v-231q0 -163 94 -163z" />
    <glyph glyph-name="sigma1" unicode="&#x3c2;" horiz-adv-x="905" 
d="M465 243l-9 -264q-108 0 -183.5 30.5t-116.5 89t-58.5 130t-17.5 165.5v433q0 73 11 131.5t37.5 109t68.5 84.5t106.5 53.5t148.5 19.5q108 0 182.5 -30t115 -86.5t57.5 -125.5t17 -159v-24h-275v28q0 129 -97 129q-31 0 -51 -12t-28.5 -34.5t-11.5 -43.5t-3 -51v-273
q0 -124 1 -187q3 -44 28.5 -78.5t77.5 -34.5zM796 -367h-277l25 231q2 22 2 30q0 42 -19.5 63t-71.5 21q-17 0 -17 58q0 35 6 86t12.5 86t7.5 35q186 0 273.5 -85t87.5 -229q0 -34 -4 -65z" />
    <glyph glyph-name="sigma" unicode="&#x3c3;" 
d="M879 1225v-269l-100 24q40 -76 40 -214v-372q0 -95 -16.5 -166t-56 -130t-113.5 -89.5t-182 -30.5t-183.5 31t-116.5 89.5t-58.5 130t-17.5 165.5v415q0 94 16.5 165t56 129.5t112.5 89.5t179 32h440zM447 957q-31 0 -51 -12t-28.5 -34.5t-11.5 -43.5t-3 -51v-427
q0 -29 2.5 -49.5t11.5 -43.5t29 -35t51 -12q30 0 50 11.5t28.5 34t11.5 43.5t3 51v427q0 30 -2.5 50.5t-11 43.5t-28.5 35t-51 12z" />
    <glyph glyph-name="tau" unicode="&#x3c4;" horiz-adv-x="720" 
d="M712 933h-213v-934h-275v934h-216v269h704v-269z" />
    <glyph glyph-name="upsilon" unicode="&#x3c5;" horiz-adv-x="902" 
d="M555 1202h282v-835q0 -94 -18.5 -162.5t-61 -121t-117.5 -79t-183 -26.5q-107 1 -181 28t-116.5 79t-60.5 120.5t-18 161.5v835h282v-834q0 -56 19.5 -85.5t79.5 -29.5q56 2 74.5 31t18.5 84v834z" />
    <glyph glyph-name="phi" unicode="&#x3c6;" horiz-adv-x="1157" 
d="M717 -367h-278v346q-103 3 -175 34.5t-111.5 89.5t-56 128.5t-16.5 162.5v415q0 74 10 133t34.5 112.5t64.5 89.5t103 57.5t147 22.5v345h278v-345q104 -2 176.5 -33t111.5 -89.5t55.5 -128.5t16.5 -163v-416q0 -75 -9.5 -134t-34 -113t-64.5 -89.5t-103.5 -57
t-148.5 -22.5v-345zM799 389v427q0 28 -2.5 48t-10 42.5t-25 35t-44.5 14.5v-707q26 3 43.5 15.5t25.5 34t10.5 42t2.5 48.5zM358 816v-427q0 -28 2.5 -47.5t10 -41.5t24.5 -35t44 -16v707q-35 -4 -54 -27t-23 -48.5t-4 -64.5z" />
    <glyph glyph-name="chi" unicode="&#x3c7;" horiz-adv-x="831" 
d="M826 0h-289l-128 363l-135 -363h-270l238 625l-225 577h291l112 -331l124 331h269l-225 -577z" />
    <glyph glyph-name="psi" unicode="&#x3c8;" horiz-adv-x="1136" 
d="M81 1202h282v-834q0 -48 13 -75t52 -37v1313h278v-1313q40 8 53.5 36t13.5 76v834h283v-835q0 -91 -17 -157.5t-56.5 -118.5t-108.5 -80t-168 -32v-347h-278v347q-191 8 -269 106t-78 282v835z" />
    <glyph glyph-name="omega" unicode="&#x3c9;" horiz-adv-x="1384" 
d="M554 779h276v-349q0 -41 1.5 -64.5t7 -49t16.5 -38.5t30 -21.5t48 -8.5q28 0 45.5 8.5t27.5 20.5t14.5 43t5.5 56.5t1 80.5v274q0 109 -51.5 166t-119.5 57l1 269q223 -6 335 -124t112 -367l-1 -271q0 -42 -0.5 -69t-4 -70.5t-10.5 -73t-20 -69t-31 -65.5t-46.5 -54
t-64 -44.5t-85 -27t-108.5 -10.5q-153 0 -246 113q-93 -113 -236 -113q-59 0 -108.5 10.5t-85 27t-64 44.5t-46.5 54t-31 65.5t-20 69t-10.5 73t-4 70.5t-0.5 69l-1 271q0 250 111 368.5t335 124.5l1 -269q-67 0 -118.5 -58t-51.5 -167v-274q0 -49 0.5 -68.5t3 -50.5
t8 -42.5t16 -25.5t26.5 -18t40 -4q29 0 48 8.5t30 21.5t16.5 38.5t7 49t1.5 64.5v349z" />
    <glyph glyph-name="iotadieresis" unicode="&#x3ca;" horiz-adv-x="468" 
d="M373 0h-277v1202h277v-1202zM-39 1445q0 69 30 100t95 31q66 0 96 -31t30 -100q0 -67 -30 -98.5t-96 -31.5q-65 0 -95 31.5t-30 98.5zM254 1445q0 69 30 100t94 31q67 0 97 -31t30 -100q0 -67 -30.5 -98.5t-96.5 -31.5q-64 0 -94 31.5t-30 98.5z" />
    <glyph glyph-name="upsilondieresis" unicode="&#x3cb;" horiz-adv-x="902" 
d="M555 1202h282v-835q0 -94 -18.5 -162.5t-61 -121t-117.5 -79t-183 -26.5q-107 1 -181 28t-116.5 79t-60.5 120.5t-18 161.5v835h282v-834q0 -56 19.5 -85.5t79.5 -29.5q56 2 74.5 31t18.5 84v834zM188 1433q0 69 30 100t95 31q66 0 96 -31t30 -100q0 -67 -30 -98.5
t-96 -31.5q-65 0 -95 31.5t-30 98.5zM481 1433q0 69 30 100t94 31q67 0 97 -31t30 -100q0 -67 -30.5 -98.5t-96.5 -31.5q-64 0 -94 31.5t-30 98.5z" />
    <glyph glyph-name="omicrontonos" unicode="&#x3cc;" 
d="M312 1564h259l-33 -284h-200zM75 394v415q0 95 17 166.5t57.5 130t115 89t182.5 30.5q87 0 152.5 -21t106.5 -57t67 -89.5t36 -113t10 -134.5v-416q0 -95 -16.5 -166t-56 -130t-113.5 -89.5t-182 -30.5t-183.5 31t-116.5 89.5t-58.5 130t-17.5 165.5zM447 957
q-31 0 -51 -12t-28.5 -34.5t-11.5 -43.5t-3 -51v-427q0 -29 2.5 -49.5t11.5 -43.5t29 -35t51 -12q30 0 50 11.5t28.5 34t11.5 43.5t3 51v427q0 30 -2.5 50.5t-11 43.5t-28.5 35t-51 12z" />
    <glyph glyph-name="upsilontonos" unicode="&#x3cd;" horiz-adv-x="902" 
d="M335 1564h259l-31 -284h-200zM555 1202h282v-835q0 -94 -18.5 -162.5t-61 -121t-117.5 -79t-183 -26.5q-107 1 -181 28t-116.5 79t-60.5 120.5t-18 161.5v835h282v-834q0 -56 19.5 -85.5t79.5 -29.5q56 2 74.5 31t18.5 84v834z" />
    <glyph glyph-name="omegatonos" unicode="&#x3ce;" horiz-adv-x="1398" 
d="M544 1564h259l-31 -284h-200zM545 779h276v-349q0 -41 1.5 -64.5t7 -49t16.5 -38.5t30 -21.5t48 -8.5q28 0 45.5 8.5t27.5 20.5t14.5 43t5.5 56.5t1 80.5v274q0 109 -51.5 166t-119.5 57l1 269q223 -6 335 -124t112 -367l-1 -271q0 -42 -0.5 -69t-4 -70.5t-10.5 -73
t-20 -69t-31 -65.5t-46.5 -54t-64 -44.5t-85 -27t-108.5 -10.5q-153 0 -246 113q-93 -113 -236 -113q-59 0 -108.5 10.5t-85 27t-64 44.5t-46.5 54t-31 65.5t-20 69t-10.5 73t-4 70.5t-0.5 69l-1 271q0 250 111 368.5t335 124.5l1 -269q-67 0 -118.5 -58t-51.5 -167v-274
q0 -49 0.5 -68.5t3 -50.5t8 -42.5t16 -25.5t26.5 -18t40 -4q29 0 48 8.5t30 21.5t16.5 38.5t7 49t1.5 64.5v349z" />
    <glyph glyph-name="uni0401" unicode="&#x401;" horiz-adv-x="858" 
d="M780 0h-673v1521l673 1v-276h-390v-337h321v-276h-321v-358h390v-275zM161 1742q0 69 30 100t95 31q66 0 96 -31t30 -100q0 -67 -30 -98.5t-96 -31.5q-65 0 -95 31.5t-30 98.5zM454 1742q0 69 30 100t94 31q67 0 97 -31t30 -100q0 -67 -30.5 -98.5t-96.5 -31.5
q-64 0 -94 31.5t-30 98.5z" />
    <glyph glyph-name="uni0402" unicode="&#x402;" horiz-adv-x="1075" 
d="M766 1246h-238v-237q45 123 163 123q89 0 150 -30.5t93.5 -90t46 -130t13.5 -165.5v-322q0 -76 -7.5 -135t-27.5 -113.5t-53 -90t-86.5 -56.5t-124.5 -21q-119 0 -167 127v-105h-285v1246h-237v275h760v-275zM622 864q-94 0 -94 -150v-302q0 -163 94 -163q30 0 50 11.5
t29 34t12 43.5t3 51v334q0 29 -2.5 50t-11.5 44t-29 35t-51 12z" />
    <glyph glyph-name="uni0403" unicode="&#x403;" horiz-adv-x="818" 
d="M94 1522h653v-272h-370v-1250h-283v1522zM701 1883l-191 -284h-200l132 284h259z" />
    <glyph glyph-name="uni0404" unicode="&#x404;" horiz-adv-x="925" 
d="M843 1026h-283v108q0 135 -97 135q-99 0 -99 -142v-218h340v-276h-340v-237q0 -39 5.5 -67t28.5 -51.5t64 -23.5q98 0 98 132v111h283v-112q0 -406 -380 -406v-1q-108 0 -184.5 31t-118.5 90t-60.5 131t-18.5 166v731q0 94 18 166t60 130.5t118 89.5t184 31l1 1
q381 0 381 -410v-109z" />
    <glyph glyph-name="uni0405" unicode="&#x405;" horiz-adv-x="910" 
d="M816 428v-61q0 -194 -93.5 -291.5t-290.5 -97.5q-209 0 -297 97.5t-88 300.5v121h282v-119q0 -64 22 -94t78 -30q57 0 80 30t23 86v11q0 85 -16 129.5t-74 83.5l-142 97q-80 54 -127.5 100t-72 100t-31.5 105t-7 133v31q0 202 95 293t284 91q190 0 280 -92.5t90 -293.5
v-132h-283v138q-1 52 -21 78.5t-69 26.5q-95 0 -93 -113v-28q2 -120 88 -173l124 -74q147 -90 201 -193t58 -260z" />
    <glyph glyph-name="uni0406" unicode="&#x406;" horiz-adv-x="500" 
d="M392 0h-284v1522h284v-1522z" />
    <glyph glyph-name="uni0407" unicode="&#x407;" horiz-adv-x="500" 
d="M392 0h-284v1522h284v-1522zM-24 1742q0 69 30 100t95 31q66 0 96 -31t30 -100q0 -67 -30 -98.5t-96 -31.5q-65 0 -95 31.5t-30 98.5zM269 1742q0 69 30 100t94 31q67 0 97 -31t30 -100q0 -67 -30.5 -98.5t-96.5 -31.5q-64 0 -94 31.5t-30 98.5z" />
    <glyph glyph-name="uni0408" unicode="&#x408;" horiz-adv-x="689" 
d="M302 1521h283v-1150q0 -191 -86 -289.5t-294 -98.5q-119 0 -196 60l77 243q25 -15 49 -22t70 -7q54 0 75.5 30t21.5 91v1143z" />
    <glyph glyph-name="uni0409" unicode="&#x409;" horiz-adv-x="1464" 
d="M1382 638v-258q0 -203 -100.5 -291.5t-285.5 -88.5h-366v1246h-245v-852q0 -204 -88 -310t-292 -106v276q97 0 97 141v1128l272 -1h539v-495h81q92 0 160.5 -19.5t121 -63t79.5 -120.5t27 -186zM1098 380v258q0 63 -24.5 89.5t-83.5 26.5h-77v-478h83q55 0 78.5 25.5
t23.5 78.5z" />
    <glyph glyph-name="uni040A" unicode="&#x40a;" horiz-adv-x="1436" 
d="M376 0h-284v1522h284v-502h227v502h284v-502h81q92 0 160.5 -19.5t121 -63t79 -120.5t26.5 -187v-250q0 -203 -100.5 -291.5t-285.5 -88.5h-366v746h-227v-746zM1071 380v250q0 63 -24 89.5t-84 26.5h-76v-470h82q55 0 78.5 25.5t23.5 78.5z" />
    <glyph glyph-name="uni040B" unicode="&#x40b;" horiz-adv-x="1078" 
d="M997 0v623q0 75 -7.5 134t-28 113.5t-53.5 90t-86.5 56.5t-124.5 21q-122 0 -169 -128v471h-277v-1381h277v605q0 165 93 165q31 0 51 -12t29 -35t11.5 -43.5t2.5 -49.5v-630h282zM765 1246h-237v-1246h-285v1246h-238v275h760v-275z" />
    <glyph glyph-name="uni040C" unicode="&#x40c;" horiz-adv-x="964" 
d="M392 0h-284v1522h284v-617h67l192 616h301l-233 -741l249 -780h-302l-199 630h-75v-630zM538 1884h259l-191 -284h-200z" />
    <glyph glyph-name="uni040E" unicode="&#x40e;" horiz-adv-x="883" 
d="M877 1521l-286 -970l-159 -551h-277l150 517l-313 1004h311l141 -609l156 609h277zM590 1889h155q-1 -61 -17 -111t-49 -91t-92 -64t-139 -23q-81 0 -140.5 23t-93 64t-48.5 91t-15 111h154q3 -31 5.5 -44.5t11 -35t22 -30.5t40 -16.5t64.5 -7.5q36 0 61 6.5t39.5 16.5
t23.5 29t12 36t6 46z" />
    <glyph glyph-name="uni0410" unicode="&#x410;" horiz-adv-x="916" 
d="M9 0l245 1523h373l245 -1523h-285l-30 232h-234l-29 -232h-285zM440 1155l-84 -664h168z" />
    <glyph glyph-name="uni0411" unicode="&#x411;" horiz-adv-x="959" 
d="M860 638v-258q0 -203 -100.5 -291.5t-285.5 -88.5h-366v1522h654v-272h-370v-223h81q189 0 288 -88t99 -301zM576 380v258q0 63 -24 89.5t-84 26.5h-76v-478h82q55 0 78.5 25.5t23.5 78.5z" />
    <glyph glyph-name="uni0412" unicode="&#x412;" horiz-adv-x="959" 
d="M596 387v167q0 51 -25 82.5t-78 31.5h-101v-393h101q56 0 80 26t23 86zM585 1057l-2 90q-2 58 -25 85.5t-77 27.5h-89v-334h72q69 0 95.5 29.5t25.5 101.5zM880 554v-162q0 -205 -94.5 -298.5t-289.5 -93.5h-388v1522h382q195 0 286.5 -93t91.5 -258v-85
q0 -121 -31.5 -188t-98.5 -89q67 -21 104.5 -86.5t37.5 -168.5z" />
    <glyph glyph-name="uni0413" unicode="&#x413;" horiz-adv-x="840" 
d="M766 1251h-389v-1251h-283v1526h672v-275z" />
    <glyph glyph-name="uni0414" unicode="&#x414;" horiz-adv-x="1119" 
d="M182 1523l267 -1h521v-1246h143v-451h-283v175h-541v-175h-284v451h30q42 0 73 99t46 248t21.5 280t6.5 236v384zM464 1246l1 -107q0 -156 -1.5 -247t-8.5 -202t-20.5 -178.5t-38 -131t-60.5 -104.5h350v970h-222z" />
    <glyph glyph-name="uni0415" unicode="&#x415;" horiz-adv-x="858" 
d="M780 0h-673v1521l673 1v-276h-390v-337h321v-276h-321v-358h390v-275z" />
    <glyph glyph-name="uni0416" unicode="&#x416;" horiz-adv-x="1448" 
d="M867 0h-283v630h-79l2 -2l-198 -628h-302l251 780l-235 741h301l191 -616h69v617h283v-617h68l191 616h302l-236 -741l252 -780h-302l-198 628v1l1 1h-78v-630z" />
    <glyph glyph-name="uni0417" unicode="&#x417;" horiz-adv-x="889" 
d="M820 423q0 -243 -89 -344t-286 -101q-374 0 -374 394v98h282v-103q0 -56 24 -84.5t68 -28.5q45 0 69 29t24 98v143q0 64 -28.5 93t-84.5 30l-87 2v261l97 4q50 0 70.5 37t20.5 139v49q0 24 -1 40t-6 34.5t-13.5 29.5t-24.5 18.5t-38 7.5q-79 0 -79 -107v-110h-283v95
q0 204 89 300.5t280 96.5q186 0 272.5 -100.5t86.5 -317.5q0 -108 -14.5 -176t-44 -105.5t-80.5 -58.5q88 -32 119 -121t31 -242z" />
    <glyph glyph-name="uni0418" unicode="&#x418;" horiz-adv-x="1011" 
d="M949 0h-284l10 861l-255 -861h-312l1 1522h283l-8 -818l226 818h339v-1522z" />
    <glyph glyph-name="uni0419" unicode="&#x419;" horiz-adv-x="1011" 
d="M949 0h-284l9 861l-254 -861h-312l1 1522h283l-9 -818l227 818h339v-1522zM716 1888h155q-1 -61 -17 -110.5t-49 -90.5t-92 -64t-139 -23q-157 0 -227 80t-70 208h154q3 -31 5.5 -44.5t11 -35t22 -30.5t40 -16.5t64.5 -7.5q45 0 73 8.5t41.5 29t18.5 40.5t9 56z" />
    <glyph glyph-name="uni041A" unicode="&#x41a;" horiz-adv-x="964" 
d="M392 0h-284v1522h284v-617h67l192 616h301l-233 -741l249 -780h-302l-199 630h-75v-630z" />
    <glyph glyph-name="uni041B" unicode="&#x41b;" horiz-adv-x="994" 
d="M899 0h-283v1246h-230v-852q0 -204 -88 -310t-292 -106v276q97 0 97 141v1128l271 -1h525v-1522z" />
    <glyph glyph-name="uni041C" unicode="&#x41c;" horiz-adv-x="1266" 
d="M518 172l-152 778l26 -950h-284v1522h355l172 -832l171 832h353v-1522h-284l26 936l-149 -764h-234z" />
    <glyph glyph-name="uni041D" unicode="&#x41d;" horiz-adv-x="1011" 
d="M392 0h-284v1522h284v-617h228v617h283v-1522h-283v630h-228v-630z" />
    <glyph glyph-name="uni041E" unicode="&#x41e;" horiz-adv-x="914" 
d="M75 396v731q0 93 18.5 165.5t61 131t118.5 89.5t184 31q87 0 153.5 -21t109.5 -57.5t70 -90t38 -114t11 -134.5v-732q0 -74 -11 -134.5t-38 -114t-70 -90t-109.5 -57.5t-153.5 -21t-153.5 21t-109.5 57.5t-70 90.5t-38 114.5t-11 134.5zM457 254h1q1 -1 3 -1q95 3 95 142
v732q0 28 -3.5 49.5t-13 44t-30.5 35t-52 12.5q-3 0 -4 1q-39 -1 -61 -24.5t-27.5 -51t-5.5 -66.5v-731q0 -29 3 -50.5t12.5 -44t30.5 -35t52 -12.5z" />
    <glyph glyph-name="uni041F" unicode="&#x41f;" horiz-adv-x="982" 
d="M377 0h-283v1522h795v-1522h-283v1246h-229v-1246z" />
    <glyph glyph-name="uni0420" unicode="&#x420;" horiz-adv-x="911" 
d="M846 1141v-257q0 -110 -27 -187t-79.5 -120.5t-121 -63t-160.5 -19.5h-81v-494h-283v1522h366q90 0 158.5 -20t120.5 -63.5t79.5 -118.5t27.5 -179zM561 884v257q0 54 -23 79.5t-78 25.5h-83v-479h77q59 0 83 27t24 90z" />
    <glyph glyph-name="uni0421" unicode="&#x421;" horiz-adv-x="913" 
d="M558 497h284v-112q0 -406 -381 -406v-1q-87 0 -153.5 21t-109.5 57.5t-70 90.5t-38 114.5t-11 134.5v731q0 93 18.5 165.5t60.5 131t118 89.5t183 31l1 1q382 0 382 -410v-109h-284v108q0 135 -97 135q-31 0 -51.5 -12t-30 -34.5t-13 -44.5t-3.5 -51v-731q0 -29 3 -50.5
t12.5 -44t30.5 -35t52 -12.5q97 0 97 132v111z" />
    <glyph glyph-name="uni0422" unicode="&#x422;" horiz-adv-x="781" 
d="M770 1246h-237v-1246h-285v1246h-238v275h760v-275z" />
    <glyph glyph-name="uni0423" unicode="&#x423;" horiz-adv-x="893" 
d="M889 1521l-286 -970l-159 -551h-277l150 517l-313 1004h311l141 -609l156 609h277z" />
    <glyph glyph-name="uni0424" unicode="&#x424;" horiz-adv-x="1209" 
d="M746 0h-283v118q-108 0 -184.5 31t-118.5 89.5t-60.5 130t-18.5 165.5v455q0 74 11 134.5t38 114t70 89.5t109.5 56.5t153.5 20.5v118h283v-118q108 0 184.5 -31t118.5 -89t60.5 -130t18.5 -166v-454q0 -94 -18.5 -166t-61 -130t-118.5 -89t-184 -31v-118zM463 394v735
q-99 0 -99 -140v-455q0 -28 3.5 -49.5t13 -44t30.5 -34.5t52 -12zM746 1128v-735q31 0 51.5 12t30 34t13 44t3.5 51v454q0 29 -3 50t-12.5 43.5t-30.5 34.5t-52 12z" />
    <glyph glyph-name="uni0425" unicode="&#x425;" horiz-adv-x="949" 
d="M942 0h-314l-161 500l-148 -500h-314l279 787l-255 735h311l138 -445l135 445h310l-263 -735z" />
    <glyph glyph-name="uni0426" unicode="&#x426;" horiz-adv-x="1034" 
d="M606 1522h283v-1246h141v-451h-283v175h-653v1522h284v-1246h228v1246z" />
    <glyph glyph-name="uni0427" unicode="&#x427;" horiz-adv-x="982" 
d="M94 1522h283v-734q0 -55 29.5 -97t90.5 -42q56 0 82.5 51.5t26.5 113.5v708h283v-1522h-283v508q-47 -128 -167 -128q-89 0 -156.5 31.5t-108 88.5t-60.5 131t-20 164v727z" />
    <glyph glyph-name="uni0428" unicode="&#x428;" horiz-adv-x="1323" 
d="M945 1518h284v-1518h-1133v1518h283v-1242h145v1232h283v-1232h138v1242z" />
    <glyph glyph-name="uni0429" unicode="&#x429;" horiz-adv-x="1462" 
d="M944 1518h283v-1249h185v-444h-276v175h-1042v1518h284v-1242h144v1232h284v-1232h138v1242z" />
    <glyph glyph-name="uni042A" unicode="&#x42a;" horiz-adv-x="986" 
d="M892 638v-258q0 -203 -100.5 -291.5t-285.5 -88.5h-366v1246h-135v276h418v-495h81q92 0 160.5 -19.5t121 -63t79.5 -120.5t27 -186zM608 380v258q0 63 -24.5 89.5t-83.5 26.5h-77v-478h83q55 0 78.5 25.5t23.5 78.5z" />
    <glyph glyph-name="uni042B" unicode="&#x42b;" horiz-adv-x="1372" 
d="M846 638v-258q0 -203 -100.5 -291.5t-285.5 -88.5h-366v1522h283v-495h82q189 0 288 -88t99 -301zM562 380v258q0 63 -24 89.5t-84 26.5h-77v-478h83q55 0 78.5 25.5t23.5 78.5zM997 0v1522h283v-1522h-283z" />
    <glyph glyph-name="uni042C" unicode="&#x42c;" horiz-adv-x="935" 
d="M846 638v-257q0 -104 -27.5 -179t-79.5 -118.5t-120.5 -63.5t-158.5 -20h-366v1522h283v-494h81q92 0 160.5 -19.5t121 -63t79.5 -120.5t27 -187zM561 381v257q0 63 -24 90t-83 27h-77v-479h83q55 0 78 25.5t23 79.5z" />
    <glyph glyph-name="uni042D" unicode="&#x42d;" horiz-adv-x="925" 
d="M343 1026h-283v109q0 410 381 410l1 -1q108 0 184 -31t118 -89.5t60 -130.5t18 -166v-731q0 -94 -18.5 -166t-60.5 -131t-118.5 -90t-184.5 -31v1q-380 0 -380 406v112h283v-111q0 -132 98 -132q41 0 64 23.5t28.5 51.5t5.5 67v237h-340v276h340v218q0 142 -99 142
q-97 0 -97 -135v-108z" />
    <glyph glyph-name="uni042E" unicode="&#x42e;" horiz-adv-x="1398" 
d="M377 0h-284v1522h284v-627h169v232q0 74 11 134.5t38 114t70 90t109 57.5t153 21q108 0 184.5 -31t118.5 -89.5t60.5 -130.5t18.5 -166v-732q0 -74 -11 -134.5t-38 -114t-70 -90t-109.5 -57.5t-153.5 -21q-108 0 -184 31t-118 90t-60.5 131t-18.5 166v224h-169v-620z
M927 254h1q1 -1 3 -1q95 3 95 142v732q0 28 -3.5 49.5t-13 44t-30.5 35t-52 12.5q-3 0 -4 1q-39 -1 -61 -24.5t-27.5 -51t-5.5 -66.5v-731q0 -39 5.5 -67t28.5 -51.5t64 -23.5z" />
    <glyph glyph-name="uni042F" unicode="&#x42f;" horiz-adv-x="909" 
d="M781 0h-284v568h-49q-49 3 -83.5 -37.5t-40.5 -139.5l-16 -208q-3 -55 -21.5 -109.5t-29.5 -73.5h-293q53 104 60 191l14 207q10 122 32.5 176t80.5 96q-142 115 -142 288v172q0 205 94.5 298t289.5 93h388v-1521zM293 1133v-175q0 -52 25 -83t78 -31h101v402h-101
q-56 0 -79.5 -26.5t-23.5 -86.5z" />
    <glyph glyph-name="uni0430" unicode="&#x430;" horiz-adv-x="918" 
d="M824 0h-276v113q-52 -135 -171 -135q-87 0 -147.5 27.5t-94 81t-48 121.5t-14.5 159t12.5 151t45.5 104t92 63.5t150 19.5q96 0 174 -21v132q0 30 -3 51t-11.5 43.5t-28.5 34.5t-51 12q-92 0 -92 -129v-28h-277v24q0 90 17 159t57 125.5t114 86.5t180 30q105 0 179 -28.5
t115.5 -83.5t59.5 -124.5t18 -161.5v-827zM446 246q54 0 77.5 46.5t23.5 104.5v54q-43 26 -106 26q-30 0 -49 -9t-27.5 -27.5t-11 -36t-2.5 -44.5q0 -114 95 -114z" />
    <glyph glyph-name="uni0431" unicode="&#x431;" horiz-adv-x="905" 
d="M663 1572l211 -1q-14 -97 -28 -130q-37 -89 -159 -118q-69 -16 -172 -16q-146 0 -161 -190q84 108 194 108q71 0 122 -21.5t81 -56t47 -90.5t22 -112t5 -135v-416q0 -110 -15 -181.5t-54.5 -127.5t-114 -81.5t-189.5 -25.5q-106 1 -180.5 32t-115 89.5t-58 129.5
t-17.5 165v514q0 287 93 448.5t287 167.5q138 3 202 48zM454 249q30 0 50 11.5t29 34t12 43.5t3 51v427q0 29 -3 50t-11.5 44t-28.5 35t-51 12q-66 0 -86 -75q-8 -26 -8 -93v-400q0 -30 2.5 -50t11 -43t29 -35t51.5 -12z" />
    <glyph glyph-name="uni0432" unicode="&#x432;" horiz-adv-x="908" 
d="M92 1202h344q380 0 380 -360v-7q0 -142 -110 -222q122 -80 122 -237v-7q0 -190 -92 -279.5t-280 -89.5h-364v1202zM553 365v11q-2 110 -100 110h-85v-219h85q100 0 100 98zM533 835v10q0 90 -100 90h-65v-199h65q57 0 78.5 23.5t21.5 75.5z" />
    <glyph glyph-name="uni0433" unicode="&#x433;" horiz-adv-x="719" 
d="M368 0h-277v1202h622v-276h-345v-926z" />
    <glyph glyph-name="uni0434" unicode="&#x434;" horiz-adv-x="1056" 
d="M174 1204l271 -2h456v-933h148v-444h-276v175h-491v-175h-275v444h11q30 0 57 35t49.5 107.5t36 198.5t13.5 292v302zM450 933v-64q0 -234 -25 -376.5t-95 -223.5h295v664h-175z" />
    <glyph glyph-name="uni0435" unicode="&#x435;" horiz-adv-x="893" 
d="M544 406h275v-24q0 -93 -16.5 -162t-56 -126t-113.5 -86.5t-182 -29.5t-183.5 31t-116.5 89.5t-58.5 130t-17.5 165.5v415q0 75 10 135t36 114t67.5 89.5t107 56.5t152.5 21t152 -20.5t106.5 -55.5t67 -88t35.5 -111t10 -130v-273l-469 -94v-62q0 -29 3 -50.5t12.5 -44
t30.5 -35t52 -12.5q57 0 76.5 36.5t19.5 93.5v27zM448 957q-41 0 -64 -23.5t-28.5 -51.5t-5.5 -68v-121l194 43v89q0 132 -96 132z" />
    <glyph glyph-name="uni0436" unicode="&#x436;" horiz-adv-x="1264" 
d="M493 1201h277v-457h35l146 458h280l-215 -602l243 -600h-306l-152 470h-31v-470h-277v470h-28l-152 -470h-307l244 600l-215 602h280l146 -458h32v457z" />
    <glyph glyph-name="uni0437" unicode="&#x437;" horiz-adv-x="861" 
d="M220 721l188 2q53 1 83 29.5t30 74.5v7q0 115 -94 115q-91 0 -91 -112v-40h-283v34q0 394 374 394q193 0 284.5 -97t91.5 -301q0 -49 -14.5 -90.5t-38.5 -69t-43 -43t-38 -25.5q59 -12 96.5 -85.5t37.5 -161.5q0 -172 -95 -273t-281 -101q-374 0 -374 394v34h283v-40
q0 -112 91 -112q94 0 94 120q0 58 -26.5 85.5t-85.5 27.5l-189 -1v235z" />
    <glyph glyph-name="uni0438" unicode="&#x438;" horiz-adv-x="943" 
d="M390 0h-295v1202h284v-517l181 517l234 2v-2h61l-2 -1202h-283v536z" />
    <glyph glyph-name="uni0439" unicode="&#x439;" horiz-adv-x="943" 
d="M853 0h-284v533l-179 -533h-295v1202h284v-516l181 516h9l225 2l-1 -2h61zM631 1568h154q-1 -61 -17 -111t-49 -91t-92 -64t-139 -23q-81 0 -140.5 23t-93 64t-48.5 91t-15 111h154q3 -31 5.5 -44.5t11 -35t22 -30.5t40 -16.5t64.5 -7.5q45 0 73 8.5t42 28.5t19 40.5
t9 56.5z" />
    <glyph glyph-name="uni043A" unicode="&#x43a;" horiz-adv-x="901" 
d="M92 1201h277v-457h72l146 458h280l-215 -602l243 -600h-306l-152 470h-68v-470h-277v1201z" />
    <glyph glyph-name="uni043B" unicode="&#x43b;" horiz-adv-x="980" 
d="M891 0h-276v933h-236v-539q0 -416 -374 -416v269q98 0 98 141v816l270 -2h518v-1202z" />
    <glyph glyph-name="uni043C" unicode="&#x43c;" horiz-adv-x="1222" 
d="M503 197l-134 568l11 -765h-284v1205h357l160 -608h1l161 608h356v-1205h-282l10 768l-136 -571h-220z" />
    <glyph glyph-name="uni043D" unicode="&#x43d;" horiz-adv-x="943" 
d="M373 0h-278v1202h278v-467h197v467h278v-1202h-278v460h-197v-460z" />
    <glyph glyph-name="uni043E" unicode="&#x43e;" 
d="M75 394v415q0 95 17 166.5t57.5 130t115 89t182.5 30.5q87 0 152.5 -21t106.5 -57t67 -89.5t36 -113t10 -134.5v-416q0 -95 -16.5 -166t-56 -130t-113.5 -89.5t-182 -30.5t-183.5 31t-116.5 89.5t-58.5 130t-17.5 165.5zM447 957q-31 0 -51 -12t-28.5 -34.5t-11.5 -43.5
t-3 -51v-427q0 -29 2.5 -49.5t11.5 -43.5t29 -35t51 -12q30 0 50 11.5t28.5 34t11.5 43.5t3 51v427q0 30 -2.5 50.5t-11 43.5t-28.5 35t-51 12z" />
    <glyph glyph-name="uni043F" unicode="&#x43f;" horiz-adv-x="943" 
d="M374 0h-279v1202h752v-1202h-276v933h-197v-933z" />
    <glyph glyph-name="uni0440" unicode="&#x440;" horiz-adv-x="918" 
d="M372 -367h-277v1569h277v-102q46 125 164 125q72 0 125.5 -21t87 -56.5t54 -90t28 -113.5t7.5 -134v-416q0 -76 -7.5 -135t-27.5 -113.5t-53 -90t-86.5 -56.5t-124.5 -21q-120 0 -167 129v-474zM467 957q-94 0 -94 -164v-381q0 -163 94 -163q30 0 50 11.5t29 34t12 43.5
t3 51v427q0 29 -3 50t-11.5 44t-28.5 35t-51 12z" />
    <glyph glyph-name="uni0441" unicode="&#x441;" horiz-adv-x="891" 
d="M544 377v26h275v-23q0 -73 -9.5 -130.5t-35 -109.5t-66 -86.5t-105.5 -55t-152 -20.5q-108 0 -183.5 31t-116.5 89.5t-58.5 130t-17.5 165.5v323q0 73 1 110q0 92 18 161.5t59.5 124.5t115.5 83.5t179 28.5q107 0 182 -30t115 -87t57 -125.5t17 -158.5v-24h-275v28
q0 129 -96 129q-31 0 -51 -12t-28.5 -34.5t-11.5 -43.5t-3 -51v-273q0 -124 1 -187q7 -107 93 -107q96 0 96 128z" />
    <glyph glyph-name="uni0442" unicode="&#x442;" horiz-adv-x="705" 
d="M701 933h-209v-934h-276v934h-212v269h697v-269z" />
    <glyph glyph-name="uni0443" unicode="&#x443;" horiz-adv-x="849" 
d="M427 327l260 -1l-52 -372q-23 -162 -114 -277.5t-204 -156.5l-120 198q27 12 45.5 22t43.5 30t41.5 44t31.5 62t21 85zM550 1204h285l-235 -1204h-375l-235 1204h285l137 -900z" />
    <glyph glyph-name="uni0444" unicode="&#x444;" horiz-adv-x="1326" 
d="M801 -368h-276v426q-49 -80 -144 -80q-71 0 -124.5 21t-86.5 56.5t-53 90t-27.5 113.5t-7.5 135v416q0 75 7.5 134t28 113.5t54 90t87 56.5t125.5 21q93 0 141 -66v364h276v-364q48 66 141 66q89 0 150 -30.5t93.5 -89.5t46 -129.5t13.5 -165.5v-416q0 -76 -7.5 -135
t-27.5 -113.5t-53 -90t-86.5 -56.5t-124.5 -21q-96 0 -145 81v-427zM453 249q48 0 72 26v640q-25 42 -72 42q-31 0 -51 -12t-29 -35t-11.5 -43.5t-2.5 -50.5v-427q0 -30 3 -51t12 -43.5t29 -34t50 -11.5zM873 957q-47 0 -72 -42v-640q24 -26 72 -26q30 0 50 11.5t29 34
t12 43.5t3 51v427q0 30 -2.5 50.5t-11.5 43.5t-29 35t-51 12z" />
    <glyph glyph-name="uni0445" unicode="&#x445;" horiz-adv-x="838" 
d="M832 0h-289l-128 363l-135 -363h-270l238 625l-225 577h291l112 -331l124 331h269l-225 -577z" />
    <glyph glyph-name="uni0446" unicode="&#x446;" horiz-adv-x="1055" 
d="M94 1202h283v-933h191v933h284v-933h147v-444h-276v175h-629v1202z" />
    <glyph glyph-name="uni0447" unicode="&#x447;" horiz-adv-x="929" 
d="M94 1202h277v-450q0 -30 2.5 -50.5t11.5 -43.5t29 -35t51 -12q93 0 93 166v425h277v-1202h-277v471q-45 -128 -163 -128q-71 0 -124.5 21t-87 57t-54 90t-28 113t-7.5 134v444z" />
    <glyph glyph-name="uni0448" unicode="&#x448;" horiz-adv-x="1323" 
d="M943 1202h284v-1202h-1133v1202h283v-933h145v923h283v-923h138v933z" />
    <glyph glyph-name="uni0449" unicode="&#x449;" horiz-adv-x="1388" 
d="M944 1202h284v-933h147v-444h-276v175h-1004v1202h283v-933h145v923h283v-923h138v933z" />
    <glyph glyph-name="uni044A" unicode="&#x44a;" horiz-adv-x="1011" 
d="M931 477v-97q0 -203 -101 -291.5t-286 -88.5h-366v946h-173v256h457v-335h81q92 0 160.5 -19.5t121 -63t79.5 -120.5t27 -187zM646 380v97q0 64 -24 90.5t-84 26.5h-76v-318h83q55 0 78 25.5t23 78.5z" />
    <glyph glyph-name="uni044B" unicode="&#x44b;" horiz-adv-x="1381" 
d="M1287 0h-277v1202h277v-1202zM845 477v-97q0 -203 -100.5 -291.5t-285.5 -88.5h-366v1202h283v-335h82q92 0 160.5 -19.5t121 -63t79 -120.5t26.5 -187zM561 380v97q0 64 -24 90.5t-84 26.5h-77v-318h83q55 0 78.5 25.5t23.5 78.5z" />
    <glyph glyph-name="uni044C" unicode="&#x44c;" horiz-adv-x="911" 
d="M838 477v-97q0 -203 -100.5 -291.5t-285.5 -88.5h-366v1202h283v-335h81q92 0 160.5 -19.5t121 -63t79.5 -120.5t27 -187zM553 380v97q0 64 -24 90.5t-83 26.5h-77v-318h83q55 0 78 25.5t23 78.5z" />
    <glyph glyph-name="uni044D" unicode="&#x44d;" horiz-adv-x="882" 
d="M342 403v-26q0 -128 96 -128q86 0 93 107q1 41 1 124l-310 -4v252l310 -6v94q0 30 -3 51t-11.5 43.5t-28.5 34.5t-51 12q-96 0 -96 -129v-28h-276v24q0 90 17 159t57.5 125.5t115 86.5t182.5 30q84 0 148.5 -19.5t106.5 -53.5t68.5 -84.5t37.5 -109t11 -131.5v-433
q0 -94 -17.5 -165.5t-58.5 -130t-116 -89.5t-183 -31q-87 0 -152.5 20.5t-106 55t-66 86.5t-35 109.5t-9.5 130.5v23h276z" />
    <glyph glyph-name="uni044E" unicode="&#x44e;" horiz-adv-x="1335" 
d="M368 0h-278v1202h278v-501h168v-247h-168v-454zM525 394v415q0 95 17 166.5t57.5 130t115 89t182.5 30.5q87 0 152.5 -21t106.5 -57t67 -89.5t36 -113t10 -134.5v-416q0 -95 -16.5 -166t-56 -130t-113.5 -89.5t-182 -30.5t-183.5 31t-116.5 89.5t-58.5 130t-17.5 165.5z
M897 957q-31 0 -51 -12t-28.5 -34.5t-11.5 -43.5t-3 -51v-427q0 -29 2.5 -49.5t11.5 -43.5t29 -35t51 -12q30 0 50 11.5t28.5 34t11.5 43.5t3 51v427q0 30 -2.5 50.5t-11 43.5t-28.5 35t-51 12z" />
    <glyph glyph-name="uni044F" unicode="&#x44f;" horiz-adv-x="873" 
d="M778 0h-276v400h-46q-24 -1 -38.5 -6t-29.5 -20t-25 -47t-17 -83l-13 -91q-12 -94 -40 -153h-285q38 66 49 161l10 90q11 85 23 128t31 67t59 51q-138 111 -138 280v56q0 190 92 279.5t280 89.5h364v-1202zM317 837v-60q1 -53 24 -81.5t77 -28.5h84v268h-85
q-100 0 -100 -98z" />
    <glyph glyph-name="uni0451" unicode="&#x451;" horiz-adv-x="893" 
d="M544 406h275v-24q0 -93 -16.5 -162t-56 -126t-113.5 -86.5t-182 -29.5t-183.5 31t-116.5 89.5t-58.5 130t-17.5 165.5v415q0 75 10 135t36 114t67.5 89.5t107 56.5t152.5 21t152 -20.5t106.5 -55.5t67 -88t35.5 -111t10 -130v-273l-469 -94v-62q0 -29 3 -50.5t12.5 -44
t30.5 -35t52 -12.5q57 0 76.5 36.5t19.5 93.5v27zM448 957q-41 0 -64 -23.5t-28.5 -51.5t-5.5 -68v-121l194 43v89q0 132 -96 132zM175 1422q0 69 30 100t95 31q66 0 96 -31t30 -100q0 -67 -30 -98.5t-96 -31.5q-65 0 -95 31.5t-30 98.5zM468 1422q0 69 30 100t94 31
q67 0 97 -31t30 -100q0 -67 -30.5 -98.5t-96.5 -31.5q-64 0 -94 31.5t-30 98.5z" />
    <glyph glyph-name="uni0452" unicode="&#x452;" horiz-adv-x="915" 
d="M442 1275h-83v-176q45 128 163 128q72 0 125.5 -21t86.5 -57t53.5 -90t28 -113t7.5 -134v-860q0 -93 -18.5 -162t-61.5 -121t-117.5 -78.5t-181.5 -26.5q-120 0 -196 60l77 243q44 -28 119 -28q55 0 78.5 30t23.5 90v859q0 30 -2.5 50.5t-11.5 43.5t-29 35t-51 12
q-93 0 -93 -166v-793h-277v1275h-77v206h77v85h277v-85h83v-206z" />
    <glyph glyph-name="uni0453" unicode="&#x453;" horiz-adv-x="790" 
d="M366 0h-278v1202h623v-276h-345v-926zM386 1571h259l-191 -284h-200z" />
    <glyph glyph-name="uni0454" unicode="&#x454;" horiz-adv-x="903" 
d="M549 377v26h276v-23q0 -73 -9.5 -130.5t-35 -109.5t-66 -86.5t-106 -55t-152.5 -20.5q-108 0 -183 31t-116 89.5t-58.5 130t-17.5 165.5v433q0 73 11 131.5t37.5 109t68.5 84.5t106.5 53.5t148.5 19.5q108 0 182.5 -30t115 -86.5t57.5 -125.5t17 -159v-24h-276v28
q0 129 -96 129q-31 0 -51 -12t-28.5 -34.5t-11.5 -43.5t-3 -51v-94l310 6v-252l-310 4q0 -83 1 -124q7 -107 93 -107q96 0 96 128z" />
    <glyph glyph-name="uni0455" unicode="&#x455;" horiz-adv-x="875" 
d="M804 367q0 -189 -83 -289t-282 -100q-86 0 -150.5 19.5t-106.5 54t-68.5 87.5t-37 115t-10.5 142h278q0 -71 20 -109t72 -38q38 0 57 24t19 56q0 33 -24 63t-62 55.5t-84 53t-92.5 60.5t-84.5 71t-62 92.5t-24 118.5q0 196 81.5 289t282.5 93q66 0 115.5 -9t96 -35
t76 -69.5t47 -115t17.5 -168.5l-278 1q0 128 -74 128q-45 0 -63.5 -24t-18.5 -55q0 -29 24.5 -56.5t63.5 -52t86 -51.5t94.5 -61t86.5 -73.5t63.5 -95.5t24.5 -121z" />
    <glyph glyph-name="uni0456" unicode="&#x456;" horiz-adv-x="468" 
d="M71 1445q0 70 39 103t122 33q84 0 123.5 -33t39.5 -103t-39 -102.5t-124 -32.5q-83 0 -122 32.5t-39 102.5zM373 0h-277v1202h277v-1202z" />
    <glyph glyph-name="uni0457" unicode="&#x457;" horiz-adv-x="468" 
d="M373 0h-277v1202h277v-1202zM-27 1440q0 69 30 100t95 31q66 0 96 -31t30 -100q0 -67 -30 -98.5t-96 -31.5q-65 0 -95 31.5t-30 98.5zM266 1440q0 69 30 100t94 31q67 0 97 -31t30 -100q0 -67 -30.5 -98.5t-96.5 -31.5q-64 0 -94 31.5t-30 98.5z" />
    <glyph glyph-name="uni0458" unicode="&#x458;" horiz-adv-x="470" 
d="M71 1445q0 70 39 103t122 33q84 0 123.5 -33t39.5 -103t-39 -102.5t-124 -32.5q-83 0 -122 32.5t-39 102.5zM95 1202h279v-1210q0 -75 -7.5 -132.5t-28 -109t-54 -85t-87 -53t-126.5 -19.5q-125 0 -223 75l15 233l11 -6q11 -6 14 -7.5t14.5 -7t18.5 -7.5t20 -6t24 -5.5
t26 -3t31 -1.5q43 0 58 30t15 105v1210z" />
    <glyph glyph-name="uni0459" unicode="&#x459;" horiz-adv-x="981" 
d="M432 1202v-335h81q92 0 160.5 -19.5t121 -63t79.5 -120.5t27 -187v-97q0 -203 -101 -291.5t-286 -88.5h-366v933h-142v269h426zM616 380v97q0 64 -24 90.5t-84 26.5h-76v-318h83q55 0 78 25.5t23 78.5z" />
    <glyph glyph-name="uni045A" unicode="&#x45a;" horiz-adv-x="1395" 
d="M1315 424v-44q0 -203 -100.5 -291.5t-285.5 -88.5h-360v540h-198v-540h-278v1202h278v-389h198v389h275v-389h83q92 0 160.5 -19.5t121 -63t79.5 -120.5t27 -186zM1030 380v44q0 63 -24 89.5t-84 26.5h-78l-1 -264h86q55 0 78 25.5t23 78.5z" />
    <glyph glyph-name="uni045B" unicode="&#x45b;" horiz-adv-x="916" 
d="M442 888h-83v-157q45 128 163 128q72 0 125.5 -21t86.5 -57t53.5 -90t28 -113t7.5 -134v-444h-277v450q0 30 -2.5 50.5t-11.5 43.5t-29 35t-51 12q-93 0 -93 -166v-425h-277v888h-77v213h77v101h277v-101h83v-213z" />
    <glyph glyph-name="uni045C" unicode="&#x45c;" horiz-adv-x="884" 
d="M89 1201h277v-457h72l146 458h280l-215 -602l243 -600h-306l-152 470h-68v-470h-277v1201zM486 1564h259l-191 -284h-200z" />
    <glyph glyph-name="uni045E" unicode="&#x45e;" horiz-adv-x="784" 
d="M521 1202h251l-232 -761v-441h-283v441l-243 761h273l113 -475zM547 1565h155q-1 -61 -17 -111t-49 -91t-92 -64t-139 -23q-81 0 -140.5 23t-93 64t-48.5 91t-15 111h154q3 -31 5.5 -44.5t11 -35t22 -30.5t40 -16.5t64.5 -7.5q36 0 61 6.5t39.5 16.5t23.5 29t12 36t6 46z
" />
    <glyph glyph-name="uni0474" unicode="&#x474;" horiz-adv-x="3" 
 />
    <glyph glyph-name="uni0490" unicode="&#x490;" horiz-adv-x="884" 
d="M796 1247h-419v-1247h-283v1523h426v177h276v-453z" />
    <glyph glyph-name="uni0491" unicode="&#x491;" horiz-adv-x="839" 
d="M754 933h-384v-933h-276v1202h385v169l275 -2v-436z" />
    <glyph glyph-name="uni04D9" unicode="&#x4d9;" horiz-adv-x="896" 
d="M343 798h-275v24q0 93 16.5 162t56 126t113.5 86.5t182 29.5t183.5 -31t116.5 -89.5t58.5 -130t17.5 -165.5v-415q0 -75 -10 -135t-36 -114t-67.5 -89.5t-107 -56.5t-152.5 -21t-152 20.5t-106.5 55.5t-67 88t-35.5 111t-10 130v273l469 94v62q0 29 -3 50.5t-12.5 44
t-30.5 35t-52 12.5q-57 0 -76.5 -36.5t-19.5 -93.5v-27zM439 247q41 0 64 23.5t28.5 51.5t5.5 68v121l-194 -43v-89q0 -132 96 -132z" />
    <glyph glyph-name="Wgrave" unicode="&#x1e80;" horiz-adv-x="1357" 
d="M780 0l-102 983l-102 -983h-357l-183 1523h285l88 -1012l99 1012h340l99 -1012l88 1012h285l-183 -1523h-357zM388 1885h242l132 -284h-192z" />
    <glyph glyph-name="wgrave" unicode="&#x1e81;" horiz-adv-x="1435" 
d="M186 0l-175 1204h285l109 -936h4l109 936h398l109 -936h4l109 936h286l-176 -1204h-425l-106 899l-106 -899h-425zM375 1564h242l132 -284h-192z" />
    <glyph glyph-name="Wacute" unicode="&#x1e82;" horiz-adv-x="1357" 
d="M780 0l-102 983l-102 -983h-357l-183 1523h285l88 -1012l99 1012h340l99 -1012l88 1012h285l-183 -1523h-357zM707 1885h259l-191 -284h-200z" />
    <glyph glyph-name="wacute" unicode="&#x1e83;" horiz-adv-x="1435" 
d="M186 0l-175 1204h285l109 -936h4l109 936h398l109 -936h4l109 936h286l-176 -1204h-425l-106 899l-106 -899h-425zM687 1564h259l-191 -284h-200z" />
    <glyph glyph-name="Wdieresis" unicode="&#x1e84;" horiz-adv-x="1357" 
d="M780 0l-102 983l-102 -983h-357l-183 1523h285l88 -1012l99 1012h340l99 -1012l88 1012h285l-183 -1523h-357zM407 1743q0 69 30 100t95 31q66 0 96 -31t30 -100q0 -67 -30 -98.5t-96 -31.5q-65 0 -95 31.5t-30 98.5zM700 1743q0 69 30 100t94 31q67 0 97 -31t30 -100
q0 -67 -30.5 -98.5t-96.5 -31.5q-64 0 -94 31.5t-30 98.5z" />
    <glyph glyph-name="wdieresis" unicode="&#x1e85;" horiz-adv-x="1435" 
d="M186 0l-175 1204h285l109 -936h4l109 936h398l109 -936h4l109 936h286l-176 -1204h-425l-106 899l-106 -899h-425zM374 1422q0 69 30 100t95 31q66 0 96 -31t30 -100q0 -67 -30 -98.5t-96 -31.5q-65 0 -95 31.5t-30 98.5zM667 1422q0 69 30 100t94 31q67 0 97 -31
t30 -100q0 -67 -30.5 -98.5t-96.5 -31.5q-64 0 -94 31.5t-30 98.5z" />
    <glyph glyph-name="uni1E9E" unicode="&#x1e9e;" horiz-adv-x="927" 
d="M455 704v248l99 296h-79q-57 0 -77 -39.5t-20 -102.5v-1104l-286 -2v1106q0 94 19 167t61 131.5t118.5 90t184.5 31.5l361 -2v-281l-140 -372q165 -90 165 -309v-143q0 -419 -386 -419v273q102 0 102 145v149q0 137 -102 137h-20z" />
    <glyph glyph-name="Ygrave" unicode="&#x1ef2;" horiz-adv-x="895" 
d="M890 1521l-294 -985v-536h-283v536l-308 985h311l141 -598l156 598h277zM188 1868h242l132 -284h-192z" />
    <glyph glyph-name="ygrave" unicode="&#x1ef3;" horiz-adv-x="849" 
d="M10 1204h285l130 -940l6 34q65 479 125 906h286q-24 -140 -70.5 -416.5t-69.5 -416.5l-66 -401q-27 -172 -116.5 -288t-206.5 -162l-120 198q35 16 58 31t51 43.5t47 73.5t30 106l4 28h-172zM157 1564h242l132 -284h-192z" />
    <glyph glyph-name="figuredash" unicode="&#x2012;" horiz-adv-x="737" 
d="M665 467h-589v247h589v-247z" />
    <glyph glyph-name="endash" unicode="&#x2013;" horiz-adv-x="916" 
d="M849 465h-778v246h778v-246z" />
    <glyph glyph-name="emdash" unicode="&#x2014;" horiz-adv-x="1322" 
d="M1224 465h-1140v247h1140v-247z" />
    <glyph glyph-name="quoteleft" unicode="&#x2018;" horiz-adv-x="409" 
d="M117 1814l176 -26q-42 -184 -42 -249q0 -64 33 -64h44v-261l-289 -3v248q0 126 78 355z" />
    <glyph glyph-name="quoteright" unicode="&#x2019;" horiz-adv-x="409" 
d="M75 1789l176 26q78 -229 78 -355v-248l-289 3v261h44q33 0 33 64q0 65 -42 249z" />
    <glyph glyph-name="quotesinglbase" unicode="&#x201a;" horiz-adv-x="435" 
d="M260 -323l-176 26q42 184 42 249q0 64 -33 64h-44v261l289 3v-248q0 -126 -78 -355z" />
    <glyph glyph-name="quotedblleft" unicode="&#x201c;" horiz-adv-x="896" 
d="M124 1814l176 -26q-42 -184 -42 -249q0 -64 33 -64h44v-261l-289 -3v248q0 126 78 355zM574 1810l176 -26q-42 -184 -42 -249q0 -64 33 -64h44v-261l-289 -3v248q0 126 78 355z" />
    <glyph glyph-name="quotedblright" unicode="&#x201d;" horiz-adv-x="896" 
d="M82 1788l176 26q78 -229 78 -355v-248l-289 3v261h44q33 0 33 64q0 65 -42 249zM532 1784l176 26q78 -229 78 -355v-248l-289 3v261h44q33 0 33 64q0 65 -42 249z" />
    <glyph glyph-name="quotedblbase" unicode="&#x201e;" horiz-adv-x="899" 
d="M260 -323l-176 26q42 184 42 249q0 64 -33 64h-44v261l289 3v-248q0 -126 -78 -355zM709 -323l-176 26q42 184 42 249q0 64 -33 64h-44v261l289 3v-248q0 -126 -78 -355z" />
    <glyph glyph-name="dagger" unicode="&#x2020;" horiz-adv-x="814" 
d="M796 845h-248v-1216h-278v1216h-250v273h250v407h278v-407h248v-273z" />
    <glyph glyph-name="daggerdbl" unicode="&#x2021;" horiz-adv-x="817" 
d="M20 307h250v538h-250v273h250v407h278v-407h248v-273h-248v-538h248v-273h-248v-405h-278v405h-250v273z" />
    <glyph glyph-name="bullet" unicode="&#x2022;" horiz-adv-x="876" 
d="M792 702q0 -147 -101.5 -249t-249.5 -102q-147 0 -252 102.5t-105 248.5q0 149 105 251.5t252 102.5q148 0 249.5 -102t101.5 -252z" />
    <glyph glyph-name="ellipsis" unicode="&#x2026;" horiz-adv-x="1353" 
d="M64 128q0 80 38.5 116t122.5 36q87 0 126 -36t39 -116q0 -78 -39.5 -114t-125.5 -36q-83 0 -122 36.5t-39 113.5zM512 128q0 80 39 116t123 36q86 0 124.5 -36t38.5 -116q0 -78 -38.5 -114t-124.5 -36q-84 0 -123 36.5t-39 113.5zM959 128q0 80 39 116t123 36
q86 0 125 -36t39 -116q0 -78 -39 -114t-125 -36q-84 0 -123 36.5t-39 113.5z" />
    <glyph glyph-name="perthousand" unicode="&#x2030;" horiz-adv-x="2340" 
d="M67 936v252q0 93 13 155.5t46.5 109.5t93 68.5t149.5 21.5q89 0 148 -21.5t91.5 -68.5t45.5 -109.5t13 -155.5v-239q0 -94 -13 -157t-45.5 -110t-91.5 -69t-148 -22q-171 0 -236.5 81.5t-65.5 263.5zM369 812q31 0 44.5 25.5t13.5 93.5v260q0 75 -12 103.5t-46 28.5
q-36 0 -49 -28t-13 -103v-248q0 -75 13 -103.5t49 -28.5zM1178 1522l-422 -1522h-266l420 1522h268zM977 316v79q0 93 13 155.5t46.5 109.5t93 68.5t149.5 21.5q89 0 148 -21.5t92 -68.5t46 -109.5t13 -155.5v-66q0 -94 -13 -157.5t-46 -110.5t-92 -69t-148 -22
q-171 0 -236.5 82t-65.5 264zM1279 192q31 0 44.5 25.5t13.5 93.5v88q0 75 -12 103t-46 28q-36 0 -49 -28t-13 -103v-75q0 -74 13.5 -103t48.5 -29zM1644 316v79q0 93 13 155.5t46.5 109.5t93 68.5t149.5 21.5t149 -21.5t91.5 -68.5t45 -109.5t12.5 -155.5v-66
q0 -94 -13 -157t-45.5 -110.5t-91.5 -69.5t-148 -22q-171 0 -236.5 82t-65.5 264zM1946 192q31 0 45 26t14 93v88q0 74 -12.5 102.5t-46.5 28.5q-36 0 -49 -28t-13 -103v-75q0 -74 13.5 -103t48.5 -29z" />
    <glyph glyph-name="guilsinglleft" unicode="&#x2039;" horiz-adv-x="519" 
d="M481 187h-277l-171 403l171 404h277l-182 -404z" />
    <glyph glyph-name="guilsinglright" unicode="&#x203a;" horiz-adv-x="504" 
d="M308 187h-277l182 403l-182 404h277l171 -404z" />
    <glyph glyph-name="fraction" unicode="&#x2044;" horiz-adv-x="617" 
d="M626 1483l-426 -1534l-241 45l433 1534z" />
    <glyph glyph-name="uni2070" unicode="&#x2070;" horiz-adv-x="725" 
d="M63 1157v332q0 93 13 155.5t46.5 109.5t93 68.5t149.5 21.5q89 0 147.5 -21.5t91.5 -68.5t46 -109.5t13 -155.5v-319q0 -94 -13 -157t-45.5 -110t-91.5 -69t-148 -22q-171 0 -236.5 81.5t-65.5 263.5zM365 1034q32 0 45.5 22.5t13.5 89.5v352q0 74 -12.5 100t-46.5 26
q-36 0 -49 -26t-13 -100v-338q0 -74 13 -100t49 -26z" />
    <glyph glyph-name="uni2074" unicode="&#x2074;" horiz-adv-x="777" 
d="M200 1822h243l-122 -602h94v241h239v-241h67v-240h-67v-146h-239v146h-355v166z" />
    <glyph glyph-name="uni2075" unicode="&#x2075;" horiz-adv-x="730" 
d="M667 1169q0 -141 -33.5 -219.5t-96.5 -108t-171 -29.5q-301 0 -301 296v25h240l1 -28q3 -71 58 -71q15 0 25.5 4t17.5 14.5t11 20.5t5.5 31t2 36t0.5 45q0 66 -11.5 94t-47.5 28q-30 0 -43 -14.5t-19 -41.5v-14h-240l16 585h543v-229h-312l-9 -148q40 55 151 55
q57 0 96.5 -15.5t62 -40.5t35 -70t16 -90t3.5 -115z" />
    <glyph glyph-name="uni2076" unicode="&#x2076;" horiz-adv-x="726" 
d="M62 1144v366q0 77 13.5 134t45.5 104t91.5 71.5t145.5 24.5q87 0 145 -21.5t88.5 -65t42.5 -96.5t12 -127v-26h-236v16q0 52 -10 75t-42 23q-20 0 -31.5 -8t-16.5 -26.5t-6.5 -35.5t-1.5 -49v-121q50 96 146 96q58 0 98.5 -16t63 -41t34.5 -70t15 -86.5t3 -107.5v-16
q0 -78 -11.5 -133t-43 -102t-93 -70.5t-154.5 -23.5q-72 0 -125 17t-86 45.5t-52.5 72t-27 90.5t-7.5 107zM362 1257q-37 0 -48.5 -27t-11.5 -82v-10q0 -20 1.5 -33t6.5 -32t19 -29t35 -10q26 0 39.5 16t16.5 35.5t3 52.5v10q0 53 -12.5 81t-48.5 28z" />
    <glyph glyph-name="uni2077" unicode="&#x2077;" horiz-adv-x="624" 
d="M608 1607l-212 -773h-258l207 746h-109v-77h-223v319h595v-215z" />
    <glyph glyph-name="uni2078" unicode="&#x2078;" horiz-adv-x="710" 
d="M64 1545v5q0 144 65 219t227 75t226 -75t64 -219v-9q0 -127 -67 -191q77 -57 77 -185v-58q0 -142 -67.5 -218.5t-232.5 -76.5t-233.5 77t-68.5 218v56q0 131 77 187q-67 66 -67 195zM356 1240q-39 0 -53 -23.5t-14 -64.5v-29q0 -86 67 -86q66 0 66 87v28q0 41 -14 64.5
t-52 23.5zM356 1455q35 0 45.5 21.5t10.5 65.5q0 38 -11.5 60t-44.5 22q-19 0 -31 -6.5t-17.5 -19.5t-7 -25.5t-1.5 -30.5q0 -44 10.5 -65.5t46.5 -21.5z" />
    <glyph glyph-name="uni2079" unicode="&#x2079;" horiz-adv-x="729" 
d="M664 1513v-367q0 -77 -13.5 -134t-45 -104t-91 -71.5t-145.5 -24.5q-87 0 -145 21t-88.5 63.5t-42.5 94.5t-12 126v18h236v-8q0 -48 10.5 -70.5t41.5 -22.5q20 0 31.5 8t16.5 26.5t6.5 35.5t1.5 49v120q-49 -99 -145 -99q-59 0 -99.5 16t-63 40.5t-35 69t-15.5 86.5
t-3 108v21q0 62 7 108.5t26.5 90t52.5 70.5t87.5 43.5t129.5 16.5q89 0 149 -24.5t91.5 -72t44 -103t12.5 -131.5zM425 1484v34v26t-3 26.5t-9 28t-18 17.5t-30 8q-37 0 -49 -28.5t-12 -77.5v-15q0 -53 12.5 -81t48.5 -28q33 0 45 22.5t15 67.5z" />
    <glyph glyph-name="uni207D" unicode="&#x207d;" horiz-adv-x="431" 
d="M419 759h-15q-70 0 -125.5 16t-90.5 39.5t-60.5 61.5t-37.5 69.5t-19 77.5t-8 71.5t-1 64.5v338q0 37 1 60t7 69.5t18 77.5t37.5 70.5t60.5 63.5t91 41t127 17h15v-209h-15q-102 0 -102 -178v-370q0 -170 102 -170h15v-210z" />
    <glyph glyph-name="uni207E" unicode="&#x207e;" horiz-adv-x="433" 
d="M61 765h-15v210h15q102 0 102 170v370q0 178 -102 178h-15v209h15q71 0 127 -17t91 -41t60.5 -63.5t37.5 -70.5t18 -77.5t7 -69.5t1 -60v-338q0 -39 -1 -64.5t-8 -71.5t-19 -77.5t-37.5 -69.5t-60.5 -61.5t-90.5 -39.5t-125.5 -16z" />
    <glyph glyph-name="uni2080" unicode="&#x2080;" horiz-adv-x="725" 
d="M63 -59v332q0 93 13 155.5t46.5 109.5t93 68.5t149.5 21.5q89 0 147.5 -21.5t91.5 -68.5t46 -109.5t13 -155.5v-319q0 -94 -13 -157t-45.5 -110t-91.5 -69t-148 -22q-171 0 -236.5 81.5t-65.5 263.5zM365 -182q32 0 45.5 22.5t13.5 89.5v352q0 74 -12.5 100t-46.5 26
q-36 0 -49 -26t-13 -100v-338q0 -74 13 -100t49 -26z" />
    <glyph glyph-name="uni2081" unicode="&#x2081;" horiz-adv-x="482" 
d="M39 258v217q111 60 169 131h197v-988h-241v704q-41 -52 -125 -64z" />
    <glyph glyph-name="uni2082" unicode="&#x2082;" horiz-adv-x="722" 
d="M656 -382h-590v229q14 51 57 106.5t93.5 101t99 89.5t80.5 85.5t32 74.5q0 92 -62 92q-59 0 -59 -94v-25h-240v51q0 144 75.5 223t228.5 79q296 0 296 -326q0 -65 -28.5 -125t-71 -105t-86 -84t-80 -76t-45.5 -66h300v-230z" />
    <glyph glyph-name="uni2083" unicode="&#x2083;" horiz-adv-x="711" 
d="M661 -104q0 -156 -76 -229t-228 -73q-145 0 -225.5 72.5t-80.5 242.5v28h238v-27q0 -92 67 -92q34 0 51 17t17 62v14q0 61 -20.5 87t-64.5 28l-69 1v187l78 2q37 2 52.5 24t15.5 72q0 22 -1.5 35t-6.5 29t-18 24t-34 8q-56 0 -56 -77v-36l-239 -1v11q0 166 72 244.5
t227 78.5q151 0 220.5 -74.5t69.5 -228.5q0 -185 -110 -200q54 -11 87.5 -66t33.5 -163z" />
    <glyph glyph-name="uni2084" unicode="&#x2084;" horiz-adv-x="777" 
d="M200 606h243l-122 -602h94v241h239v-241h67v-240h-67v-146h-239v146h-355v166z" />
    <glyph glyph-name="uni2085" unicode="&#x2085;" horiz-adv-x="730" 
d="M667 -47q0 -141 -33.5 -219.5t-96.5 -108t-171 -29.5q-301 0 -301 296v25h240l1 -28q3 -71 58 -71q15 0 25.5 4t17.5 14.5t11 20.5t5.5 31t2 36t0.5 45q0 66 -11.5 94t-47.5 28q-30 0 -43 -14.5t-19 -41.5v-14h-240l16 585h543v-229h-312l-9 -148q40 55 151 55
q57 0 96.5 -15.5t62 -40.5t35 -70t16 -90t3.5 -115z" />
    <glyph glyph-name="uni2086" unicode="&#x2086;" horiz-adv-x="726" 
d="M62 -72v366q0 77 13.5 134t45.5 104t91.5 71.5t145.5 24.5q87 0 145 -21.5t88.5 -65t42.5 -96.5t12 -127v-26h-236v16q0 52 -10 75t-42 23q-20 0 -31.5 -8t-16.5 -26.5t-6.5 -35.5t-1.5 -49v-121q50 96 146 96q58 0 98.5 -16t63 -41t34.5 -70t15 -86.5t3 -107.5v-16
q0 -78 -11.5 -133t-43 -102t-93 -70.5t-154.5 -23.5q-72 0 -125 17t-86 45.5t-52.5 72t-27 90.5t-7.5 107zM362 41q-37 0 -48.5 -27t-11.5 -82v-10q0 -20 1.5 -33t6.5 -32t19 -29t35 -10q26 0 39.5 16t16.5 35.5t3 52.5v10q0 53 -12.5 81t-48.5 28z" />
    <glyph glyph-name="uni2087" unicode="&#x2087;" horiz-adv-x="624" 
d="M608 391l-212 -773h-258l207 746h-109v-77h-223v319h595v-215z" />
    <glyph glyph-name="uni2088" unicode="&#x2088;" horiz-adv-x="710" 
d="M64 329v5q0 144 65 219t227 75t226 -75t64 -219v-9q0 -127 -67 -191q77 -57 77 -185v-58q0 -142 -67.5 -218.5t-232.5 -76.5t-233.5 77t-68.5 218v56q0 131 77 187q-67 66 -67 195zM356 24q-39 0 -53 -23.5t-14 -64.5v-29q0 -86 67 -86q66 0 66 87v28q0 41 -14 64.5
t-52 23.5zM356 239q35 0 45.5 21.5t10.5 65.5q0 38 -11.5 60t-44.5 22q-19 0 -31 -6.5t-17.5 -19.5t-7 -25.5t-1.5 -30.5q0 -44 10.5 -65.5t46.5 -21.5z" />
    <glyph glyph-name="uni2089" unicode="&#x2089;" horiz-adv-x="729" 
d="M664 297v-367q0 -77 -13.5 -134t-45 -104t-91 -71.5t-145.5 -24.5q-87 0 -145 21t-88.5 63.5t-42.5 94.5t-12 126v18h236v-8q0 -48 10.5 -70.5t41.5 -22.5q20 0 31.5 8t16.5 26.5t6.5 35.5t1.5 49v120q-49 -99 -145 -99q-59 0 -99.5 16t-63 40.5t-35 69t-15.5 86.5
t-3 108v21q0 62 7 108.5t26.5 90t52.5 70.5t87.5 43.5t129.5 16.5q89 0 149 -24.5t91.5 -72t44 -103t12.5 -131.5zM425 268v34v26t-3 26.5t-9 28t-18 17.5t-30 8q-37 0 -49 -28.5t-12 -77.5v-15q0 -53 12.5 -81t48.5 -28q33 0 45 22.5t15 67.5z" />
    <glyph glyph-name="uni208D" unicode="&#x208d;" horiz-adv-x="431" 
d="M419 -457h-15q-70 0 -125.5 16t-90.5 39.5t-60.5 61.5t-37.5 69.5t-19 77.5t-8 71.5t-1 64.5v338q0 28 0.5 45t3.5 52t8.5 59t17.5 58t28.5 57.5t42.5 49.5t59.5 41.5t80 26t101.5 10.5h15v-209h-15q-102 0 -102 -178v-370q0 -170 102 -170h15v-210z" />
    <glyph glyph-name="uni208E" unicode="&#x208e;" horiz-adv-x="433" 
d="M61 -451h-15v210h15q102 0 102 170v370q0 178 -102 178h-15v209h15q55 0 101.5 -10.5t80 -26t59.5 -41.5t42.5 -49.5t28.5 -57.5t17.5 -58t8.5 -59t3.5 -52t0.5 -45v-338q0 -39 -1 -64.5t-8 -71.5t-19 -77.5t-37.5 -69.5t-60.5 -61.5t-90.5 -39.5t-125.5 -16z" />
    <glyph glyph-name="lira" unicode="&#x20a4;" horiz-adv-x="844" 
d="M28 679v209h83q-66 198 -66 327q0 349 376 349q200 0 283.5 -117.5t83.5 -356.5q0 -71 -2 -92l-278 -2q-2 7 -2 39q0 10 0.5 34t0.5 38q0 38 -3 66.5t-11 58t-26.5 45.5t-46.5 16q-49 0 -70.5 -33t-21.5 -110q0 -36 10 -82.5t21.5 -82t33.5 -97.5h292v-209h-224
q1 -7 7 -30t8 -36h209v-208h-197q-11 -52 -42 -93t-60 -50q31 2 102 -5t91 -7q31 0 50 2t45.5 13.5t50.5 33.5l97 -230q-75 -86 -201 -86q-53 0 -191 12.5t-195 12.5q-36 0 -133 -9l-75 -9v266q166 33 187 149h-186v208h170q-8 35 -17 66h-153z" />
    <glyph glyph-name="Euro" unicode="&#x20ac;" horiz-adv-x="817" 
d="M838 1026h-284v108q0 135 -98 135t-98 -142v-164h352l-18 -172h-334v-64h325l-18 -172h-307v-159q0 -39 5.5 -67t28.5 -51.5t64 -23.5q98 0 98 132v111h284v-112q0 -406 -381 -406v-1q-108 0 -184.5 31t-118.5 90t-60.5 131t-18.5 166v159h-68l18 172h50v64h-68l18 172
h50v164q0 94 18 166t60 130.5t118 89.5t184 31l1 1q382 0 382 -410v-109z" />
    <glyph glyph-name="uni2116" unicode="&#x2116;" horiz-adv-x="1865" 
d="M378 0h-283v1522h283v-1h29l210 -719v720h284v-1522h-285l-238 858v-858zM1028 815v308q0 95 17 166.5t57.5 130t115 89t182.5 30.5t182.5 -31t115 -89.5t57.5 -130t17 -165.5v-308q0 -76 -9.5 -135.5t-35 -113.5t-66.5 -89.5t-106 -56.5t-152 -21q-108 0 -183 31
t-116 89.5t-58.5 130t-17.5 165.5zM1706 92h-601v247h601v-247zM1400 1271q-31 0 -51 -12t-28.5 -35t-11.5 -44t-3 -51v-319q0 -30 2.5 -50t11 -43t29 -35t51.5 -12q30 0 50 11.5t28.5 34t11.5 43.5t3 51v320q0 30 -2.5 50t-11 43.5t-28.5 35.5t-51 12z" />
    <glyph glyph-name="trademark" unicode="&#x2122;" horiz-adv-x="1633" 
d="M1038 616l-108 391h-5l16 -473h-240v991h295l132 -503h5l131 503h294v-991h-239l16 473h-5l-107 -391h-185zM649 1293h-185v-759h-240v759h-186v230h611v-230z" />
    <glyph glyph-name="Omega" unicode="&#x2126;" horiz-adv-x="913" 
d="M424 0h-333v272h100l-3 98q-64 52 -88.5 141t-24.5 216v400q0 74 11 134.5t38 114t70 90t109.5 57.5t153.5 21t153.5 -21t109.5 -57.5t70 -90t38 -114t11 -134.5v-400q0 -126 -24.5 -215.5t-88.5 -141.5l-3 -98h100v-272h-333v577q19 0 32 9t19.5 20.5t9.5 34t3.5 36
t0.5 40.5v10v400q0 39 -5.5 66.5t-28.5 51t-64 23.5q-3 0 -4 1q-30 -1 -50 -13.5t-29 -34.5t-12.5 -43.5t-3.5 -50.5v-399v-12q0 -26 0.5 -39.5t3.5 -36t9.5 -34t20 -20.5t32.5 -9v-577z" />
    <glyph glyph-name="estimated" unicode="&#x212e;" horiz-adv-x="896" 
d="M586 419h234v-35q0 -93 -16.5 -162.5t-56 -126.5t-113.5 -87t-182 -30h-1q-108 0 -183 31t-116 89.5t-58.5 130t-17.5 165.5v415q0 95 17 166.5t57.5 130t115 89t182.5 30.5h1q87 0 152 -20.5t106.5 -55.5t67 -88t35.5 -111t10 -130v-250l-508 -11v-295q0 -188 133 -191
h5q136 0 136 181v165zM450 1134q-138 0 -138 -193v-281l274 7v285q0 182 -136 182z" />
    <glyph glyph-name="partialdiff" unicode="&#x2202;" horiz-adv-x="868" 
d="M425 1269l-27 274q12 1 37 1q107 0 181.5 -31t113.5 -90t55.5 -130t16.5 -166v-730q0 -75 -9.5 -134.5t-35 -114.5t-66 -91t-106 -57.5t-152.5 -21.5t-152 21.5t-106 57.5t-66 90.5t-35 115t-10 135.5v190q0 81 5 136t22 113t48 92t85.5 56t131.5 22q113 0 163 -111v209
q0 43 -2 67t-10 49.5t-25.5 36.5t-46.5 11h-10zM430 731q-23 0 -39.5 -9t-25 -22.5t-13 -37t-5.5 -43.5t-1 -52v-148q0 -29 1.5 -49.5t6.5 -44t14 -38t25.5 -24t39.5 -9.5q25 0 42 9.5t25.5 21.5t13 37t5 40.5t0.5 46.5v10v148q0 83 -17 123.5t-72 40.5z" />
    <glyph glyph-name="Delta" unicode="&#x2206;" horiz-adv-x="881" 
d="M440 1136l-109 -860h194l31 -276h-550l231 1522h412l226 -1522h-291l-139 1136h-5z" />
    <glyph glyph-name="product" unicode="&#x220f;" horiz-adv-x="928" 
d="M373 -175h-279v1697h740v-1697h-276v1428h-185v-1428z" />
    <glyph glyph-name="summation" unicode="&#x2211;" horiz-adv-x="846" 
d="M612 812v-102l-228 -435h391v-275h-702v256l245 506l-236 504v256h683v-275h-372z" />
    <glyph glyph-name="minus" unicode="&#x2212;" horiz-adv-x="835" 
d="M756 580h-677v247h677v-247z" />
    <glyph glyph-name="approxequal" unicode="&#x2248;" horiz-adv-x="740" 
d="M551 1032l138 -38q-20 -109 -75.5 -175.5t-153.5 -66.5q-49 0 -111.5 32t-88.5 32q-34 0 -55.5 -16t-35.5 -56l-137 42q50 239 227 239q54 0 116.5 -32.5t87.5 -32.5q64 0 88 72zM551 661l138 -38q-20 -109 -75.5 -175.5t-153.5 -66.5q-49 0 -111.5 32t-88.5 32
q-34 0 -55.5 -16t-35.5 -56l-137 42q50 239 227 239q54 0 116.5 -32.5t87.5 -32.5q64 0 88 72z" />
    <glyph glyph-name="notequal" unicode="&#x2260;" horiz-adv-x="835" 
d="M635 1112l-28 -104h149v-246h-216l-39 -144h255v-246h-322l-42 -155l-202 54l27 101h-138v246h205l39 144h-244v246h311l43 157z" />
    <glyph glyph-name="lessequal" unicode="&#x2264;" horiz-adv-x="857" 
d="M725 342l-624 423v213l624 422v-301l-327 -228l327 -228v-301zM742 44h-653v246h653v-246z" />
    <glyph glyph-name="greaterequal" unicode="&#x2265;" horiz-adv-x="852" 
d="M722 765l-624 -423v301l327 228l-327 228v301l624 -422v-213zM734 44h-653v246h653v-246z" />
    <glyph glyph-name="uniF6C3" unicode="&#xf6c3;" horiz-adv-x="366" 
d="M52 -171q0 63 31 89.5t99 26.5q133 0 133 -141q0 -185 -109 -290l-100 57q34 44 47 72t19 71q-62 0 -91 27.5t-29 87.5z" />
    <glyph glyph-name="uniF6E1" unicode="&#xf6e1;" horiz-adv-x="411" 
d="M47 -247q0 79 39 115.5t122 36.5q165 0 165 -182q0 -239 -135 -374l-123 72q41 50 58 90t23 92q-149 0 -149 150z" />
    <glyph glyph-name="uniF6E2" unicode="&#xf6e2;" horiz-adv-x="411" 
d="M47 968q0 79 39 115.5t122 36.5q165 0 165 -182q0 -239 -135 -374l-123 72q41 50 58 90t23 92q-149 0 -149 150z" />
    <glyph glyph-name="uniF6E5" unicode="&#xf6e5;" horiz-adv-x="640" 
d="M587 -2h-527v221h527v-221z" />
    <glyph glyph-name="uniF6E6" unicode="&#xf6e6;" horiz-adv-x="640" 
d="M587 1214h-527v221h527v-221z" />
    <glyph glyph-name="uniF6E7" unicode="&#xf6e7;" horiz-adv-x="425" 
d="M47 -256q0 80 38.5 116t122.5 36q87 0 126 -36t39 -116q0 -78 -39.5 -114t-125.5 -36q-83 0 -122 36.5t-39 113.5z" />
    <glyph glyph-name="uniF6E8" unicode="&#xf6e8;" horiz-adv-x="425" 
d="M47 960q0 80 38.5 116t122.5 36q87 0 126 -36t39 -116q0 -78 -39.5 -114t-125.5 -36q-83 0 -122 36.5t-39 113.5z" />
    <glyph glyph-name="uniF6F9" unicode="&#xf6f9;" horiz-adv-x="762" 
d="M699 729l-617 -470v251l617 470v-251zM151 1202h278v-925h389v-277h-667v1202z" />
    <glyph glyph-name="uniF6FA" unicode="&#xf6fa;" horiz-adv-x="1297" 
d="M1214 0h-580v31q-104 -53 -176 -53q-108 0 -183.5 31t-116.5 89.5t-58.5 130t-17.5 165.5v436q1 92 19.5 160.5t59.5 123t114.5 83t178.5 28.5q33 0 63.5 -11t73.5 -37.5t44 -26.5v52h579v-277h-389v-177h263v-276h-263v-195h389v-277zM454 957q-84 0 -91 -102
q-3 -47 -3 -149v-207q0 -114 8 -163q12 -87 86 -87q81 0 91 94q2 33 2 154v212q0 116 -7 167q-8 36 -26.5 58.5t-59.5 22.5z" />
    <glyph glyph-name="uniF6FD" unicode="&#xf6fd;" horiz-adv-x="831" 
d="M780 367q0 -189 -83 -289t-282 -100q-86 0 -150.5 19.5t-106.5 54t-68.5 87.5t-37 115t-10.5 142h278q0 -71 20 -109t72 -38q38 0 57 24t19 56q0 33 -24 63t-62 55.5t-84 53t-92.5 60.5t-84.5 71t-62 92.5t-24 118.5q0 196 81.5 289t282.5 93q66 0 115.5 -9t96 -35
t76 -69.5t47 -115t17.5 -168.5l-278 1q0 128 -74 128q-45 0 -63.5 -24t-18.5 -55q0 -29 24.5 -56.5t63.5 -52t86.5 -51.5t94.5 -61t86 -73.5t63.5 -95.5t24.5 -121zM145 1525h221l47 -106l48 106h221l-138 -245h-260z" />
    <glyph glyph-name="uniF6FF" unicode="&#xf6ff;" horiz-adv-x="782" 
d="M139 1525h221l47 -106l48 106h221l-138 -245h-260zM718 0h-676v237l367 707h-339v258h647v-235l-364 -701h365v-266z" />
    <glyph glyph-name="uniF730" unicode="&#xf730;" horiz-adv-x="900" 
d="M81 394v415q0 95 16.5 166.5t56.5 130t114 89t182 30.5q87 0 152.5 -21t106 -56.5t66 -89.5t35 -113.5t9.5 -134.5v-416q0 -75 -10 -134.5t-35 -113.5t-66 -90t-106 -57t-152 -21q-108 0 -182.5 31t-114 90t-56 129.5t-16.5 165.5zM450 254q24 0 41 9t25.5 21t13.5 33
t6 37t1 41v110q0 29 -1 42l-170 -170q6 -68 24 -93q20 -30 60 -30zM450 950q-29 0 -47.5 -11.5t-26.5 -35t-10 -43.5t-2 -51v-147l171 166q0 1 -2.5 20t-4 27.5t-7.5 25.5t-14 25.5t-23 16t-34 7.5z" />
    <glyph glyph-name="uniF731" unicode="&#xf731;" horiz-adv-x="646" 
d="M505 0h-276v827q-44 -53 -213 -64v262q50 10 89.5 27.5t74 47.5t51.5 48.5t50 58.5h224v-1207z" />
    <glyph glyph-name="uniF732" unicode="&#xf732;" horiz-adv-x="907" 
d="M822 0h-729v281q26 73 83 143t119 121.5t120.5 98.5t96.5 93.5t38 88.5q0 120 -87 120q-50 0 -67.5 -34.5t-17.5 -92.5v-55h-283v86q0 179 92 277t281 98q366 0 366 -398q0 -76 -24.5 -143.5t-61.5 -114t-83 -90.5t-87 -75t-75.5 -65.5t-46.5 -63.5h366v-275z" />
    <glyph glyph-name="uniF733" unicode="&#xf733;" horiz-adv-x="909" 
d="M831 104q0 -243 -89 -344t-286 -101q-374 0 -374 394v98h282v-103q0 -56 24 -84.5t68 -28.5q45 0 69 29t24 98v143q0 64 -28.5 93t-84.5 30l-87 2v261l97 4q50 0 70.5 37t20.5 139v49q0 24 -1 40t-6 34.5t-13.5 29.5t-24.5 18.5t-38 7.5q-79 0 -79 -107v-110h-283v95
q0 204 89 300.5t280 96.5q186 0 272.5 -100.5t86.5 -317.5q0 -108 -14.5 -176t-44 -105.5t-80.5 -58.5q88 -32 119 -121t31 -242z" />
    <glyph glyph-name="uniF734" unicode="&#xf734;" horiz-adv-x="960" 
d="M308 1203h293l-198 -1025h118v325h275v-325h86v-275h-86v-222h-275v222h-427v190z" />
    <glyph glyph-name="uniF735" unicode="&#xf735;" horiz-adv-x="909" 
d="M829 197q0 -154 -22 -258t-69.5 -166t-115 -88t-166.5 -26q-195 0 -283.5 95t-88.5 274v141h283v-146q0 -88 84 -88q61 0 75 48t14 221q0 160 -14 204t-69 44q-44 0 -63.5 -19t-28.5 -58v-20h-281l21 848h672v-276h-394l-12 -282q52 71 192 71q47 0 83 -6.5t63.5 -23
t47 -36t32.5 -55t21 -70t12.5 -90.5t5.5 -108t1 -130z" />
    <glyph glyph-name="uniF736" unicode="&#xf736;" horiz-adv-x="899" 
d="M449 -22q-87 0 -152.5 21.5t-106 57.5t-66 91t-35 114.5t-9.5 134.5v730q0 95 16.5 166t55.5 130t113.5 90t181.5 31t179.5 -31t110 -89.5t52.5 -126t15 -158.5v-64h-284v43q0 46 -4.5 76t-21 52.5t-46.5 22.5q-29 0 -46.5 -11t-25.5 -36.5t-10 -49.5t-2 -67v-207
q51 109 162 109q77 0 131.5 -22t85.5 -56t48 -92t22 -113t5 -136v-190q0 -75 -10 -135.5t-35 -115t-66 -90.5t-106 -57.5t-152 -21.5zM364 567v-148v-14q0 -31 0.5 -46.5t4.5 -39t12.5 -35t25.5 -21t42 -9.5q29 0 47.5 13t26.5 39.5t10.5 51t2.5 61.5v148q0 41 -2 64.5
t-9.5 49.5t-25.5 38t-46 12q-55 0 -72 -40.5t-17 -123.5z" />
    <glyph glyph-name="uniF737" unicode="&#xf737;" horiz-adv-x="959" 
d="M872 988l-334 -1307h-297l328 1246h-213v-159h-261v435h777v-215z" />
    <glyph glyph-name="uniF738" unicode="&#xf738;" horiz-adv-x="888" 
d="M80 1099v37q0 94 16 163.5t55 127t112 87.5t179 30t179 -30t111.5 -87.5t54.5 -127t16 -163.5v-41q0 -219 -124 -309q132 -84 132 -313v-86q0 -94 -17.5 -165t-58 -128t-114 -86.5t-179.5 -29.5q-85 0 -150 20t-106.5 55t-67 87.5t-36 112t-10.5 133.5v82q0 126 27 202.5
t91 117.5q-110 84 -110 311zM442 653q-29 0 -47 -14t-26 -41.5t-10.5 -52.5t-2.5 -63v-74q0 -29 0.5 -40.5t2.5 -34.5t7 -33t14.5 -23t25 -18t36.5 -5q28 0 46 11.5t26 35t11 47.5t3 60v74q0 30 -1 50.5t-6 45.5t-13.5 39.5t-25.5 25t-40 10.5zM442 927q22 0 37.5 10t23 24
t12 38.5t5 42.5t0.5 47v26q0 26 -0.5 38t-2.5 34.5t-6.5 33.5t-13 24t-22.5 18.5t-33 5.5t-33.5 -5t-22.5 -18t-13 -23t-6.5 -33t-2 -34.5t-0.5 -40.5v-25q0 -26 0.5 -40t2.5 -37t7 -35t13 -25.5t22 -19.5t33 -6z" />
    <glyph glyph-name="uniF739" unicode="&#xf739;" horiz-adv-x="900" 
d="M819 807v-729q0 -75 -9.5 -135t-34.5 -114.5t-65.5 -90.5t-105.5 -57t-152 -21q-106 0 -178.5 31t-110 89.5t-52.5 126.5t-15 158v65h283v-43q0 -34 2.5 -58t10 -47t22.5 -35t38 -12t39.5 8.5t25 21t13.5 36t6 44t1 54.5v210q-51 -112 -164 -112q-65 0 -113.5 14t-80 43
t-51.5 63.5t-30 86.5t-13.5 99.5t-3.5 113.5v190q0 95 16.5 166.5t56.5 130.5t114 90t182 31q87 0 152.5 -21.5t106 -57.5t66 -90.5t35 -114t9.5 -134.5zM447 472q55 0 72.5 41t17.5 124v149q0 90 -12 119q-18 46 -75 46q-29 0 -47 -13.5t-26 -40t-10.5 -50.5t-2.5 -61v-149
q0 -32 1 -51.5t5.5 -44t13 -37.5t24.5 -22.5t39 -9.5z" />
    <glyph glyph-name="uniF761" unicode="&#xf761;" horiz-adv-x="866" 
d="M296 0h-286l202 1204h441l201 -1204h-285l-22 159h-229zM425 936l-74 -534h162l-74 534h-14z" />
    <glyph glyph-name="uniF762" unicode="&#xf762;" horiz-adv-x="908" 
d="M92 1202h344q380 0 380 -360v-7q0 -142 -110 -222q122 -80 122 -237v-7q0 -190 -92 -279.5t-280 -89.5h-364v1202zM553 365v11q-2 110 -100 110h-85v-219h85q100 0 100 98zM533 835v10q0 90 -100 90h-65v-199h65q57 0 78.5 23.5t21.5 75.5z" />
    <glyph glyph-name="uniF763" unicode="&#xf763;" horiz-adv-x="891" 
d="M544 377v26h275v-23q0 -73 -9.5 -130.5t-35 -109.5t-66 -86.5t-105.5 -55t-152 -20.5q-108 0 -183.5 31t-116.5 89.5t-58.5 130t-17.5 165.5v323q0 73 1 110q0 92 18 161.5t59.5 124.5t115.5 83.5t179 28.5q107 0 182 -30t115 -87t57 -125.5t17 -158.5v-24h-275v28
q0 129 -96 129q-31 0 -51 -12t-28.5 -34.5t-11.5 -43.5t-3 -51v-273q0 -124 1 -187q7 -107 93 -107q96 0 96 128z" />
    <glyph glyph-name="uniF764" unicode="&#xf764;" horiz-adv-x="908" 
d="M462 0h-370v1202h370q86 0 152 -20.5t109 -56.5t70 -89.5t38 -114t11 -135.5v-370q0 -75 -11 -135.5t-38 -114t-70 -89.5t-109 -56.5t-152 -20.5zM462 926h-86v-651h86q98 0 98 141v370q0 140 -98 140z" />
    <glyph glyph-name="uniF765" unicode="&#xf765;" horiz-adv-x="834" 
d="M762 0h-667v1202h667v-277h-389v-177h263v-276h-263v-195h389v-277z" />
    <glyph glyph-name="uniF766" unicode="&#xf766;" horiz-adv-x="783" 
d="M373 0h-278v1202h667v-277h-389v-219h271v-277h-271v-429z" />
    <glyph glyph-name="uniF767" unicode="&#xf767;" horiz-adv-x="888" 
d="M437 432v221h382l-2 -118h2v-155q0 -73 -9.5 -130.5t-35 -109.5t-66 -86.5t-105.5 -55t-152 -20.5q-108 0 -183.5 30.5t-116.5 89.5t-58.5 130.5t-17.5 165.5v433q0 73 11 131.5t37.5 109t68.5 84.5t106.5 53.5t148.5 19.5q108 0 182.5 -30t115 -86.5t57.5 -125.5
t17 -159v-24h-275v28q0 129 -97 129q-31 0 -51 -12t-28.5 -34.5t-11.5 -43.5t-3 -51v-273q0 -124 1 -187q7 -107 93 -107q97 0 97 128v55h-107z" />
    <glyph glyph-name="uniF768" unicode="&#xf768;" horiz-adv-x="943" 
d="M373 0h-278v1202h278v-467h197v467h278v-1202h-278v460h-197v-460z" />
    <glyph glyph-name="uniF769" unicode="&#xf769;" horiz-adv-x="468" 
d="M373 0h-277v1202h277v-1202z" />
    <glyph glyph-name="uniF76A" unicode="&#xf76a;" horiz-adv-x="652" 
d="M-8 39l82 240q61 -25 123 -25q88 0 93 113v835h278l-1 -780v-54q0 -192 -85.5 -290.5t-293.5 -98.5q-120 0 -196 60z" />
    <glyph glyph-name="uniF76B" unicode="&#xf76b;" horiz-adv-x="903" 
d="M94 1201h277v-457h72l146 458h280l-215 -602l243 -600h-306l-152 470h-68v-470h-277v1201z" />
    <glyph glyph-name="uniF76C" unicode="&#xf76c;" horiz-adv-x="773" 
d="M95 1202h278v-925h389v-277h-667v1202z" />
    <glyph glyph-name="uniF76D" unicode="&#xf76d;" horiz-adv-x="1223" 
d="M502 197l-134 568l11 -765h-284v1205h357l160 -608h1l161 608h356v-1205h-282l10 768l-136 -571h-220z" />
    <glyph glyph-name="uniF76E" unicode="&#xf76e;" horiz-adv-x="951" 
d="M855 0h-295l-180 536v-536h-283l-2 1202h61v2l234 -2l181 -517v517h284v-1202z" />
    <glyph glyph-name="uniF76F" unicode="&#xf76f;" 
d="M75 394v415q0 95 17 166.5t57.5 130t115 89t182.5 30.5q87 0 152.5 -21t106.5 -57t67 -89.5t36 -113t10 -134.5v-416q0 -95 -16.5 -166t-56 -130t-113.5 -89.5t-182 -30.5t-183.5 31t-116.5 89.5t-58.5 130t-17.5 165.5zM447 957q-31 0 -51 -12t-28.5 -34.5t-11.5 -43.5
t-3 -51v-427q0 -29 2.5 -49.5t11.5 -43.5t29 -35t51 -12q30 0 50 11.5t28.5 34t11.5 43.5t3 51v427q0 30 -2.5 50.5t-11 43.5t-28.5 35t-51 12z" />
    <glyph glyph-name="uniF770" unicode="&#xf770;" horiz-adv-x="876" 
d="M556 737v100q0 98 -100 98h-85v-308h84q54 0 77 28.5t24 81.5zM371 0h-276v1202h364q188 0 280 -89.5t92 -279.5v-96q0 -89 -25 -157.5t-64.5 -109t-94.5 -66.5t-108 -35t-112 -9h-56v-360z" />
    <glyph glyph-name="uniF771" unicode="&#xf771;" 
d="M322 -175v167q-135 32 -191 135.5t-56 266.5v415q0 95 17 166.5t57.5 130t115 89t182.5 30.5q87 0 152.5 -21t106.5 -57t67 -89.5t36 -113t10 -134.5v-416q0 -64 -7 -116t-24 -101t-45 -85t-71.5 -62.5t-101.5 -39.5v-165h-248zM447 957q-31 0 -51 -12t-28.5 -34.5
t-11.5 -43.5t-3 -51v-427q0 -29 2.5 -49.5t11.5 -43.5t29 -35t51 -12q30 0 50 11.5t28.5 34t11.5 43.5t3 51v427q0 30 -2.5 50.5t-11 43.5t-28.5 35t-51 12z" />
    <glyph glyph-name="uniF772" unicode="&#xf772;" horiz-adv-x="902" 
d="M371 0h-276v1202h364q188 0 280 -89.5t92 -279.5v-56q0 -169 -138 -280q58 -39 77.5 -81t35.5 -165l10 -90q13 -98 49 -161h-285q-28 59 -40 153l-13 91q-7 51 -17 83t-25 47t-29.5 20t-38.5 6h-46v-400zM556 777v60q0 98 -100 98h-85v-268h84q54 0 77 28.5t24 81.5z" />
    <glyph glyph-name="uniF773" unicode="&#xf773;" horiz-adv-x="831" 
d="M780 367q0 -189 -83 -289t-282 -100q-86 0 -150.5 19.5t-106.5 54t-68.5 87.5t-37 115t-10.5 142h278q0 -71 20 -109t72 -38q38 0 57 24t19 56q0 33 -24 63t-62 55.5t-84 53t-92.5 60.5t-84.5 71t-62 92.5t-24 118.5q0 196 81.5 289t282.5 93q66 0 115.5 -9t96 -35
t76 -69.5t47 -115t17.5 -168.5l-278 1q0 128 -74 128q-45 0 -63.5 -24t-18.5 -55q0 -29 24.5 -56.5t63.5 -52t86.5 -51.5t94.5 -61t86 -73.5t63.5 -95.5t24.5 -121z" />
    <glyph glyph-name="uniF774" unicode="&#xf774;" horiz-adv-x="720" 
d="M712 933h-213v-934h-275v934h-216v269h704v-269z" />
    <glyph glyph-name="uniF775" unicode="&#xf775;" horiz-adv-x="902" 
d="M555 1202h282v-835q0 -94 -18.5 -162.5t-61 -121t-117.5 -79t-183 -26.5q-107 1 -181 28t-116.5 79t-60.5 120.5t-18 161.5v835h282v-834q0 -56 19.5 -85.5t79.5 -29.5q56 2 74.5 31t18.5 84v834z" />
    <glyph glyph-name="uniF776" unicode="&#xf776;" horiz-adv-x="863" 
d="M569 1204h285l-235 -1204h-375l-235 1204h285l137 -900z" />
    <glyph glyph-name="uniF777" unicode="&#xf777;" horiz-adv-x="1449" 
d="M188 0l-175 1204h285l109 -936h4l109 936h398l109 -936h4l109 936h286l-176 -1204h-425l-106 899l-106 -899h-425z" />
    <glyph glyph-name="uniF778" unicode="&#xf778;" horiz-adv-x="842" 
d="M832 0h-289l-128 363l-135 -363h-270l238 625l-225 577h291l112 -331l124 331h269l-225 -577z" />
    <glyph glyph-name="uniF779" unicode="&#xf779;" horiz-adv-x="784" 
d="M521 1202h251l-232 -761v-441h-283v441l-243 761h273l113 -475z" />
    <glyph glyph-name="uniF77A" unicode="&#xf77a;" horiz-adv-x="782" 
d="M718 0h-676v237l367 707h-339v258h647v-235l-364 -701h365v-266z" />
    <glyph glyph-name="uniF7E0" unicode="&#xf7e0;" horiz-adv-x="866" 
d="M163 1564h242l132 -284h-192zM296 0h-286l202 1204h441l201 -1204h-285l-22 159h-229zM425 936l-74 -534h162l-74 534h-14z" />
    <glyph glyph-name="uniF7E1" unicode="&#xf7e1;" horiz-adv-x="866" 
d="M296 0h-286l202 1204h441l201 -1204h-285l-22 159h-229zM425 936l-74 -534h162l-74 534h-14zM462 1564h259l-191 -284h-200z" />
    <glyph glyph-name="uniF7E2" unicode="&#xf7e2;" horiz-adv-x="866" 
d="M386 1280h-221l138 245h261l138 -245h-221l-48 106zM296 0h-286l202 1204h441l201 -1204h-285l-22 159h-229zM425 936l-74 -534h162l-74 534h-14z" />
    <glyph glyph-name="uniF7E3" unicode="&#xf7e3;" horiz-adv-x="866" 
d="M624 1569l138 -38q-20 -109 -75.5 -175.5t-153.5 -66.5q-49 0 -111.5 32t-88.5 32q-34 0 -55.5 -16t-35.5 -56l-137 42q50 239 227 239q54 0 116.5 -32.5t87.5 -32.5q64 0 88 72zM296 0h-286l202 1204h441l201 -1204h-285l-22 159h-229zM425 936l-74 -534h162l-74 534
h-14z" />
    <glyph glyph-name="uniF7E4" unicode="&#xf7e4;" horiz-adv-x="866" 
d="M161 1422q0 69 30 100t95 31q66 0 96 -31t30 -100q0 -67 -30 -98.5t-96 -31.5q-65 0 -95 31.5t-30 98.5zM454 1422q0 69 30 100t94 31q67 0 97 -31t30 -100q0 -67 -30.5 -98.5t-96.5 -31.5q-64 0 -94 31.5t-30 98.5zM296 0h-286l202 1204h441l201 -1204h-285l-22 159
h-229zM425 936l-74 -534h162l-74 534h-14z" />
    <glyph glyph-name="uniF7E5" unicode="&#xf7e5;" horiz-adv-x="866" 
d="M199 1482q0 114 56 166.5t176 52.5q123 0 179.5 -52.5t56.5 -166.5q0 -111 -56.5 -163.5t-179.5 -52.5q-120 0 -176 52.5t-56 163.5zM374 1483q0 -57 59 -57t59 57q0 28 -13.5 41.5t-45.5 13.5t-45.5 -13.5t-13.5 -41.5zM296 0h-286l202 1204h441l201 -1204h-285l-22 159
h-229zM425 936l-74 -534h162l-74 534h-14z" />
    <glyph glyph-name="uniF7E6" unicode="&#xf7e6;" horiz-adv-x="1224" 
d="M304 0h-285l252 1202h789v-277h-302v-177h175v-276h-175v-195h302v-277l-579 -2v161h-147zM480 936l-101 -534h102v534h-1z" />
    <glyph glyph-name="uniF7E7" unicode="&#xf7e7;" horiz-adv-x="891" 
d="M223 -365l41 98q31 -19 47.5 -27t49.5 -16t75 -8q41 0 66 16.5t25 48.5q0 26 -31 39.5t-73 13.5q-38 0 -65 -9l2 250h135l-1 -118q2 0 9 1.5t11 2.5q20 5 47 5q77 0 122.5 -51t45.5 -122q0 -99 -77 -152t-208 -53q-69 0 -126.5 23.5t-94.5 57.5zM544 377q0 -128 -96 -128
q-86 0 -93 107q-1 63 -1 187v273q0 30 3 51t11.5 43.5t28.5 34.5t51 12q96 0 96 -129v-28h275v24q0 90 -17 158.5t-57 125.5t-115 87t-182 30q-105 0 -179 -28.5t-115.5 -83.5t-59.5 -124.5t-18 -161.5q-1 -37 -1 -110v-323q0 -94 17.5 -165.5t58.5 -130t116.5 -89.5
t183.5 -31q87 0 152 20.5t105.5 55t66 86.5t35 109.5t9.5 130.5v23h-275v-26z" />
    <glyph glyph-name="uniF7E8" unicode="&#xf7e8;" horiz-adv-x="834" 
d="M152 1564h242l132 -284h-192zM762 0h-667v1202h667v-277h-389v-177h263v-276h-263v-195h389v-277z" />
    <glyph glyph-name="uniF7E9" unicode="&#xf7e9;" horiz-adv-x="834" 
d="M762 0h-667v1202h667v-277h-389v-177h263v-276h-263v-195h389v-277zM433 1564h259l-191 -284h-200z" />
    <glyph glyph-name="uniF7EA" unicode="&#xf7ea;" horiz-adv-x="834" 
d="M370 1280h-221l138 245h261l138 -245h-221l-48 106zM762 0h-667v1202h667v-277h-389v-177h263v-276h-263v-195h389v-277z" />
    <glyph glyph-name="uniF7EB" unicode="&#xf7eb;" horiz-adv-x="834" 
d="M149 1422q0 69 30 100t95 31q66 0 96 -31t30 -100q0 -67 -30 -98.5t-96 -31.5q-65 0 -95 31.5t-30 98.5zM442 1422q0 69 30 100t94 31q67 0 97 -31t30 -100q0 -67 -30.5 -98.5t-96.5 -31.5q-64 0 -94 31.5t-30 98.5zM762 0h-667v1202h667v-277h-389v-177h263v-276h-263
v-195h389v-277z" />
    <glyph glyph-name="uniF7EC" unicode="&#xf7ec;" horiz-adv-x="468" 
d="M373 0h-277v1202h277v-1202zM-51 1564h242l132 -284h-192z" />
    <glyph glyph-name="uniF7ED" unicode="&#xf7ed;" horiz-adv-x="468" 
d="M266 1564h259l-191 -284h-200zM373 0h-277v1202h277v-1202z" />
    <glyph glyph-name="uniF7EE" unicode="&#xf7ee;" horiz-adv-x="468" 
d="M373 0h-277v1202h277v-1202zM187 1280h-221l138 245h261l138 -245h-221l-48 106z" />
    <glyph glyph-name="uniF7EF" unicode="&#xf7ef;" horiz-adv-x="468" 
d="M373 0h-277v1202h277v-1202zM-38 1422q0 69 30 100t95 31q66 0 96 -31t30 -100q0 -67 -30 -98.5t-96 -31.5q-65 0 -95 31.5t-30 98.5zM255 1422q0 69 30 100t94 31q67 0 97 -31t30 -100q0 -67 -30.5 -98.5t-96.5 -31.5q-64 0 -94 31.5t-30 98.5z" />
    <glyph glyph-name="uniF7F0" unicode="&#xf7f0;" horiz-adv-x="932" 
d="M464 467h-461v247h461v-247zM464 0h-370v1202h370q86 0 152 -20.5t109 -56.5t70 -89.5t38 -114t11 -135.5v-370q0 -75 -11 -135.5t-38 -114t-70 -89.5t-109 -56.5t-152 -20.5zM464 926h-86v-651h86q98 0 98 141v370q0 140 -98 140z" />
    <glyph glyph-name="uniF7F1" unicode="&#xf7f1;" horiz-adv-x="943" 
d="M690 1569l138 -38q-20 -109 -75.5 -175.5t-153.5 -66.5q-49 0 -111.5 32t-88.5 32q-34 0 -55.5 -16t-35.5 -56l-137 42q50 239 227 239q54 0 116.5 -32.5t87.5 -32.5q64 0 88 72zM854 0h-295l-180 536v-536h-283l-2 1202h61v2l234 -2l181 -517v517h284v-1202z" />
    <glyph glyph-name="uniF7F2" unicode="&#xf7f2;" 
d="M75 394v415q0 95 17 166.5t57.5 130t115 89t182.5 30.5q87 0 152.5 -21t106.5 -57t67 -89.5t36 -113t10 -134.5v-416q0 -95 -16.5 -166t-56 -130t-113.5 -89.5t-182 -30.5t-183.5 31t-116.5 89.5t-58.5 130t-17.5 165.5zM447 957q-31 0 -51 -12t-28.5 -34.5t-11.5 -43.5
t-3 -51v-427q0 -29 2.5 -49.5t11.5 -43.5t29 -35t51 -12q30 0 50 11.5t28.5 34t11.5 43.5t3 51v427q0 30 -2.5 50.5t-11 43.5t-28.5 35t-51 12zM164 1564h242l132 -284h-192z" />
    <glyph glyph-name="uniF7F3" unicode="&#xf7f3;" 
d="M75 394v415q0 95 17 166.5t57.5 130t115 89t182.5 30.5q87 0 152.5 -21t106.5 -57t67 -89.5t36 -113t10 -134.5v-416q0 -95 -16.5 -166t-56 -130t-113.5 -89.5t-182 -30.5t-183.5 31t-116.5 89.5t-58.5 130t-17.5 165.5zM447 957q-31 0 -51 -12t-28.5 -34.5t-11.5 -43.5
t-3 -51v-427q0 -29 2.5 -49.5t11.5 -43.5t29 -35t51 -12q30 0 50 11.5t28.5 34t11.5 43.5t3 51v427q0 30 -2.5 50.5t-11 43.5t-28.5 35t-51 12zM466 1564h259l-191 -284h-200z" />
    <glyph glyph-name="uniF7F4" unicode="&#xf7f4;" 
d="M75 394v415q0 95 17 166.5t57.5 130t115 89t182.5 30.5q87 0 152.5 -21t106.5 -57t67 -89.5t36 -113t10 -134.5v-416q0 -95 -16.5 -166t-56 -130t-113.5 -89.5t-182 -30.5t-183.5 31t-116.5 89.5t-58.5 130t-17.5 165.5zM447 957q-31 0 -51 -12t-28.5 -34.5t-11.5 -43.5
t-3 -51v-427q0 -29 2.5 -49.5t11.5 -43.5t29 -35t51 -12q30 0 50 11.5t28.5 34t11.5 43.5t3 51v427q0 30 -2.5 50.5t-11 43.5t-28.5 35t-51 12zM393 1280h-221l138 245h261l138 -245h-221l-48 106z" />
    <glyph glyph-name="uniF7F5" unicode="&#xf7f5;" 
d="M75 394v415q0 95 17 166.5t57.5 130t115 89t182.5 30.5q87 0 152.5 -21t106.5 -57t67 -89.5t36 -113t10 -134.5v-416q0 -95 -16.5 -166t-56 -130t-113.5 -89.5t-182 -30.5t-183.5 31t-116.5 89.5t-58.5 130t-17.5 165.5zM447 957q-31 0 -51 -12t-28.5 -34.5t-11.5 -43.5
t-3 -51v-427q0 -29 2.5 -49.5t11.5 -43.5t29 -35t51 -12q30 0 50 11.5t28.5 34t11.5 43.5t3 51v427q0 30 -2.5 50.5t-11 43.5t-28.5 35t-51 12zM631 1569l138 -38q-20 -109 -75.5 -175.5t-153.5 -66.5q-49 0 -111.5 32t-88.5 32q-34 0 -55.5 -16t-35.5 -56l-137 42
q50 239 227 239q54 0 116.5 -32.5t87.5 -32.5q64 0 88 72z" />
    <glyph glyph-name="uniF7F6" unicode="&#xf7f6;" 
d="M75 394v415q0 95 17 166.5t57.5 130t115 89t182.5 30.5q87 0 152.5 -21t106.5 -57t67 -89.5t36 -113t10 -134.5v-416q0 -95 -16.5 -166t-56 -130t-113.5 -89.5t-182 -30.5t-183.5 31t-116.5 89.5t-58.5 130t-17.5 165.5zM447 957q-31 0 -51 -12t-28.5 -34.5t-11.5 -43.5
t-3 -51v-427q0 -29 2.5 -49.5t11.5 -43.5t29 -35t51 -12q30 0 50 11.5t28.5 34t11.5 43.5t3 51v427q0 30 -2.5 50.5t-11 43.5t-28.5 35t-51 12zM170 1422q0 69 30 100t95 31q66 0 96 -31t30 -100q0 -67 -30 -98.5t-96 -31.5q-65 0 -95 31.5t-30 98.5zM463 1422q0 69 30 100
t94 31q67 0 97 -31t30 -100q0 -67 -30.5 -98.5t-96.5 -31.5q-64 0 -94 31.5t-30 98.5z" />
    <glyph glyph-name="uniF7F8" unicode="&#xf7f8;" horiz-adv-x="893" 
d="M881 1411l-102 -205q18 -70 18 -155v-690q0 -87 -18 -154t-58.5 -120t-112 -80.5t-171.5 -27.5q-142 0 -228 58l-33 -69l-190 34l107 213q-16 63 -16 146v690q0 87 18 153.5t58.5 119t112 80.5t171.5 28q139 0 225 -56l35 70zM437 255q1 0 4 -1q72 3 72 107v689
q0 106 -76 106q-3 0 -4 1q-73 -3 -73 -106v-690q0 -106 77 -106z" />
    </font>
</defs>
</svg>
